<svg width="25" height="24" viewBox="0 0 25 24" fill="none" xmlns="http://www.w3.org/2000/svg">
<g clip-path="url(#clip0_303_2735)">
<path d="M12.1846 0C18.914 0 24.3692 5.37257 24.3692 12C24.3692 18.6274 18.914 24 12.1846 24C5.45523 24 0 18.6274 0 12C0 5.37257 5.45523 0 12.1846 0Z" fill="black"/>
<path d="M6.33252 9.79607C6.33252 9.8859 6.42373 9.97573 6.51494 9.97573H8.73115V11.0852H6.51494C6.42373 11.0852 6.33252 11.175 6.33252 11.2649V13.0944C6.33252 13.1842 6.42373 13.274 6.51494 13.274H8.73115V17.653C8.73115 17.7428 8.79172 17.8032 8.88293 17.8032H11.0086C11.0998 17.8032 11.1604 17.7435 11.1604 17.653V13.5154C11.1604 13.4256 11.221 13.3652 11.3122 13.3652H13.0132C13.0737 13.3652 13.1343 13.3954 13.165 13.455L15.0477 17.7442C15.0783 17.8038 15.1389 17.834 15.1994 17.834H17.4769C17.5981 17.834 17.6593 17.714 17.6287 17.6242L15.746 13.4249C15.7154 13.335 15.746 13.2452 15.8372 13.215C16.7479 12.8852 17.3251 12.0754 17.3251 10.9954V8.29573C17.3251 6.91607 16.1714 5.77641 14.774 5.77641H8.88293C8.79172 5.77641 8.73115 5.83676 8.73115 5.92658V7.78624H6.51494C6.42373 7.78624 6.33252 7.87607 6.33252 7.9659V9.79607Z" fill="white"/>
<path d="M11.1606 8.20588C11.1606 8.11605 11.2212 8.05571 11.3124 8.05571H14.1671C14.5619 8.05571 14.8961 8.38554 14.8961 8.77571V10.3954C14.8961 10.7855 14.5619 11.1154 14.1671 11.1154H11.3124C11.2212 11.1154 11.1606 11.055 11.1606 10.9652V8.20588Z" fill="black"/>
</g>
<defs>
<clipPath id="clip0_303_2735">
<rect width="24.3692" height="24" fill="white"/>
</clipPath>
</defs>
</svg>
