<svg width="16" height="23" viewBox="0 0 16 23" fill="none" xmlns="http://www.w3.org/2000/svg">
<path d="M0.733398 12.944L1.27998 12.716L8.0129 9.88402L15.2924 12.944L12.5595 18.404L5.87626 19.316L0.8452 14.072L0.733398 12.944Z" fill="#133444"/>
<path d="M13.7893 9.58399C12.5843 8.17999 10.8825 7.27999 9.0191 7.03999L8.89488 7.02799C8.31103 6.95599 7.72717 6.95599 7.14332 7.02799L7.0191 7.03999C5.15575 7.27999 3.45388 8.19199 2.24891 9.58399L1.95078 10.064L1.44146 10.868L1.06879 11.456C1.06879 11.468 1.05637 11.492 1.04395 11.504V11.516L1.8514 11.984L7.00668 14.936L8.00047 15.5V8.45599L7.00668 8.88799V7.83199L8.00047 7.39999L8.99426 7.83199L14.0626 10.064L13.7893 9.58399Z" fill="#C42370"/>
<path d="M15.5157 14.696C15.5033 17.012 14.4225 19.196 12.5716 20.66C11.8635 21.224 11.0685 21.644 10.1989 21.932C9.49086 22.16 8.75794 22.268 8.0126 22.268C3.86353 22.268 0.49707 18.704 0.49707 14.696C0.49707 14.108 0.571604 13.52 0.720673 12.944L8.00018 17.108L15.2797 12.944C15.4412 13.52 15.5281 14.108 15.5157 14.696Z" fill="#1C4D6B"/>
<path d="M7.14327 7.02799L8.01283 7.39999L7.01904 7.84399V6.96799L7.14327 7.02799Z" fill="black"/>
<path d="M7.01904 8.90002L8.01283 8.45601V15.512L7.01904 14.936V8.90002Z" fill="black"/>
<path d="M8.0127 8.45601V15.512L14.9941 11.528L8.0127 8.45601Z" fill="#1D4259"/>
<path d="M8.0127 0.344002V8.456L14.9941 11.528L8.0127 0.344002Z" fill="#4B6B9A"/>
<path d="M8.01262 8.45601V15.5L7.01883 14.936L1.04367 11.528H1.03125H1.04367C1.04367 11.516 1.05609 11.492 1.06852 11.48L1.93808 10.076L7.00641 7.85601V8.90001L8.01262 8.45601Z" fill="#343535"/>
<path d="M8.01289 8.45601V15.512L7.0191 14.936L1.04395 11.528L1.05637 11.516L7.0191 8.90002L8.01289 8.45601Z" fill="#3E5578"/>
<path d="M8.01289 0.344002V8.456L1.04395 11.528L8.01289 0.344002Z" fill="#6DB2D8"/>
<path d="M5.19287 21.692C5.29225 21.74 5.40405 21.776 5.50343 21.812C5.40405 21.776 5.30467 21.728 5.19287 21.692Z" fill="#335F8A"/>
<path d="M5.50342 21.812C5.6028 21.848 5.7146 21.896 5.8264 21.92C5.72702 21.896 5.61522 21.86 5.50342 21.812Z" fill="#335F8A"/>
<path d="M6.11182 22.004C6.19877 22.028 6.27331 22.052 6.36026 22.064C6.27331 22.052 6.18635 22.028 6.11182 22.004Z" fill="#335F8A"/>
<path d="M0.732391 12.944L8.01189 17.108C7.91251 17.744 7.7386 18.356 7.49015 18.956C6.9063 20.324 5.7386 21.764 3.45289 20.66C1.60196 19.196 0.521211 17.012 0.508789 14.696C0.508789 14.108 0.583323 13.52 0.732391 12.944Z" fill="#6DB2D8"/>
<path d="M12.5718 20.66L12.5469 20.672C12.5097 20.696 12.4724 20.732 12.4351 20.756L12.4227 20.768C12.3855 20.804 12.3358 20.828 12.2985 20.864C12.2488 20.9 12.2115 20.936 12.1619 20.96C12.1122 20.984 12.0625 21.02 12.0252 21.056C11.9755 21.092 11.9383 21.104 11.901 21.14L11.8761 21.152C11.8264 21.176 11.7892 21.2 11.7519 21.236C11.7519 21.236 11.7395 21.236 11.7395 21.248C11.6898 21.272 11.6525 21.296 11.6028 21.332C11.5532 21.356 11.5035 21.38 11.4538 21.416C11.4041 21.44 11.3544 21.464 11.3047 21.488L11.1556 21.56C11.106 21.584 11.0563 21.608 11.0066 21.632C10.9569 21.656 10.9072 21.68 10.8575 21.704C10.7581 21.752 10.6463 21.788 10.5469 21.824C10.4476 21.86 10.3358 21.896 10.224 21.932C10.1867 21.944 10.137 21.956 10.0997 21.968L9.95067 22.016C9.86372 22.04 9.78918 22.064 9.70223 22.076C9.67738 22.088 9.64012 22.088 9.60285 22.1L9.55316 22.112L9.41651 22.136C9.36682 22.148 9.34198 22.148 9.29229 22.16C9.25502 22.172 9.21776 22.172 9.18049 22.184C9.14322 22.184 9.09353 22.196 9.05627 22.208C9.03142 22.208 9.019 22.208 8.99415 22.22L8.89477 22.232H8.84509C8.80782 22.232 8.77055 22.244 8.74571 22.244C8.70844 22.244 8.65875 22.256 8.62148 22.256C8.58422 22.256 8.55937 22.256 8.5221 22.256C8.48484 22.256 8.45999 22.256 8.43515 22.256C8.39788 22.256 8.36061 22.256 8.33577 22.256C8.31092 22.256 8.23639 22.256 8.19912 22.256H7.90099C7.8513 22.256 7.80161 22.256 7.76434 22.256C7.72707 22.256 7.68981 22.256 7.66496 22.256C7.64012 22.256 7.60285 22.256 7.57801 22.256C7.55316 22.256 7.51589 22.256 7.47863 22.256C7.44136 22.256 7.39167 22.244 7.3544 22.244C7.31714 22.244 7.27987 22.244 7.25502 22.232H7.20534C7.18049 22.232 7.14322 22.22 7.10596 22.22C7.08111 22.22 7.06869 22.22 7.04385 22.208C7.00658 22.208 6.95689 22.196 6.91962 22.184C6.88235 22.184 6.84509 22.172 6.80782 22.16C6.77055 22.16 6.72086 22.148 6.6836 22.136C6.64633 22.124 6.59664 22.112 6.54695 22.112L6.49726 22.1C6.45999 22.1 6.42273 22.088 6.39788 22.088C6.31093 22.064 6.22397 22.04 6.14944 22.028L6.00037 21.98C5.95068 21.968 5.91341 21.956 5.87614 21.944C5.76434 21.908 5.66496 21.872 5.55316 21.836C5.44136 21.8 5.34198 21.752 5.2426 21.716C5.19291 21.692 5.14323 21.668 5.09354 21.644L4.94447 21.572L4.7954 21.5C4.74571 21.476 4.69602 21.452 4.64633 21.428C4.59664 21.404 4.54695 21.38 4.49726 21.344C4.44757 21.32 4.41031 21.296 4.36062 21.26L4.3482 21.248C4.29851 21.224 4.26124 21.2 4.22397 21.164L4.19913 21.152C4.16186 21.128 4.11217 21.104 4.0749 21.068C4.03764 21.044 3.97552 21.008 3.93826 20.972C3.88857 20.936 3.83888 20.912 3.80161 20.876L3.67739 20.78L3.66497 20.768C3.6277 20.744 3.59043 20.708 3.55317 20.684L3.52832 20.672C5.80161 21.764 6.98173 20.324 7.56558 18.968C7.81403 18.38 7.98794 17.756 8.08732 17.12C8.1867 17.756 8.36061 18.368 8.60906 18.968C9.11838 20.312 10.2985 21.752 12.5718 20.66Z" fill="#529BBA"/>
<path d="M9.67725 22.076C9.7642 22.052 9.85116 22.028 9.92569 22.016C9.85116 22.028 9.7642 22.052 9.67725 22.076Z" fill="#335F8A"/>
<path d="M10.1987 21.92C10.3105 21.884 10.4099 21.848 10.5217 21.812C10.4223 21.86 10.3105 21.896 10.1987 21.92Z" fill="#335F8A"/>
<path d="M10.522 21.812C10.6214 21.776 10.7332 21.728 10.8325 21.692C10.7332 21.728 10.6338 21.776 10.522 21.812Z" fill="#335F8A"/>
<path d="M15.5158 14.696C15.5034 17.012 14.4226 19.196 12.5717 20.66C10.2984 21.752 9.11829 20.312 8.53444 18.956C8.28599 18.368 8.11207 17.744 8.0127 17.108L15.2922 12.944C15.4413 13.52 15.5158 14.108 15.5158 14.696Z" fill="#4B6B9A"/>
</svg>
