<svg width="24" height="24" viewBox="0 0 24 24" fill="none" xmlns="http://www.w3.org/2000/svg">
<g clip-path="url(#clip0_303_2785)">
<path d="M44.408 12.1379C44.4239 13.4759 44.1855 14.8 43.661 16.0552C43.2001 17.1724 42.5007 18.1931 41.563 19.0483C40.657 19.8759 39.5444 20.5379 38.3365 20.9655C35.6663 21.8621 32.6941 21.8621 30.0239 20.9655C28.8 20.5379 27.7034 19.8759 26.7974 19.0483C25.8755 18.1793 25.1603 17.1586 24.6994 16.0552C24.1908 14.8 23.9365 13.4759 23.9524 12.1379C23.9365 10.8138 24.1908 9.48966 24.6994 8.23449C25.1603 7.11725 25.8596 6.09655 26.7974 5.24138C27.7034 4.4138 28.8 3.75173 30.0239 3.31035C31.3431 2.84138 32.7577 2.6069 34.1722 2.62069C35.6027 2.6069 37.0173 2.84138 38.3365 3.29655C39.5603 3.72414 40.657 4.38621 41.563 5.22759C42.4848 6.09655 43.2001 7.11725 43.661 8.23449C44.1696 9.48966 44.4239 10.8138 44.408 12.1379ZM42.7868 12.1379C42.8027 10.9517 42.612 9.76552 42.1828 8.63449C41.8173 7.66897 41.2133 6.77242 40.4186 6.0138C39.6557 5.29656 38.7179 4.73104 37.6848 4.35862C35.4279 3.6 32.9325 3.6 30.6914 4.35862C29.6424 4.73104 28.7206 5.29656 27.9577 6.0138C27.163 6.77242 26.559 7.68276 26.1775 8.64828C25.7484 9.76552 25.5259 10.9517 25.5418 12.1379C25.5259 13.3241 25.7325 14.5103 26.1616 15.6414C26.5431 16.6069 27.1471 17.5035 27.9418 18.2621C28.7047 18.9793 29.6424 19.5448 30.6755 19.9035C32.9325 20.6483 35.4279 20.6483 37.6689 19.9035C38.7179 19.5448 39.6557 18.9793 40.4027 18.2621C41.1974 17.5035 41.7855 16.6069 42.1669 15.6414C42.612 14.5103 42.8186 13.3241 42.7868 12.1379Z" fill="#3996FF"/>
<path d="M14.1934 2.63448H2.01855V8.37241H14.1934V2.63448Z" fill="#3996FF"/>
<path d="M14.1935 2.63448H7.58154V21.6414H14.1935V2.63448Z" fill="#3996FF"/>
<path d="M19.1204 8.35862C20.9462 8.35862 22.4264 7.07414 22.4264 5.48965C22.4264 3.90517 20.9462 2.62069 19.1204 2.62069C17.2946 2.62069 15.8145 3.90517 15.8145 5.48965C15.8145 7.07414 17.2946 8.35862 19.1204 8.35862Z" fill="#3996FF"/>
</g>
<defs>
<clipPath id="clip0_303_2785">
<rect width="24" height="24" fill="white"/>
</clipPath>
</defs>
</svg>
