<svg width="68" height="68" viewBox="0 0 68 68" fill="none" xmlns="http://www.w3.org/2000/svg">
<g filter="url(#filter0_d_364_601)">
<path d="M41.9605 25.6557L32.2423 35.3739L26.0397 29.1712C25.5819 28.7137 24.8401 28.7137 24.3823 29.1712C23.9247 29.6289 23.9247 30.3709 24.3823 30.8286L31.4135 37.8599C31.6425 38.0886 31.9423 38.2031 32.2423 38.2031C32.5423 38.2031 32.842 38.0886 33.0709 37.8599L43.6178 27.313C44.0754 26.8554 44.0754 26.1133 43.6178 25.6556C43.1601 25.1981 42.4183 25.1981 41.9605 25.6557Z" fill="white"/>
</g>
<g filter="url(#filter1_d_364_601)">
<path d="M62.9397 22.8476L59.3809 22.5071C58.852 20.713 58.1309 18.9775 57.2297 17.3291L59.4994 14.5689C59.8825 14.1028 59.8492 13.4223 59.4228 12.9959L50.9805 4.55496C50.5534 4.1277 49.8718 4.09547 49.4061 4.47961L46.6457 6.75691C44.9982 5.85762 43.262 5.13832 41.4655 4.61086L41.1195 1.0582C41.061 0.457852 40.5563 0 39.9531 0H28.0141C27.4101 0 26.905 0.459023 26.8476 1.06031L26.5071 4.61906C24.713 5.14805 22.9775 5.8691 21.3291 6.77027L18.5689 4.50059C18.103 4.11773 17.4224 4.15055 16.9959 4.57723L8.55496 13.0195C8.12793 13.4466 8.09535 14.128 8.47961 14.5939L10.7569 17.3543C9.85762 19.0018 9.13832 20.738 8.61086 22.5345L5.0582 22.8805C4.45785 22.939 4 23.4437 4 24.0469V35.9859C4 36.5899 4.45902 37.095 5.06031 37.1524L8.61941 37.493C9.14969 39.2903 9.87074 41.0258 10.7703 42.671L8.5007 45.4311C8.11762 45.8972 8.1509 46.5777 8.57734 47.0041L17.0195 55.445C17.4464 55.8722 18.1281 55.9044 18.5939 55.5204L21.3543 53.2431C23.0018 54.1424 24.738 54.8617 26.5345 55.3891L26.8806 58.9417C26.9391 59.542 27.4438 59.9999 28.047 59.9999H39.9861C40.59 59.9999 41.0951 59.5409 41.1525 58.9396L41.493 55.3808C43.2871 54.8518 45.0227 54.1308 46.671 53.2296L49.4312 55.4993C49.8971 55.8823 50.5777 55.8493 51.0043 55.4227L59.4452 46.9805C59.8722 46.5534 59.9048 45.872 59.5205 45.4061L57.243 42.6457C58.1425 40.9972 58.8619 39.2607 59.3891 37.4657L62.9417 37.1195C63.542 37.061 63.9999 36.5563 63.9999 35.9531V24.0141C64 23.4101 63.541 22.905 62.9397 22.8476ZM61.6562 34.8899L58.3609 35.211C57.8716 35.2587 57.464 35.6068 57.3404 36.0826C56.7862 38.2157 55.9367 40.266 54.8154 42.1767C54.5664 42.6012 54.6091 43.1361 54.9222 43.5157L57.0347 46.0764L50.0984 53.0138L47.5376 50.9081C47.1578 50.5958 46.6237 50.5539 46.1995 50.803C44.2885 51.9263 42.2389 52.7777 40.1072 53.3338C39.6311 53.458 39.2834 53.8663 39.2365 54.3561L38.9208 57.6562H29.1101L28.789 54.3609C28.7413 53.8716 28.3932 53.464 27.9174 53.3404C25.7823 52.7857 23.732 51.9363 21.8235 50.8157C21.3987 50.5663 20.8641 50.6091 20.4843 50.9222L17.9236 53.0347L10.9862 46.0984L13.0919 43.5376C13.4043 43.1577 13.4461 42.6231 13.1969 42.1992C12.0762 40.2938 11.2247 38.2439 10.6661 36.1068C10.5416 35.6309 10.1335 35.2834 9.64387 35.2365L6.34375 34.9208V25.1101L9.63906 24.789C10.1284 24.7413 10.536 24.3932 10.6596 23.9174C11.2143 21.7823 12.0637 19.732 13.1843 17.8235C13.4336 17.3991 13.3911 16.864 13.0778 16.4843L10.9653 13.9236L17.9016 6.98625L20.4624 9.09188C20.8423 9.40418 21.3766 9.44613 21.8005 9.19699C23.7115 8.07375 25.7611 7.22227 27.8928 6.66621C28.3689 6.54199 28.7166 6.13371 28.7635 5.64387L29.0792 2.34375H38.8899L39.211 5.63906C39.2587 6.12844 39.6068 6.53602 40.0826 6.65965C42.2177 7.2143 44.268 8.06367 46.1765 9.18434C46.6012 9.43359 47.136 9.39094 47.5157 9.07781L50.0764 6.96527L57.0138 13.9016L54.9081 16.4624C54.5958 16.8422 54.5539 17.3767 54.803 17.8005C55.9263 19.7115 56.7777 21.7611 57.3338 23.8928C57.458 24.3689 57.8663 24.7166 58.3561 24.7635L61.6562 25.0792V34.8899Z" fill="white"/>
</g>
<g filter="url(#filter2_d_364_601)">
<path d="M46.8906 44.0625C47.5378 44.0625 48.0625 43.5378 48.0625 42.8906C48.0625 42.2434 47.5378 41.7188 46.8906 41.7188C46.2434 41.7188 45.7188 42.2434 45.7188 42.8906C45.7188 43.5378 46.2434 44.0625 46.8906 44.0625Z" fill="white"/>
</g>
<g filter="url(#filter3_d_364_601)">
<path d="M34 10.5469C23.2736 10.5469 14.5469 19.2736 14.5469 30C14.5469 40.7264 23.2736 49.4531 34 49.4531C37.2276 49.4531 40.4268 48.6425 43.2518 47.1091C43.8207 46.8004 44.0315 46.0889 43.7228 45.5201C43.4139 44.9512 42.7026 44.7405 42.1337 45.0491C39.6509 46.397 36.8383 47.1094 34 47.1094C24.5658 47.1094 16.8906 39.4342 16.8906 30C16.8906 20.5658 24.5658 12.8906 34 12.8906C43.4342 12.8906 51.1094 20.5658 51.1094 30C51.1094 32.8383 50.397 35.6509 49.0492 38.1337C48.7404 38.7026 48.9514 39.414 49.5202 39.7228C50.089 40.0315 50.8005 39.8207 51.1093 39.2518C52.6425 36.4268 53.4531 33.2276 53.4531 30C53.4531 19.2736 44.7264 10.5469 34 10.5469Z" fill="white"/>
</g>
<defs>
<filter id="filter0_d_364_601" x="20.0391" y="25.3125" width="27.9219" height="20.8906" filterUnits="userSpaceOnUse" color-interpolation-filters="sRGB">
<feFlood flood-opacity="0" result="BackgroundImageFix"/>
<feColorMatrix in="SourceAlpha" type="matrix" values="0 0 0 0 0 0 0 0 0 0 0 0 0 0 0 0 0 0 127 0" result="hardAlpha"/>
<feOffset dy="4"/>
<feGaussianBlur stdDeviation="2"/>
<feComposite in2="hardAlpha" operator="out"/>
<feColorMatrix type="matrix" values="0 0 0 0 0 0 0 0 0 0 0 0 0 0 0 0 0 0 0.25 0"/>
<feBlend mode="normal" in2="BackgroundImageFix" result="effect1_dropShadow_364_601"/>
<feBlend mode="normal" in="SourceGraphic" in2="effect1_dropShadow_364_601" result="shape"/>
</filter>
<filter id="filter1_d_364_601" x="0" y="0" width="68" height="68" filterUnits="userSpaceOnUse" color-interpolation-filters="sRGB">
<feFlood flood-opacity="0" result="BackgroundImageFix"/>
<feColorMatrix in="SourceAlpha" type="matrix" values="0 0 0 0 0 0 0 0 0 0 0 0 0 0 0 0 0 0 127 0" result="hardAlpha"/>
<feOffset dy="4"/>
<feGaussianBlur stdDeviation="2"/>
<feComposite in2="hardAlpha" operator="out"/>
<feColorMatrix type="matrix" values="0 0 0 0 0 0 0 0 0 0 0 0 0 0 0 0 0 0 0.25 0"/>
<feBlend mode="normal" in2="BackgroundImageFix" result="effect1_dropShadow_364_601"/>
<feBlend mode="normal" in="SourceGraphic" in2="effect1_dropShadow_364_601" result="shape"/>
</filter>
<filter id="filter2_d_364_601" x="41.7188" y="41.7188" width="10.3438" height="10.3438" filterUnits="userSpaceOnUse" color-interpolation-filters="sRGB">
<feFlood flood-opacity="0" result="BackgroundImageFix"/>
<feColorMatrix in="SourceAlpha" type="matrix" values="0 0 0 0 0 0 0 0 0 0 0 0 0 0 0 0 0 0 127 0" result="hardAlpha"/>
<feOffset dy="4"/>
<feGaussianBlur stdDeviation="2"/>
<feComposite in2="hardAlpha" operator="out"/>
<feColorMatrix type="matrix" values="0 0 0 0 0 0 0 0 0 0 0 0 0 0 0 0 0 0 0.25 0"/>
<feBlend mode="normal" in2="BackgroundImageFix" result="effect1_dropShadow_364_601"/>
<feBlend mode="normal" in="SourceGraphic" in2="effect1_dropShadow_364_601" result="shape"/>
</filter>
<filter id="filter3_d_364_601" x="10.5469" y="10.5469" width="46.9062" height="46.9062" filterUnits="userSpaceOnUse" color-interpolation-filters="sRGB">
<feFlood flood-opacity="0" result="BackgroundImageFix"/>
<feColorMatrix in="SourceAlpha" type="matrix" values="0 0 0 0 0 0 0 0 0 0 0 0 0 0 0 0 0 0 127 0" result="hardAlpha"/>
<feOffset dy="4"/>
<feGaussianBlur stdDeviation="2"/>
<feComposite in2="hardAlpha" operator="out"/>
<feColorMatrix type="matrix" values="0 0 0 0 0 0 0 0 0 0 0 0 0 0 0 0 0 0 0.25 0"/>
<feBlend mode="normal" in2="BackgroundImageFix" result="effect1_dropShadow_364_601"/>
<feBlend mode="normal" in="SourceGraphic" in2="effect1_dropShadow_364_601" result="shape"/>
</filter>
</defs>
</svg>
