<svg width="484" height="453" viewBox="0 0 484 453" fill="none" xmlns="http://www.w3.org/2000/svg">
<g filter="url(#filter0_dd)">
<path fill-rule="evenodd" clip-rule="evenodd" d="M54.194 27C51.716 27 49.7072 29.0088 49.7072 31.4868V396.143C49.7072 398.621 51.716 400.629 54.194 400.629C54.2117 400.629 54.2293 400.629 54.2469 400.629H452.297C454.775 400.629 456.784 398.62 456.784 396.142C456.784 393.664 454.775 391.656 452.297 391.656H58.6809V31.4868C58.6809 29.0088 56.672 27 54.194 27Z" fill="#BBBDBF"/>
</g>
<g filter="url(#filter1_dddd)">
<path fill-rule="evenodd" clip-rule="evenodd" d="M54.194 30.0681C53.5182 30.0681 52.9703 30.616 52.9703 31.2918V395.948C52.9703 396.126 53.0085 396.296 53.0772 396.449C53.2131 396.976 53.6922 397.366 54.2623 397.366H452.365C453.041 397.366 453.589 396.818 453.589 396.143C453.589 395.467 453.041 394.919 452.365 394.919H55.4177V31.2918C55.4177 30.616 54.8698 30.0681 54.194 30.0681Z" fill="white"/>
</g>
<g filter="url(#filter2_dd)">
<path fill-rule="evenodd" clip-rule="evenodd" d="M276.903 45.7632L276.866 45.7633H238.561C237.942 45.7633 237.352 45.8889 236.815 46.1159C235.557 46.6482 234.592 47.7382 234.23 49.076C234.129 49.4503 234.075 49.8439 234.075 50.2501V50.2502V259.907C234.075 262.385 236.083 264.394 238.561 264.394C238.579 264.394 238.598 264.394 238.616 264.393H276.864C276.877 264.394 276.89 264.394 276.903 264.394C278.762 264.394 280.356 263.264 281.038 261.653C281.265 261.116 281.39 260.526 281.39 259.907V50.25C281.39 47.772 279.381 45.7632 276.903 45.7632ZM272.417 255.42V54.737H243.048V255.42H272.417Z" fill="#059FDA"/>
</g>
<g filter="url(#filter3_dddd)">
<path fill-rule="evenodd" clip-rule="evenodd" d="M275.68 51.4734H239.785V258.682H275.68V51.4734ZM237.338 50.2497C237.338 49.7085 237.689 49.2494 238.176 49.0879C238.297 49.0478 238.427 49.026 238.562 49.026H276.886C276.892 49.0259 276.898 49.0259 276.903 49.0259C277.322 49.0259 277.692 49.2366 277.913 49.5578C278.004 49.6898 278.069 49.8405 278.102 50.0029C278.119 50.0826 278.127 50.1652 278.127 50.2497C278.127 50.2534 278.127 50.2571 278.127 50.2608V259.897L278.127 259.906L278.127 259.906C278.127 260.081 278.09 260.248 278.024 260.399C277.834 260.829 277.404 261.13 276.903 261.13C276.893 261.13 276.884 261.13 276.874 261.13H238.596C238.584 261.13 238.573 261.13 238.562 261.13C237.901 261.13 237.363 260.607 237.339 259.953C237.338 259.938 237.338 259.922 237.338 259.906L237.338 259.899V50.2497Z" fill="#44D3F2"/>
</g>
<g filter="url(#filter4_dd)">
<path fill-rule="evenodd" clip-rule="evenodd" d="M276.903 267.656L276.883 267.657H238.561C237.942 267.657 237.352 267.782 236.815 268.009C235.653 268.5 234.742 269.467 234.324 270.665C234.162 271.128 234.075 271.625 234.075 272.143V362.695C234.075 363.238 234.171 363.757 234.347 364.238C234.372 364.307 234.399 364.375 234.427 364.442C235.108 366.052 236.703 367.182 238.561 367.182H276.903C278.684 367.182 280.223 366.145 280.948 364.641C281.231 364.052 281.39 363.393 281.39 362.696C281.39 362.696 281.39 362.696 281.39 362.695V272.143C281.39 269.665 279.381 267.656 276.903 267.656ZM272.417 358.209V276.63H243.048V358.209H272.417Z" fill="#B92146"/>
</g>
<g filter="url(#filter5_ddddd)">
<path fill-rule="evenodd" clip-rule="evenodd" d="M276.903 270.919L276.885 270.919H238.562C238.308 270.919 238.073 270.996 237.877 271.128C237.728 271.229 237.603 271.361 237.51 271.516C237.411 271.683 237.35 271.875 237.339 272.08C237.338 272.101 237.338 272.122 237.338 272.143V362.689C237.338 362.691 237.338 362.693 237.338 362.695C237.338 363.371 237.886 363.919 238.562 363.919H276.903C277.579 363.919 278.127 363.371 278.127 362.695C278.127 362.692 278.127 362.689 278.127 362.686V272.154L278.127 272.143C278.127 272.078 278.122 272.013 278.112 271.951C278.096 271.852 278.069 271.756 278.031 271.667C277.845 271.227 277.41 270.919 276.903 270.919ZM275.68 361.472V273.367H239.785V361.472H275.68Z" fill="#F858A5"/>
</g>
<g filter="url(#filter6_dd)">
<path fill-rule="evenodd" clip-rule="evenodd" d="M365.824 215.841C363.346 215.841 361.337 217.849 361.337 220.327V220.487V362.694C361.337 362.855 361.345 363.014 361.362 363.171C361.6 365.425 363.507 367.182 365.824 367.182H402.981C403.359 367.285 403.756 367.34 404.166 367.34C406.644 367.34 408.653 365.331 408.653 362.853V220.487C408.653 218.636 407.532 217.046 405.931 216.361C405.389 216.128 404.792 216 404.166 216H367.013C366.634 215.896 366.235 215.841 365.824 215.841ZM399.679 358.208V224.974H370.311V358.208H399.679Z" fill="#B92146"/>
</g>
<g filter="url(#filter7_ddddd)">
<path fill-rule="evenodd" clip-rule="evenodd" d="M405.39 220.224C405.39 220.234 405.39 220.245 405.389 220.255V362.596C405.389 362.611 405.389 362.626 405.389 362.641C405.389 362.659 405.39 362.677 405.39 362.695C405.39 363.371 404.842 363.918 404.166 363.918H365.941C365.903 363.922 365.864 363.924 365.824 363.924C365.148 363.924 364.6 363.376 364.6 362.7V362.695V220.328C364.6 220.31 364.601 220.292 364.602 220.275C364.601 220.258 364.601 220.241 364.601 220.224C364.601 219.548 365.148 219 365.824 219H404.166H404.166C404.842 219 405.39 219.548 405.39 220.224ZM367.048 361.471H402.942V221.447H367.048V361.471Z" fill="#F858A5"/>
</g>
<g filter="url(#filter8_dd)">
<path fill-rule="evenodd" clip-rule="evenodd" d="M149.641 235.84L149.62 235.84H111.299C110.68 235.84 110.089 235.966 109.553 236.193C108.45 236.659 107.572 237.554 107.129 238.669C106.924 239.182 106.812 239.742 106.812 240.327V362.683C106.812 362.687 106.812 362.691 106.812 362.695C106.812 364.554 107.942 366.148 109.553 366.829C110.089 367.056 110.679 367.182 111.299 367.182C111.299 367.182 111.299 367.182 111.299 367.182L149.641 367.182C149.951 367.182 150.253 367.15 150.545 367.091C152.217 366.749 153.549 365.477 153.98 363.84C154.077 363.475 154.128 363.091 154.128 362.695V240.327C154.128 237.849 152.119 235.84 149.641 235.84ZM145.154 358.208V244.814H115.786V358.208H145.154Z" fill="#B92146"/>
</g>
<g filter="url(#filter9_ddddd)">
<path fill-rule="evenodd" clip-rule="evenodd" d="M111.299 239.104C111.215 239.104 111.132 239.113 111.052 239.129C110.495 239.243 110.075 239.736 110.075 240.328V362.695C110.075 363.371 110.623 363.919 111.299 363.919C111.312 363.919 111.325 363.919 111.338 363.918H149.602C149.615 363.919 149.628 363.919 149.641 363.919C150.317 363.919 150.865 363.371 150.865 362.695V240.328C150.865 239.658 150.327 239.114 149.659 239.104L149.641 239.104H111.299ZM148.418 361.471V241.551H112.523V361.471H148.418Z" fill="#F858A5"/>
</g>
<g filter="url(#filter10_dd)">
<path fill-rule="evenodd" clip-rule="evenodd" d="M302.193 125C299.715 125 297.706 127.009 297.706 129.487V362.403C297.706 362.453 297.707 362.503 297.708 362.552C297.707 362.6 297.706 362.647 297.706 362.695C297.706 365.173 299.715 367.182 302.193 367.182H340.535C343.013 367.182 345.022 365.173 345.022 362.695C345.022 362.646 345.021 362.596 345.019 362.547C345.021 362.499 345.022 362.451 345.022 362.403V129.487C345.022 128.093 344.386 126.848 343.389 126.025C342.613 125.385 341.619 125 340.535 125L340.526 125H302.201L302.193 125ZM336.048 358.209V133.974H306.68V358.209H336.048Z" fill="#B92146"/>
</g>
<g filter="url(#filter11_ddddd)">
<path fill-rule="evenodd" clip-rule="evenodd" d="M341.549 128.54C341.329 128.214 340.957 128 340.535 128H302.193C301.517 128 300.969 128.548 300.969 129.224C300.969 129.319 300.98 129.411 301 129.5C300.98 129.588 300.969 129.681 300.969 129.775V362.695V362.698C300.969 363.374 301.517 363.922 302.193 363.922C302.224 363.922 302.255 363.921 302.286 363.918H339.585C339.809 364.194 340.151 364.37 340.535 364.37C341.21 364.37 341.758 363.822 341.758 363.146V129.224C341.758 128.97 341.681 128.735 341.549 128.54ZM339.311 361.471V130.447H303.416V361.471H339.311Z" fill="#F858A5"/>
</g>
<g filter="url(#filter12_dd)">
<path fill-rule="evenodd" clip-rule="evenodd" d="M174.5 161C172.015 161 170 163.015 170 165.5V362.5C170 364.45 171.241 366.111 172.976 366.735C173.567 367.022 174.23 367.182 174.93 367.182H213.272C214.369 367.182 215.374 366.788 216.154 366.135C217.273 365.316 218 363.993 218 362.5V165.5C218 163.015 215.985 161 213.5 161C213.462 161 213.424 161 213.386 161.001C213.348 161 213.31 161 213.272 161H174.93C174.858 161 174.786 161.002 174.715 161.005C174.644 161.002 174.572 161 174.5 161ZM209 358.209V169.974H179V358.209H209Z" fill="#B92146"/>
</g>
<g filter="url(#filter13_ddddd)">
<path fill-rule="evenodd" clip-rule="evenodd" d="M174.93 164C174.297 164 173.776 164.482 173.713 165.099C173.709 165.14 173.707 165.181 173.707 165.224V363.146C173.707 363.159 173.707 363.172 173.707 363.185C173.707 363.198 173.707 363.211 173.707 363.224C173.707 363.899 174.254 364.447 174.93 364.447H213.272C213.948 364.447 214.496 363.899 214.496 363.224C214.496 363.211 214.496 363.199 214.495 363.186C214.496 363.173 214.496 363.16 214.496 363.146V165.224C214.496 164.548 213.948 164 213.272 164H213.272H213.272H174.93ZM212.049 362V166.447H176.154V362H212.049Z" fill="#F858A5"/>
</g>
<g filter="url(#filter14_dddd)">
<path d="M205.922 446.258C206.619 446.258 207.215 446.011 207.709 445.517C208.203 445.023 208.45 444.427 208.45 443.73V435.178L213.581 435.14C216.128 435.14 218.181 434.354 219.739 432.783C221.196 431.212 221.918 429.312 221.906 427.082C221.931 425.599 221.589 424.206 220.879 422.901C220.867 422.875 220.854 422.856 220.841 422.844L220.708 422.672C220.278 421.988 219.764 421.393 219.169 420.886C217.953 419.619 216.293 419.004 214.19 419.042C213.974 419.03 213.771 419.023 213.581 419.023C213.531 419.023 213.486 419.03 213.448 419.042H211.719C211.643 419.042 211.56 419.042 211.472 419.042L207.937 419.023H205.903C205.206 419.023 204.611 419.271 204.117 419.765C203.623 420.259 203.375 420.854 203.375 421.551C203.375 422.248 203.629 422.856 204.136 423.376C204.643 423.882 205.238 424.136 205.922 424.136L208.26 424.117H208.83C208.995 424.117 209.166 424.117 209.343 424.117C210.103 424.117 210.914 424.117 211.776 424.117C212.637 424.117 213.239 424.117 213.581 424.117C214.418 424.117 215.121 424.408 215.691 424.991C216.274 425.561 216.565 426.271 216.565 427.12C216.565 427.158 216.572 427.196 216.584 427.234C216.521 428.057 216.204 428.741 215.634 429.286C215.076 429.818 214.399 430.085 213.6 430.085C213.208 430.085 212.498 430.085 211.472 430.085C210.458 430.085 209.578 430.085 208.83 430.085H208.279L205.941 430.066C205.244 430.066 204.624 430.344 204.079 430.902C203.623 431.409 203.394 431.985 203.394 432.631V443.73C203.394 444.427 203.642 445.023 204.136 445.517C204.63 446.011 205.225 446.258 205.922 446.258ZM205.941 430.978L208.279 430.997H208.83C208.893 430.997 208.957 430.997 209.02 430.997C209.793 430.997 210.655 431.003 211.605 431.016C212.568 431.016 213.233 431.016 213.6 431.016C214.677 431.016 215.583 430.648 216.318 429.913C217.066 429.166 217.458 428.235 217.496 427.12C217.496 427.082 217.49 427.037 217.477 426.987C217.427 425.897 217.028 424.991 216.28 424.269C215.545 423.547 214.646 423.186 213.581 423.186C213.201 423.186 212.504 423.186 211.491 423.186C210.477 423.186 209.59 423.186 208.83 423.186H208.26L205.922 423.224C205.479 423.224 205.092 423.059 204.763 422.729C204.446 422.4 204.288 422.007 204.288 421.551C204.288 421.108 204.446 420.728 204.763 420.411C205.08 420.094 205.46 419.936 205.903 419.936L207.937 419.955L211.491 419.974C211.503 419.974 211.522 419.974 211.548 419.974C211.611 419.961 211.668 419.955 211.719 419.955H213.581C213.619 419.955 213.657 419.955 213.695 419.955C213.835 419.955 213.987 419.955 214.152 419.955C214.152 419.955 214.158 419.955 214.171 419.955C215.298 419.967 216.185 420.113 216.831 420.392C217.49 420.671 218.06 421.063 218.542 421.57C218.542 421.57 218.548 421.576 218.561 421.589C219.106 422.033 219.562 422.558 219.929 423.167C219.942 423.192 219.954 423.211 219.967 423.224L220.1 423.376C220.721 424.529 221.012 425.758 220.974 427.063C220.974 427.075 220.974 427.088 220.974 427.101C221 429.077 220.366 430.756 219.074 432.137C217.731 433.518 215.894 434.209 213.562 434.209L207.975 434.247C207.848 434.259 207.74 434.31 207.652 434.399C207.563 434.475 207.519 434.576 207.519 434.703V443.73C207.519 444.174 207.36 444.554 207.044 444.871C206.739 445.175 206.366 445.327 205.922 445.327C205.479 445.327 205.099 445.175 204.782 444.871C204.465 444.554 204.307 444.174 204.307 443.73V432.631C204.307 432.226 204.452 431.858 204.744 431.529C204.744 431.529 204.75 431.529 204.763 431.529C205.105 431.162 205.498 430.978 205.941 430.978Z" fill="white"/>
<path d="M228.31 446.239C229.007 446.239 229.603 445.992 230.097 445.498C230.591 445.004 230.838 444.408 230.838 443.711V435.14L235.97 435.121C238.516 435.121 240.569 434.335 242.127 432.764C243.584 431.193 244.307 429.293 244.294 427.063C244.319 425.568 243.977 424.174 243.268 422.882C243.255 422.856 243.242 422.831 243.23 422.805L243.097 422.653C242.666 421.969 242.153 421.374 241.557 420.867C240.341 419.6 238.681 418.985 236.578 419.023C236.362 419.011 236.16 419.004 235.97 419.004C235.919 419.004 235.875 419.011 235.837 419.023L234.107 419.004C234.031 419.004 233.949 419.011 233.86 419.023L230.325 419.004H228.291C227.595 419.004 226.999 419.252 226.505 419.746C226.011 420.24 225.764 420.835 225.764 421.532C225.764 422.229 226.017 422.837 226.524 423.357C227.031 423.863 227.626 424.117 228.31 424.117L230.648 424.098H231.218C231.358 424.098 231.51 424.098 231.674 424.098C232.435 424.098 233.252 424.098 234.126 424.098C235.013 424.098 235.628 424.098 235.97 424.098C236.806 424.098 237.509 424.389 238.079 424.972C238.662 425.542 238.953 426.252 238.953 427.101C238.953 427.139 238.96 427.177 238.972 427.215C238.909 428.038 238.592 428.722 238.022 429.267C237.465 429.799 236.787 430.066 235.989 430.066C235.596 430.066 234.886 430.066 233.86 430.066C232.846 430.066 231.966 430.066 231.218 430.066H230.667L228.329 430.028C227.633 430.028 227.012 430.313 226.467 430.883C226.011 431.39 225.783 431.966 225.783 432.612V443.711C225.783 444.408 226.03 445.004 226.524 445.498C227.018 445.992 227.614 446.239 228.31 446.239ZM228.329 430.959L230.667 430.978H231.218C231.966 430.978 232.846 430.978 233.86 430.978C234.886 430.978 235.596 430.978 235.989 430.978C237.066 430.978 237.972 430.61 238.706 429.875C239.454 429.141 239.847 428.216 239.885 427.101C239.885 427.05 239.878 427.006 239.866 426.968C239.815 425.865 239.416 424.959 238.668 424.25C237.934 423.528 237.034 423.167 235.97 423.167C235.628 423.167 235.032 423.167 234.183 423.167C233.347 423.167 232.549 423.167 231.788 423.167C231.586 423.167 231.396 423.167 231.218 423.167H230.648L228.31 423.186C227.867 423.186 227.481 423.021 227.151 422.691C226.834 422.362 226.676 421.976 226.676 421.532C226.676 421.089 226.834 420.709 227.151 420.392C227.468 420.075 227.848 419.917 228.291 419.917H230.325L233.879 419.955C233.892 419.955 233.911 419.955 233.936 419.955C233.999 419.942 234.056 419.936 234.107 419.936H235.97C236.008 419.936 236.046 419.929 236.084 419.917C236.236 419.917 236.388 419.923 236.54 419.936C236.54 419.936 236.546 419.936 236.559 419.936C237.686 419.948 238.573 420.094 239.22 420.373C239.878 420.652 240.449 421.038 240.93 421.532C240.93 421.545 240.936 421.557 240.949 421.57C241.494 422.014 241.95 422.539 242.317 423.148C242.33 423.173 242.343 423.192 242.355 423.205L242.488 423.357C243.109 424.51 243.401 425.739 243.363 427.044C243.363 427.056 243.363 427.063 243.363 427.063C243.388 429.039 242.755 430.724 241.462 432.118C240.119 433.499 238.282 434.19 235.951 434.19L230.363 434.228C230.236 434.228 230.129 434.272 230.04 434.361C229.951 434.449 229.907 434.557 229.907 434.684V443.711C229.907 444.155 229.749 444.535 229.432 444.852C229.128 445.156 228.754 445.308 228.31 445.308C227.867 445.308 227.487 445.156 227.17 444.852C226.853 444.535 226.695 444.155 226.695 443.711V432.612C226.695 432.194 226.841 431.827 227.132 431.51C227.145 431.51 227.151 431.51 227.151 431.51C227.493 431.142 227.886 430.959 228.329 430.959ZM241.747 446.163C242.419 446.163 243.014 445.916 243.534 445.422C244.028 444.864 244.275 444.263 244.275 443.616C244.275 442.97 244.028 442.368 243.534 441.811L240.075 438.352C239.555 437.858 238.953 437.611 238.269 437.611C237.598 437.611 237.002 437.858 236.483 438.352C235.989 438.897 235.742 439.499 235.742 440.157C235.742 440.804 235.989 441.399 236.483 441.944L239.942 445.422C240.461 445.916 241.063 446.163 241.747 446.163ZM238.269 438.523C238.7 438.523 239.086 438.681 239.429 438.998L242.888 442.476C243.204 442.805 243.363 443.186 243.363 443.616C243.363 444.047 243.204 444.427 242.888 444.757C242.558 445.073 242.178 445.232 241.747 445.232C241.316 445.232 240.93 445.073 240.588 444.757L237.129 441.298C236.812 440.968 236.654 440.588 236.654 440.157C236.654 439.727 236.812 439.34 237.129 438.998C237.458 438.681 237.838 438.523 238.269 438.523Z" fill="white"/>
<path d="M250.68 446.22C251.377 446.22 251.972 445.973 252.466 445.479C252.96 444.985 253.207 444.389 253.207 443.692V421.304C253.207 420.607 252.96 420.012 252.466 419.518C251.972 419.023 251.377 418.776 250.68 418.776C249.983 418.776 249.387 419.023 248.893 419.518C248.399 420.012 248.152 420.607 248.152 421.304V443.692C248.152 444.389 248.399 444.985 248.893 445.479C249.387 445.973 249.983 446.22 250.68 446.22ZM250.68 419.708C251.123 419.708 251.497 419.866 251.801 420.183C252.118 420.487 252.276 420.861 252.276 421.304V443.692C252.276 444.136 252.118 444.516 251.801 444.833C251.497 445.137 251.123 445.289 250.68 445.289C250.236 445.289 249.856 445.137 249.539 444.833C249.223 444.516 249.064 444.136 249.064 443.692V421.304C249.064 420.861 249.223 420.487 249.539 420.183C249.856 419.866 250.236 419.708 250.68 419.708Z" fill="white"/>
<path d="M270.654 446.22C273.568 446.22 276.248 445.352 278.694 443.616C278.82 443.528 278.941 443.433 279.055 443.331C279.067 443.331 279.074 443.331 279.074 443.331C279.619 442.786 279.891 442.159 279.891 441.45C279.891 440.753 279.638 440.157 279.131 439.663C278.637 439.156 278.041 438.903 277.344 438.903C276.774 438.903 276.255 439.08 275.786 439.435C274.24 440.588 272.53 441.165 270.654 441.165C269.083 441.165 267.645 440.778 266.34 440.005C265.048 439.232 264.015 438.2 263.242 436.907C262.469 435.602 262.083 434.164 262.083 432.593C262.083 431.022 262.469 429.59 263.242 428.298C264.015 426.993 265.048 425.954 266.34 425.181C267.645 424.408 269.083 424.022 270.654 424.022C272.492 424.022 274.183 424.573 275.729 425.675C276.21 426.068 276.749 426.264 277.344 426.264C278.041 426.264 278.637 426.017 279.131 425.523C279.638 425.029 279.891 424.434 279.891 423.737C279.891 422.875 279.511 422.166 278.751 421.608C276.293 419.834 273.594 418.947 270.654 418.947C268.146 418.947 265.859 419.562 263.793 420.791C261.728 422.02 260.081 423.667 258.852 425.732C257.623 427.798 257.009 430.085 257.009 432.593C257.009 435.102 257.623 437.389 258.852 439.454C260.081 441.519 261.728 443.167 263.793 444.396C265.859 445.612 268.146 446.22 270.654 446.22ZM270.654 419.879C273.404 419.879 275.925 420.709 278.218 422.368C278.218 422.368 278.225 422.368 278.237 422.368C278.719 422.736 278.96 423.192 278.96 423.737C278.96 424.18 278.801 424.56 278.485 424.877C278.168 425.194 277.788 425.352 277.344 425.352C276.964 425.352 276.616 425.226 276.299 424.972C276.299 424.959 276.293 424.953 276.28 424.953C274.569 423.724 272.694 423.11 270.654 423.11C268.906 423.11 267.316 423.534 265.884 424.383C264.452 425.232 263.306 426.378 262.444 427.823C261.595 429.255 261.171 430.845 261.171 432.593C261.171 434.329 261.595 435.919 262.444 437.364C263.306 438.795 264.452 439.942 265.884 440.804C267.316 441.652 268.906 442.077 270.654 442.077C272.732 442.077 274.633 441.443 276.356 440.176C276.66 439.948 276.989 439.834 277.344 439.834C277.788 439.834 278.168 439.993 278.485 440.309C278.801 440.626 278.96 441.006 278.96 441.45C278.96 441.906 278.789 442.305 278.447 442.647C278.371 442.723 278.288 442.786 278.199 442.837C278.187 442.837 278.174 442.843 278.161 442.856C275.881 444.491 273.378 445.308 270.654 445.308C268.323 445.308 266.194 444.738 264.269 443.597C262.343 442.444 260.803 440.905 259.65 438.979C258.51 437.053 257.94 434.925 257.94 432.593C257.94 430.249 258.51 428.121 259.65 426.207C260.803 424.282 262.343 422.748 264.269 421.608C266.194 420.455 268.323 419.879 270.654 419.879Z" fill="white"/>
<path d="M299.885 424.041C300.581 424.041 301.171 423.8 301.652 423.319C302.146 422.825 302.393 422.229 302.393 421.532C302.393 420.848 302.146 420.259 301.652 419.765C301.171 419.271 300.581 419.023 299.885 419.023H286.201C285.517 419.023 284.927 419.271 284.433 419.765C283.939 420.259 283.692 420.848 283.692 421.532C283.692 422.229 283.939 422.825 284.433 423.319C284.927 423.8 285.517 424.041 286.201 424.041H299.885ZM286.201 419.955H299.885C300.328 419.955 300.702 420.113 301.006 420.43C301.323 420.734 301.481 421.101 301.481 421.532C301.481 421.976 301.323 422.356 301.006 422.672C300.702 422.977 300.328 423.129 299.885 423.129H286.201C285.77 423.129 285.396 422.977 285.079 422.672C284.775 422.356 284.623 421.976 284.623 421.532C284.623 421.101 284.775 420.734 285.079 420.43C285.396 420.113 285.77 419.955 286.201 419.955ZM299.885 446.22C300.581 446.22 301.171 445.979 301.652 445.498C302.146 445.004 302.393 444.408 302.393 443.711C302.393 443.014 302.146 442.425 301.652 441.944C301.171 441.45 300.581 441.203 299.885 441.203H288.785V435.064H291.142C291.839 435.064 292.434 434.817 292.929 434.323C293.435 433.829 293.689 433.233 293.689 432.536C293.689 431.827 293.435 431.225 292.929 430.731C292.434 430.237 291.839 429.99 291.142 429.99H286.239C285.542 429.99 284.94 430.237 284.433 430.731C283.939 431.225 283.692 431.827 283.692 432.536C283.692 432.549 283.692 432.555 283.692 432.555C283.692 432.568 283.692 432.581 283.692 432.593V443.654C283.692 443.654 283.692 443.661 283.692 443.673C283.692 443.686 283.692 443.699 283.692 443.711C283.692 444.408 283.939 445.004 284.433 445.498C284.927 445.979 285.517 446.22 286.201 446.22H299.885ZM286.239 430.902H291.142C291.586 430.902 291.966 431.06 292.282 431.377C292.599 431.694 292.758 432.08 292.758 432.536C292.758 432.98 292.599 433.36 292.282 433.677C291.966 433.993 291.586 434.152 291.142 434.152H288.329C288.203 434.152 288.095 434.196 288.006 434.285C287.918 434.373 287.873 434.481 287.873 434.608V441.659C287.873 441.785 287.918 441.893 288.006 441.982C288.095 442.071 288.203 442.115 288.329 442.115H299.885C300.328 442.115 300.702 442.273 301.006 442.59C301.323 442.907 301.481 443.281 301.481 443.711C301.481 444.155 301.323 444.535 301.006 444.852C300.702 445.156 300.328 445.308 299.885 445.308H286.201C285.77 445.308 285.402 445.156 285.098 444.852C284.794 444.548 284.636 444.167 284.623 443.711V443.692C284.623 443.68 284.623 443.673 284.623 443.673V443.654V432.593V432.574C284.623 432.562 284.623 432.555 284.623 432.555V432.536C284.623 432.08 284.782 431.694 285.098 431.377C285.415 431.06 285.795 430.902 286.239 430.902Z" fill="white"/>
</g>
<g filter="url(#filter15_dddd)">
<path d="M32.0508 280.782C32.0508 280.128 31.8188 279.569 31.3547 279.105C30.8907 278.641 30.3375 278.409 29.695 278.409C29.0406 278.409 28.4814 278.641 28.0174 279.105C27.5533 279.569 27.3213 280.128 27.3213 280.782L27.3213 291.223H8.67132C8.01693 291.223 7.45773 291.455 6.99371 291.919C6.52969 292.383 6.29768 292.942 6.29768 293.596C6.29768 294.251 6.52969 294.81 6.99371 295.274C7.45773 295.738 8.01693 295.97 8.67132 295.97H29.6771C29.689 295.97 29.695 295.97 29.695 295.97C30.3375 295.97 30.8907 295.738 31.3547 295.274C31.8188 294.81 32.0508 294.257 32.0508 293.614V280.782ZM29.695 295.113C29.695 295.113 29.689 295.113 29.6771 295.113H8.67132C8.25489 295.113 7.89795 294.965 7.60051 294.667C7.30306 294.37 7.15433 294.013 7.15433 293.596C7.15433 293.18 7.30306 292.829 7.60051 292.543C7.89795 292.246 8.25489 292.097 8.67132 292.097H27.7497C27.8686 292.097 27.9757 292.056 28.0709 291.972C28.1542 291.889 28.1958 291.788 28.1958 291.669L28.1958 280.782C28.1958 280.366 28.3446 280.015 28.642 279.729C28.9276 279.432 29.2785 279.283 29.695 279.283C30.0995 279.283 30.4505 279.432 30.7479 279.729C31.0454 280.015 31.1941 280.366 31.1941 280.782L31.1941 293.614C31.1941 294.019 31.0513 294.37 30.7658 294.667C30.4683 294.953 30.1114 295.101 29.695 295.113Z" fill="white"/>
<path d="M32.0151 272.466C32.0151 271.811 31.7831 271.252 31.319 270.788C30.855 270.324 30.2958 270.092 29.6414 270.092H8.61778C7.96339 270.092 7.40419 270.324 6.94017 270.788C6.47615 271.252 6.24414 271.811 6.24414 272.466C6.24414 273.12 6.47615 273.679 6.94017 274.143C7.40419 274.607 7.96339 274.839 8.61778 274.839H29.6414C30.2958 274.839 30.855 274.607 31.319 274.143C31.7831 273.679 32.0151 273.12 32.0151 272.466ZM7.11864 272.466C7.11864 272.049 7.26736 271.698 7.56481 271.413C7.85036 271.115 8.20135 270.966 8.61778 270.966H29.6414C30.0579 270.966 30.4148 271.115 30.7122 271.413C30.9978 271.698 31.1406 272.049 31.1406 272.466C31.1406 272.882 30.9978 273.239 30.7122 273.536C30.4148 273.834 30.0579 273.983 29.6414 273.983H8.61778C8.20135 273.983 7.85036 273.834 7.56481 273.536C7.26736 273.239 7.11864 272.882 7.11864 272.466Z" fill="white"/>
<path d="M32.0686 243.215C32.0686 242.608 31.8426 242.072 31.3904 241.608C30.8788 241.144 30.3196 240.912 29.7128 240.912C29.106 240.912 28.5468 241.144 28.0352 241.608L26.4825 243.161C24.2576 241.662 21.8364 240.912 19.2188 240.912C16.863 240.912 14.7155 241.489 12.7761 242.643C10.8367 243.798 9.29001 245.344 8.13591 247.284C6.98181 249.211 6.40476 251.353 6.40476 253.708C6.40476 256.064 6.98181 258.212 8.13591 260.151C9.29001 262.091 10.8367 263.637 12.7761 264.791C14.7155 265.946 16.863 266.523 19.2188 266.523C21.5746 266.523 23.7222 265.946 25.6616 264.791C27.6009 263.637 29.1477 262.091 30.3018 260.151C31.444 258.212 32.0151 256.064 32.0151 253.708C32.0151 253.673 32.0091 253.631 31.9972 253.584C31.9615 252.953 31.7176 252.424 31.2655 251.995C30.8134 251.567 30.272 251.353 29.6414 251.353C29.0108 251.353 28.4695 251.573 28.0174 252.013C27.5652 252.441 27.3213 252.977 27.2856 253.619C27.2737 253.655 27.2678 253.685 27.2678 253.708C27.2678 255.196 26.9049 256.552 26.1791 257.778C25.4534 258.991 24.4837 259.961 23.2701 260.687C22.0446 261.412 20.6942 261.775 19.2188 261.775C17.7316 261.775 16.3812 261.412 15.1676 260.687C13.954 259.961 12.9843 258.991 12.2585 257.778C11.5328 256.552 11.1699 255.196 11.1699 253.708C11.1699 252.233 11.5328 250.889 12.2585 249.675C12.9843 248.45 13.954 247.474 15.1676 246.748C16.3812 246.022 17.7316 245.66 19.2188 245.66C20.6466 245.66 21.9673 245.999 23.1809 246.677C24.3825 247.355 25.3582 248.307 26.1077 249.532C26.1791 249.651 26.2862 249.723 26.429 249.746C26.4766 249.758 26.5242 249.758 26.5718 249.746C26.6075 249.735 26.661 249.711 26.7324 249.675C26.7919 249.627 26.8811 249.55 27.0001 249.443C27.1191 249.324 27.2737 249.169 27.4641 248.979C27.6545 248.777 27.9043 248.521 28.2137 248.212C28.5349 247.867 28.8264 247.563 29.0882 247.301C29.3499 247.028 29.5106 246.861 29.57 246.802C29.57 246.802 29.57 246.796 29.57 246.784L31.1941 245.16C31.7771 244.553 32.0686 243.905 32.0686 243.215ZM26.5539 248.64C24.7692 246.153 22.3242 244.868 19.2188 244.785C17.5769 244.785 16.0837 245.19 14.7393 245.999C13.3829 246.808 12.3061 247.884 11.509 249.229C10.6999 250.573 10.2954 252.067 10.2954 253.708C10.2954 255.35 10.6999 256.85 11.509 258.206C12.3061 259.55 13.3829 260.627 14.7393 261.436C16.0837 262.233 17.5769 262.632 19.2188 262.632C20.8489 262.632 22.3361 262.233 23.6806 261.436C25.025 260.639 26.0958 259.58 26.893 258.259C27.6902 256.927 28.1066 255.44 28.1423 253.798C28.1423 253.774 28.1423 253.744 28.1423 253.708C28.1423 253.304 28.291 252.953 28.5885 252.656C28.874 252.358 29.225 252.209 29.6414 252.209C30.0579 252.209 30.4148 252.358 30.7122 252.656C30.9978 252.953 31.1406 253.304 31.1406 253.708C31.1406 253.744 31.1465 253.78 31.1584 253.816C31.1108 256.029 30.5576 258.021 29.4987 259.794C28.4278 261.567 26.9941 262.989 25.1976 264.06C23.3891 265.119 21.3962 265.648 19.2188 265.648C17.0177 265.648 15.0189 265.113 13.2223 264.042C11.4138 262.971 9.97414 261.531 8.90333 259.723C7.82062 257.914 7.27926 255.91 7.27926 253.708C7.27926 251.519 7.82062 249.52 8.90333 247.712C9.97414 245.903 11.4138 244.464 13.2223 243.393C15.0189 242.31 17.0177 241.769 19.2188 241.769C21.7769 241.769 24.1267 242.536 26.2684 244.071C26.3517 244.143 26.4468 244.172 26.5539 244.16C26.661 244.148 26.7502 244.107 26.8216 244.035L28.642 242.215C28.9751 241.918 29.338 241.769 29.7307 241.769C30.1114 241.769 30.4624 241.918 30.7836 242.215C31.0692 242.501 31.212 242.834 31.212 243.215C31.212 243.679 31.0037 244.125 30.5873 244.553L28.9633 246.177C28.9514 246.189 28.9454 246.195 28.9454 246.195C28.4933 246.671 28.0531 247.135 27.6247 247.587C27.1845 248.027 26.8276 248.378 26.5539 248.64Z" fill="white"/>
<path d="M32.0329 222.119C32.0329 221.465 31.8009 220.906 31.3369 220.442C30.8729 219.978 30.3137 219.746 29.6593 219.746H8.63563C7.98124 219.746 7.42204 219.978 6.95802 220.442C6.494 220.906 6.26199 221.465 6.26199 222.119C6.26199 222.774 6.494 223.333 6.95802 223.797C7.42204 224.261 7.98124 224.493 8.63563 224.493H27.2856V225.493C27.2856 226.147 27.5177 226.706 27.9817 227.17C28.4457 227.634 29.0049 227.866 29.6593 227.866C30.3137 227.866 30.8729 227.634 31.3369 227.17C31.8009 226.706 32.0329 226.147 32.0329 225.493V222.119ZM28.1423 225.493V224.047C28.1423 223.928 28.1007 223.827 28.0174 223.744C27.9341 223.66 27.8329 223.619 27.714 223.619H8.63563C8.2192 223.619 7.86821 223.476 7.58266 223.19C7.28521 222.893 7.13649 222.536 7.13649 222.119C7.13649 221.703 7.28521 221.346 7.58266 221.049C7.86821 220.751 8.2192 220.602 8.63563 220.602H29.6593C30.0757 220.602 30.4326 220.751 30.7301 221.049C31.0156 221.346 31.1584 221.703 31.1584 222.119L31.1584 225.493C31.1584 225.909 31.0156 226.266 30.7301 226.563C30.4326 226.849 30.0757 226.992 29.6593 226.992C29.2429 226.992 28.8859 226.849 28.5885 226.563C28.291 226.266 28.1423 225.909 28.1423 225.493ZM32.0329 231.578C32.0329 230.924 31.8009 230.365 31.3369 229.901C30.8729 229.437 30.3137 229.205 29.6593 229.205C29.0049 229.205 28.4457 229.437 27.9817 229.901C27.5177 230.365 27.2856 230.924 27.2856 231.578V232.578H8.63563C7.98124 232.578 7.42204 232.81 6.95802 233.274C6.494 233.738 6.26199 234.297 6.26199 234.951C6.26199 235.606 6.494 236.165 6.95802 236.629C7.42204 237.093 7.98124 237.325 8.63563 237.325H29.6593C30.3137 237.325 30.8729 237.093 31.3369 236.629C31.8009 236.165 32.0329 235.606 32.0329 234.951V231.578ZM7.13649 234.951C7.13649 234.535 7.28521 234.184 7.58266 233.898C7.86821 233.601 8.2192 233.452 8.63563 233.452H27.714C27.8329 233.452 27.9341 233.411 28.0174 233.327C28.1007 233.244 28.1423 233.137 28.1423 233.006V231.578C28.1423 231.162 28.291 230.805 28.5885 230.508C28.8859 230.21 29.2429 230.061 29.6593 230.061C30.0757 230.061 30.4326 230.21 30.7301 230.508C31.0156 230.805 31.1584 231.162 31.1584 231.578V234.951C31.1584 235.368 31.0156 235.725 30.7301 236.022C30.4326 236.32 30.0757 236.468 29.6593 236.468H8.63563C8.2192 236.468 7.86821 236.32 7.58266 236.022C7.28521 235.725 7.13649 235.368 7.13649 234.951Z" fill="white"/>
<path d="M32.0151 213.785C32.0151 213.131 31.7831 212.571 31.319 212.107C30.855 211.643 30.2958 211.411 29.6414 211.411H8.61778C7.96339 211.411 7.40419 211.643 6.94017 212.107C6.47615 212.571 6.24414 213.131 6.24414 213.785C6.24414 214.439 6.47615 214.999 6.94017 215.463C7.40419 215.927 7.96339 216.159 8.61778 216.159H29.6414C30.2958 216.159 30.855 215.927 31.319 215.463C31.7831 214.999 32.0151 214.439 32.0151 213.785ZM7.11864 213.785C7.11864 213.369 7.26736 213.018 7.56481 212.732C7.85036 212.435 8.20135 212.286 8.61778 212.286H29.6414C30.0579 212.286 30.4148 212.435 30.7122 212.732C30.9978 213.018 31.1406 213.369 31.1406 213.785C31.1406 214.201 30.9978 214.558 30.7122 214.856C30.4148 215.153 30.0579 215.302 29.6414 215.302H8.61778C8.20135 215.302 7.85036 215.153 7.56481 214.856C7.26736 214.558 7.11864 214.201 7.11864 213.785Z" fill="white"/>
<path d="M32.0329 199.543C32.0329 199.341 32.027 199.139 32.0151 198.936V198.758C32.0151 198.603 32.0032 198.449 31.9794 198.294C31.6224 195.058 30.2482 192.327 27.8567 190.102C25.3106 187.865 22.4313 186.747 19.2188 186.747C16.8749 186.747 14.7333 187.324 12.794 188.478C10.8546 189.632 9.30786 191.179 8.15376 193.118C6.99966 195.058 6.42261 197.199 6.42261 199.543C6.42261 200.888 6.42261 202.131 6.42261 203.273C6.41071 204.403 6.40476 205.028 6.40476 205.147C6.40476 205.183 6.41071 205.212 6.42261 205.236V205.468C6.42261 206.123 6.65462 206.682 7.11864 207.146C7.57076 207.61 8.12401 207.842 8.7784 207.842C9.43279 207.842 9.99199 207.61 10.456 207.146C10.9081 206.682 11.1342 206.123 11.1342 205.468V199.543C11.1342 198.068 11.503 196.723 12.2407 195.51C12.9665 194.284 13.9421 193.315 15.1676 192.601C16.3812 191.875 17.7316 191.512 19.2188 191.512C20.7061 191.512 22.0565 191.875 23.2701 192.601C24.4837 193.315 25.4534 194.284 26.1791 195.51C26.9049 196.723 27.2678 198.068 27.2678 199.543C27.2678 200.031 27.2737 200.596 27.2856 201.239C27.2856 201.881 27.2856 202.5 27.2856 203.095H19.1831C18.5288 203.095 17.9696 203.327 17.5055 203.791C17.0415 204.255 16.8095 204.814 16.8095 205.468C16.8095 206.123 17.0415 206.682 17.5055 207.146C17.9696 207.61 18.5288 207.842 19.1831 207.842H29.6057C29.6176 207.842 29.6295 207.842 29.6414 207.842C29.6414 207.842 29.6474 207.842 29.6593 207.842C30.3137 207.842 30.8729 207.61 31.3369 207.146C31.789 206.682 32.0151 206.123 32.0151 205.468V205.147C32.0151 205.147 32.0151 205.141 32.0151 205.129C32.0151 204.927 32.021 204.267 32.0329 203.148C32.0329 202.03 32.0329 200.828 32.0329 199.543ZM17.684 205.468C17.684 205.052 17.8327 204.695 18.1302 204.397C18.4157 204.1 18.7667 203.951 19.1831 203.951H27.714C27.8329 203.951 27.94 203.91 28.0352 203.826C28.1185 203.743 28.1601 203.642 28.1601 203.523C28.1482 202.892 28.1423 202.208 28.1423 201.471C28.1423 200.733 28.1423 200.09 28.1423 199.543C28.1423 197.913 27.7437 196.426 26.9466 195.081C26.1375 193.725 25.0607 192.648 23.7163 191.851C22.3599 191.042 20.8608 190.638 19.2188 190.638C17.5769 190.638 16.0778 191.042 14.7214 191.851C13.3651 192.648 12.2883 193.725 11.4911 195.081C10.6821 196.426 10.2775 197.913 10.2775 199.543V205.468C10.2775 205.885 10.1348 206.242 9.84922 206.539C9.55177 206.825 9.19483 206.967 8.7784 206.967C8.36197 206.967 8.01098 206.825 7.72543 206.539C7.42799 206.242 7.27926 205.891 7.27926 205.486L7.27926 205.147C7.29116 205.123 7.29116 205.094 7.27926 205.058C7.27926 204.748 7.27926 204.058 7.27926 202.988C7.27926 201.917 7.27926 200.769 7.27926 199.543C7.27926 197.354 7.82062 195.355 8.90333 193.547C9.97414 191.738 11.4138 190.298 13.2223 189.228C15.0308 188.145 17.0296 187.604 19.2188 187.604C21.2891 187.604 23.1868 188.079 24.912 189.031C26.6372 189.971 28.0471 191.25 29.1417 192.868C30.2363 194.486 30.8907 196.331 31.1049 198.401C31.1168 198.413 31.1227 198.431 31.1227 198.454C31.1465 198.55 31.1584 198.651 31.1584 198.758V198.936C31.1584 198.948 31.1584 198.954 31.1584 198.954C31.1584 199.156 31.1584 199.353 31.1584 199.543C31.1584 200.852 31.1584 202.077 31.1584 203.22C31.1584 204.35 31.1584 204.992 31.1584 205.147V205.468C31.1584 205.885 31.0156 206.236 30.7301 206.521C30.4445 206.807 30.0876 206.956 29.6593 206.967H29.6414C29.6414 206.967 29.6355 206.967 29.6236 206.967H19.1831C18.7667 206.967 18.4157 206.825 18.1302 206.539C17.8327 206.242 17.684 205.885 17.684 205.468Z" fill="white"/>
<path d="M32.0151 180.804C32.0151 180.149 31.7831 179.59 31.319 179.126C30.855 178.662 30.2958 178.43 29.6414 178.43H8.61778C7.96339 178.43 7.40419 178.662 6.94017 179.126C6.47615 179.59 6.24414 180.149 6.24414 180.804C6.24414 181.458 6.47615 182.017 6.94017 182.481C7.40419 182.945 7.96339 183.178 8.61778 183.178H29.6414C30.2958 183.178 30.855 182.945 31.319 182.481C31.7831 182.017 32.0151 181.458 32.0151 180.804ZM7.11864 180.804C7.11864 180.387 7.26736 180.036 7.56481 179.751C7.85036 179.453 8.20135 179.305 8.61778 179.305H29.6414C30.0579 179.305 30.4148 179.453 30.7122 179.751C30.9978 180.036 31.1406 180.387 31.1406 180.804C31.1406 181.22 30.9978 181.577 30.7122 181.875C30.4148 182.172 30.0579 182.321 29.6414 182.321H8.61778C8.20135 182.321 7.85036 182.172 7.56481 181.875C7.26736 181.577 7.11864 181.22 7.11864 180.804Z" fill="white"/>
<path d="M11.152 159.655C11.152 159.013 10.92 158.46 10.456 157.996C9.99199 157.531 9.43279 157.299 8.7784 157.299C8.13591 157.299 7.58266 157.531 7.11864 157.996C6.65462 158.46 6.42261 159.013 6.42261 159.655L6.42261 172.505C6.42261 173.159 6.65462 173.719 7.11864 174.183C7.58266 174.635 8.13591 174.861 8.7784 174.861C9.43279 174.861 9.99199 174.635 10.456 174.183C10.92 173.719 11.152 173.159 11.152 172.505L11.152 159.655ZM7.29711 172.505L7.29711 159.655C7.29711 159.251 7.44583 158.906 7.74328 158.62C8.02883 158.323 8.37387 158.174 8.7784 158.174C9.19483 158.174 9.55177 158.323 9.84922 158.62C10.1348 158.906 10.2775 159.251 10.2775 159.655L10.2775 172.505C10.2775 172.921 10.1348 173.278 9.84922 173.576C9.55177 173.861 9.19483 174.004 8.7784 174.004C8.37387 174.004 8.02883 173.861 7.74328 173.576C7.44583 173.278 7.29711 172.921 7.29711 172.505ZM32.0508 166.08C32.0508 165.426 31.8247 164.867 31.3726 164.403C30.9086 163.939 30.3494 163.707 29.695 163.707H19.2545C18.6001 163.707 18.0469 163.939 17.5948 164.403C17.1308 164.867 16.8987 165.426 16.8987 166.08C16.8987 166.735 17.1308 167.294 17.5948 167.758C18.0469 168.222 18.6001 168.454 19.2545 168.454H29.695C30.3494 168.454 30.9086 168.222 31.3726 167.758C31.8247 167.294 32.0508 166.735 32.0508 166.08ZM17.7554 166.08C17.7554 165.664 17.9041 165.313 18.2016 165.027C18.4871 164.73 18.8381 164.581 19.2545 164.581H29.695C30.1114 164.581 30.4683 164.73 30.7658 165.027C31.0513 165.313 31.1941 165.664 31.1941 166.08C31.1941 166.497 31.0513 166.854 30.7658 167.151C30.4683 167.448 30.1114 167.597 29.695 167.597H19.2545C18.8381 167.597 18.4871 167.448 18.2016 167.151C17.9041 166.854 17.7554 166.497 17.7554 166.08Z" fill="white"/>
<path d="M21.4854 143.004C21.4854 142.195 21.1523 141.535 20.486 141.023L10.1705 132.885C10.1705 132.873 10.1705 132.867 10.1705 132.867C9.63505 132.474 9.05205 132.314 8.42146 132.385C7.80277 132.457 7.27926 132.748 6.85094 133.26C6.85094 133.272 6.84499 133.278 6.83309 133.278C6.44046 133.813 6.27983 134.396 6.35122 135.027C6.42261 135.645 6.71411 136.169 7.22572 136.597C7.22572 136.597 7.23167 136.603 7.24357 136.615L15.3461 143.004L7.24357 149.393C7.23167 149.405 7.22572 149.411 7.22572 149.411C6.71411 149.839 6.42261 150.363 6.35122 150.982C6.27983 151.612 6.44046 152.195 6.83309 152.731C6.84499 152.731 6.85094 152.737 6.85094 152.749C7.27926 153.26 7.80277 153.552 8.42146 153.623C9.05205 153.694 9.63505 153.534 10.1705 153.141C10.1705 153.141 10.1705 153.135 10.1705 153.123L20.486 144.985C21.1523 144.474 21.4854 143.813 21.4854 143.004ZM9.6529 152.445C9.29596 152.707 8.92118 152.814 8.52854 152.766C8.13591 152.719 7.80277 152.528 7.52912 152.195C7.26736 151.85 7.16028 151.481 7.20787 151.089C7.25547 150.696 7.44583 150.357 7.77897 150.071L16.3098 143.343C16.4169 143.248 16.4704 143.135 16.4704 143.004C16.4704 142.873 16.4169 142.76 16.3098 142.665L7.77897 135.937C7.44583 135.651 7.25547 135.312 7.20787 134.919C7.16028 134.527 7.26736 134.158 7.52912 133.813C7.80277 133.48 8.13591 133.289 8.52854 133.242C8.92118 133.194 9.29596 133.301 9.6529 133.563L19.9506 141.701C19.9506 141.701 19.9565 141.701 19.9684 141.701C19.9684 141.701 19.9684 141.707 19.9684 141.719C20.4086 142.04 20.6287 142.469 20.6287 143.004C20.6287 143.54 20.4086 143.974 19.9684 144.307C19.9565 144.307 19.9506 144.307 19.9506 144.307L9.6529 152.445ZM32.0508 143.004C32.0508 142.35 31.8128 141.785 31.3369 141.309C30.8729 140.845 30.3137 140.613 29.6593 140.613H25.0548C24.4004 140.613 23.8352 140.845 23.3593 141.309C22.8953 141.785 22.6633 142.35 22.6633 143.004C22.6633 143.659 22.8953 144.224 23.3593 144.7C23.8352 145.164 24.4004 145.396 25.0548 145.396H29.6593C30.3137 145.396 30.8788 145.164 31.3547 144.7C31.8188 144.224 32.0508 143.659 32.0508 143.004ZM23.5378 143.004C23.5378 142.576 23.6865 142.219 23.984 141.933C24.2695 141.636 24.6265 141.487 25.0548 141.487H29.6593C30.0757 141.487 30.4326 141.636 30.7301 141.933C31.0275 142.219 31.1763 142.576 31.1763 143.004C31.1763 143.432 31.0275 143.789 30.7301 144.075C30.4326 144.372 30.0757 144.521 29.6593 144.521H25.0548C24.6265 144.521 24.2695 144.372 23.984 144.075C23.6865 143.789 23.5378 143.432 23.5378 143.004Z" fill="white"/>
</g>
<defs>
<filter id="filter0_dd" x="22.7072" y="0" width="461.077" height="427.629" filterUnits="userSpaceOnUse" color-interpolation-filters="sRGB">
<feFlood flood-opacity="0" result="BackgroundImageFix"/>
<feColorMatrix in="SourceAlpha" type="matrix" values="0 0 0 0 0 0 0 0 0 0 0 0 0 0 0 0 0 0 127 0" result="hardAlpha"/>
<feOffset/>
<feGaussianBlur stdDeviation="13.5"/>
<feComposite in2="hardAlpha" operator="out"/>
<feColorMatrix type="matrix" values="0 0 0 0 1 0 0 0 0 1 0 0 0 0 1 0 0 0 1 0"/>
<feBlend mode="normal" in2="BackgroundImageFix" result="effect1_dropShadow"/>
<feColorMatrix in="SourceAlpha" type="matrix" values="0 0 0 0 0 0 0 0 0 0 0 0 0 0 0 0 0 0 127 0" result="hardAlpha"/>
<feOffset dy="12"/>
<feGaussianBlur stdDeviation="3"/>
<feComposite in2="hardAlpha" operator="out"/>
<feColorMatrix type="matrix" values="0 0 0 0 0 0 0 0 0 0 0 0 0 0 0 0 0 0 0.3 0"/>
<feBlend mode="normal" in2="effect1_dropShadow" result="effect2_dropShadow"/>
<feBlend mode="normal" in="SourceGraphic" in2="effect2_dropShadow" result="shape"/>
</filter>
<filter id="filter1_dddd" x="46.9703" y="24.0681" width="412.619" height="379.298" filterUnits="userSpaceOnUse" color-interpolation-filters="sRGB">
<feFlood flood-opacity="0" result="BackgroundImageFix"/>
<feColorMatrix in="SourceAlpha" type="matrix" values="0 0 0 0 0 0 0 0 0 0 0 0 0 0 0 0 0 0 127 0" result="hardAlpha"/>
<feOffset/>
<feGaussianBlur stdDeviation="2"/>
<feComposite in2="hardAlpha" operator="out"/>
<feColorMatrix type="matrix" values="0 0 0 0 1 0 0 0 0 1 0 0 0 0 1 0 0 0 1 0"/>
<feBlend mode="normal" in2="BackgroundImageFix" result="effect1_dropShadow"/>
<feColorMatrix in="SourceAlpha" type="matrix" values="0 0 0 0 0 0 0 0 0 0 0 0 0 0 0 0 0 0 127 0" result="hardAlpha"/>
<feOffset/>
<feGaussianBlur stdDeviation="3"/>
<feComposite in2="hardAlpha" operator="out"/>
<feColorMatrix type="matrix" values="0 0 0 0 1 0 0 0 0 1 0 0 0 0 1 0 0 0 1 0"/>
<feBlend mode="normal" in2="effect1_dropShadow" result="effect2_dropShadow"/>
<feColorMatrix in="SourceAlpha" type="matrix" values="0 0 0 0 0 0 0 0 0 0 0 0 0 0 0 0 0 0 127 0" result="hardAlpha"/>
<feOffset/>
<feGaussianBlur stdDeviation="2"/>
<feComposite in2="hardAlpha" operator="out"/>
<feColorMatrix type="matrix" values="0 0 0 0 1 0 0 0 0 1 0 0 0 0 1 0 0 0 1 0"/>
<feBlend mode="normal" in2="effect2_dropShadow" result="effect3_dropShadow"/>
<feColorMatrix in="SourceAlpha" type="matrix" values="0 0 0 0 0 0 0 0 0 0 0 0 0 0 0 0 0 0 127 0" result="hardAlpha"/>
<feOffset/>
<feGaussianBlur stdDeviation="1.5"/>
<feComposite in2="hardAlpha" operator="out"/>
<feColorMatrix type="matrix" values="0 0 0 0 1 0 0 0 0 1 0 0 0 0 1 0 0 0 1 0"/>
<feBlend mode="normal" in2="effect3_dropShadow" result="effect4_dropShadow"/>
<feBlend mode="normal" in="SourceGraphic" in2="effect4_dropShadow" result="shape"/>
</filter>
<filter id="filter2_dd" x="200.075" y="11.7632" width="115.316" height="286.631" filterUnits="userSpaceOnUse" color-interpolation-filters="sRGB">
<feFlood flood-opacity="0" result="BackgroundImageFix"/>
<feColorMatrix in="SourceAlpha" type="matrix" values="0 0 0 0 0 0 0 0 0 0 0 0 0 0 0 0 0 0 127 0" result="hardAlpha"/>
<feOffset/>
<feGaussianBlur stdDeviation="17"/>
<feComposite in2="hardAlpha" operator="out"/>
<feColorMatrix type="matrix" values="0 0 0 0 0.0941176 0 0 0 0 0.65098 0 0 0 0 0.866667 0 0 0 1 0"/>
<feBlend mode="normal" in2="BackgroundImageFix" result="effect1_dropShadow"/>
<feColorMatrix in="SourceAlpha" type="matrix" values="0 0 0 0 0 0 0 0 0 0 0 0 0 0 0 0 0 0 127 0" result="hardAlpha"/>
<feOffset dy="8"/>
<feGaussianBlur stdDeviation="2"/>
<feComposite in2="hardAlpha" operator="out"/>
<feColorMatrix type="matrix" values="0 0 0 0 0 0 0 0 0 0 0 0 0 0 0 0 0 0 0.18 0"/>
<feBlend mode="normal" in2="effect1_dropShadow" result="effect2_dropShadow"/>
<feBlend mode="normal" in="SourceGraphic" in2="effect2_dropShadow" result="shape"/>
</filter>
<filter id="filter3_dddd" x="231.338" y="43.0259" width="52.7893" height="224.104" filterUnits="userSpaceOnUse" color-interpolation-filters="sRGB">
<feFlood flood-opacity="0" result="BackgroundImageFix"/>
<feColorMatrix in="SourceAlpha" type="matrix" values="0 0 0 0 0 0 0 0 0 0 0 0 0 0 0 0 0 0 127 0" result="hardAlpha"/>
<feOffset/>
<feGaussianBlur stdDeviation="2"/>
<feComposite in2="hardAlpha" operator="out"/>
<feColorMatrix type="matrix" values="0 0 0 0 0.196078 0 0 0 0 0.803922 0 0 0 0 0.937255 0 0 0 1 0"/>
<feBlend mode="normal" in2="BackgroundImageFix" result="effect1_dropShadow"/>
<feColorMatrix in="SourceAlpha" type="matrix" values="0 0 0 0 0 0 0 0 0 0 0 0 0 0 0 0 0 0 127 0" result="hardAlpha"/>
<feOffset/>
<feGaussianBlur stdDeviation="3"/>
<feComposite in2="hardAlpha" operator="out"/>
<feColorMatrix type="matrix" values="0 0 0 0 0.196078 0 0 0 0 0.803922 0 0 0 0 0.937255 0 0 0 1 0"/>
<feBlend mode="normal" in2="effect1_dropShadow" result="effect2_dropShadow"/>
<feColorMatrix in="SourceAlpha" type="matrix" values="0 0 0 0 0 0 0 0 0 0 0 0 0 0 0 0 0 0 127 0" result="hardAlpha"/>
<feOffset/>
<feGaussianBlur stdDeviation="2"/>
<feComposite in2="hardAlpha" operator="out"/>
<feColorMatrix type="matrix" values="0 0 0 0 0.196078 0 0 0 0 0.803922 0 0 0 0 0.937255 0 0 0 1 0"/>
<feBlend mode="normal" in2="effect2_dropShadow" result="effect3_dropShadow"/>
<feColorMatrix in="SourceAlpha" type="matrix" values="0 0 0 0 0 0 0 0 0 0 0 0 0 0 0 0 0 0 127 0" result="hardAlpha"/>
<feOffset/>
<feGaussianBlur stdDeviation="1.5"/>
<feComposite in2="hardAlpha" operator="out"/>
<feColorMatrix type="matrix" values="0 0 0 0 0.196078 0 0 0 0 0.803922 0 0 0 0 0.937255 0 0 0 1 0"/>
<feBlend mode="normal" in2="effect3_dropShadow" result="effect4_dropShadow"/>
<feBlend mode="normal" in="SourceGraphic" in2="effect4_dropShadow" result="shape"/>
</filter>
<filter id="filter4_dd" x="180.075" y="213.656" width="155.316" height="207.526" filterUnits="userSpaceOnUse" color-interpolation-filters="sRGB">
<feFlood flood-opacity="0" result="BackgroundImageFix"/>
<feColorMatrix in="SourceAlpha" type="matrix" values="0 0 0 0 0 0 0 0 0 0 0 0 0 0 0 0 0 0 127 0" result="hardAlpha"/>
<feOffset/>
<feGaussianBlur stdDeviation="27"/>
<feComposite in2="hardAlpha" operator="out"/>
<feColorMatrix type="matrix" values="0 0 0 0 0.776471 0 0 0 0 0.152941 0 0 0 0 0.345098 0 0 0 1 0"/>
<feBlend mode="normal" in2="BackgroundImageFix" result="effect1_dropShadow"/>
<feColorMatrix in="SourceAlpha" type="matrix" values="0 0 0 0 0 0 0 0 0 0 0 0 0 0 0 0 0 0 127 0" result="hardAlpha"/>
<feOffset dy="10"/>
<feGaussianBlur stdDeviation="3"/>
<feComposite in2="hardAlpha" operator="out"/>
<feColorMatrix type="matrix" values="0 0 0 0 0 0 0 0 0 0 0 0 0 0 0 0 0 0 0.23 0"/>
<feBlend mode="normal" in2="effect1_dropShadow" result="effect2_dropShadow"/>
<feBlend mode="normal" in="SourceGraphic" in2="effect2_dropShadow" result="shape"/>
</filter>
<filter id="filter5_ddddd" x="231.338" y="264.919" width="52.7893" height="105" filterUnits="userSpaceOnUse" color-interpolation-filters="sRGB">
<feFlood flood-opacity="0" result="BackgroundImageFix"/>
<feColorMatrix in="SourceAlpha" type="matrix" values="0 0 0 0 0 0 0 0 0 0 0 0 0 0 0 0 0 0 127 0" result="hardAlpha"/>
<feOffset/>
<feGaussianBlur stdDeviation="1"/>
<feComposite in2="hardAlpha" operator="out"/>
<feColorMatrix type="matrix" values="0 0 0 0 0.937255 0 0 0 0 0.196078 0 0 0 0 0.552941 0 0 0 1 0"/>
<feBlend mode="normal" in2="BackgroundImageFix" result="effect1_dropShadow"/>
<feColorMatrix in="SourceAlpha" type="matrix" values="0 0 0 0 0 0 0 0 0 0 0 0 0 0 0 0 0 0 127 0" result="hardAlpha"/>
<feOffset/>
<feGaussianBlur stdDeviation="2"/>
<feComposite in2="hardAlpha" operator="out"/>
<feColorMatrix type="matrix" values="0 0 0 0 0.937255 0 0 0 0 0.196078 0 0 0 0 0.552941 0 0 0 1 0"/>
<feBlend mode="normal" in2="effect1_dropShadow" result="effect2_dropShadow"/>
<feColorMatrix in="SourceAlpha" type="matrix" values="0 0 0 0 0 0 0 0 0 0 0 0 0 0 0 0 0 0 127 0" result="hardAlpha"/>
<feOffset/>
<feGaussianBlur stdDeviation="3"/>
<feComposite in2="hardAlpha" operator="out"/>
<feColorMatrix type="matrix" values="0 0 0 0 0.937255 0 0 0 0 0.196078 0 0 0 0 0.552941 0 0 0 1 0"/>
<feBlend mode="normal" in2="effect2_dropShadow" result="effect3_dropShadow"/>
<feColorMatrix in="SourceAlpha" type="matrix" values="0 0 0 0 0 0 0 0 0 0 0 0 0 0 0 0 0 0 127 0" result="hardAlpha"/>
<feOffset/>
<feGaussianBlur stdDeviation="2"/>
<feComposite in2="hardAlpha" operator="out"/>
<feColorMatrix type="matrix" values="0 0 0 0 0.937255 0 0 0 0 0.196078 0 0 0 0 0.552941 0 0 0 1 0"/>
<feBlend mode="normal" in2="effect3_dropShadow" result="effect4_dropShadow"/>
<feColorMatrix in="SourceAlpha" type="matrix" values="0 0 0 0 0 0 0 0 0 0 0 0 0 0 0 0 0 0 127 0" result="hardAlpha"/>
<feOffset/>
<feGaussianBlur stdDeviation="1.5"/>
<feComposite in2="hardAlpha" operator="out"/>
<feColorMatrix type="matrix" values="0 0 0 0 0.937255 0 0 0 0 0.196078 0 0 0 0 0.552941 0 0 0 1 0"/>
<feBlend mode="normal" in2="effect4_dropShadow" result="effect5_dropShadow"/>
<feBlend mode="normal" in="SourceGraphic" in2="effect5_dropShadow" result="shape"/>
</filter>
<filter id="filter6_dd" x="307.337" y="161.841" width="155.316" height="259.499" filterUnits="userSpaceOnUse" color-interpolation-filters="sRGB">
<feFlood flood-opacity="0" result="BackgroundImageFix"/>
<feColorMatrix in="SourceAlpha" type="matrix" values="0 0 0 0 0 0 0 0 0 0 0 0 0 0 0 0 0 0 127 0" result="hardAlpha"/>
<feOffset/>
<feGaussianBlur stdDeviation="27"/>
<feComposite in2="hardAlpha" operator="out"/>
<feColorMatrix type="matrix" values="0 0 0 0 0.776471 0 0 0 0 0.152941 0 0 0 0 0.345098 0 0 0 1 0"/>
<feBlend mode="normal" in2="BackgroundImageFix" result="effect1_dropShadow"/>
<feColorMatrix in="SourceAlpha" type="matrix" values="0 0 0 0 0 0 0 0 0 0 0 0 0 0 0 0 0 0 127 0" result="hardAlpha"/>
<feOffset dy="10"/>
<feGaussianBlur stdDeviation="3"/>
<feComposite in2="hardAlpha" operator="out"/>
<feColorMatrix type="matrix" values="0 0 0 0 0 0 0 0 0 0 0 0 0 0 0 0 0 0 0.23 0"/>
<feBlend mode="normal" in2="effect1_dropShadow" result="effect2_dropShadow"/>
<feBlend mode="normal" in="SourceGraphic" in2="effect2_dropShadow" result="shape"/>
</filter>
<filter id="filter7_ddddd" x="358.6" y="213" width="52.7893" height="156.924" filterUnits="userSpaceOnUse" color-interpolation-filters="sRGB">
<feFlood flood-opacity="0" result="BackgroundImageFix"/>
<feColorMatrix in="SourceAlpha" type="matrix" values="0 0 0 0 0 0 0 0 0 0 0 0 0 0 0 0 0 0 127 0" result="hardAlpha"/>
<feOffset/>
<feGaussianBlur stdDeviation="1"/>
<feComposite in2="hardAlpha" operator="out"/>
<feColorMatrix type="matrix" values="0 0 0 0 0.937255 0 0 0 0 0.196078 0 0 0 0 0.552941 0 0 0 1 0"/>
<feBlend mode="normal" in2="BackgroundImageFix" result="effect1_dropShadow"/>
<feColorMatrix in="SourceAlpha" type="matrix" values="0 0 0 0 0 0 0 0 0 0 0 0 0 0 0 0 0 0 127 0" result="hardAlpha"/>
<feOffset/>
<feGaussianBlur stdDeviation="2"/>
<feComposite in2="hardAlpha" operator="out"/>
<feColorMatrix type="matrix" values="0 0 0 0 0.937255 0 0 0 0 0.196078 0 0 0 0 0.552941 0 0 0 1 0"/>
<feBlend mode="normal" in2="effect1_dropShadow" result="effect2_dropShadow"/>
<feColorMatrix in="SourceAlpha" type="matrix" values="0 0 0 0 0 0 0 0 0 0 0 0 0 0 0 0 0 0 127 0" result="hardAlpha"/>
<feOffset/>
<feGaussianBlur stdDeviation="3"/>
<feComposite in2="hardAlpha" operator="out"/>
<feColorMatrix type="matrix" values="0 0 0 0 0.937255 0 0 0 0 0.196078 0 0 0 0 0.552941 0 0 0 1 0"/>
<feBlend mode="normal" in2="effect2_dropShadow" result="effect3_dropShadow"/>
<feColorMatrix in="SourceAlpha" type="matrix" values="0 0 0 0 0 0 0 0 0 0 0 0 0 0 0 0 0 0 127 0" result="hardAlpha"/>
<feOffset/>
<feGaussianBlur stdDeviation="2"/>
<feComposite in2="hardAlpha" operator="out"/>
<feColorMatrix type="matrix" values="0 0 0 0 0.937255 0 0 0 0 0.196078 0 0 0 0 0.552941 0 0 0 1 0"/>
<feBlend mode="normal" in2="effect3_dropShadow" result="effect4_dropShadow"/>
<feColorMatrix in="SourceAlpha" type="matrix" values="0 0 0 0 0 0 0 0 0 0 0 0 0 0 0 0 0 0 127 0" result="hardAlpha"/>
<feOffset/>
<feGaussianBlur stdDeviation="1.5"/>
<feComposite in2="hardAlpha" operator="out"/>
<feColorMatrix type="matrix" values="0 0 0 0 0.937255 0 0 0 0 0.196078 0 0 0 0 0.552941 0 0 0 1 0"/>
<feBlend mode="normal" in2="effect4_dropShadow" result="effect5_dropShadow"/>
<feBlend mode="normal" in="SourceGraphic" in2="effect5_dropShadow" result="shape"/>
</filter>
<filter id="filter8_dd" x="52.8123" y="181.84" width="155.316" height="239.342" filterUnits="userSpaceOnUse" color-interpolation-filters="sRGB">
<feFlood flood-opacity="0" result="BackgroundImageFix"/>
<feColorMatrix in="SourceAlpha" type="matrix" values="0 0 0 0 0 0 0 0 0 0 0 0 0 0 0 0 0 0 127 0" result="hardAlpha"/>
<feOffset/>
<feGaussianBlur stdDeviation="27"/>
<feComposite in2="hardAlpha" operator="out"/>
<feColorMatrix type="matrix" values="0 0 0 0 0.776471 0 0 0 0 0.152941 0 0 0 0 0.345098 0 0 0 1 0"/>
<feBlend mode="normal" in2="BackgroundImageFix" result="effect1_dropShadow"/>
<feColorMatrix in="SourceAlpha" type="matrix" values="0 0 0 0 0 0 0 0 0 0 0 0 0 0 0 0 0 0 127 0" result="hardAlpha"/>
<feOffset dy="10"/>
<feGaussianBlur stdDeviation="3"/>
<feComposite in2="hardAlpha" operator="out"/>
<feColorMatrix type="matrix" values="0 0 0 0 0 0 0 0 0 0 0 0 0 0 0 0 0 0 0.23 0"/>
<feBlend mode="normal" in2="effect1_dropShadow" result="effect2_dropShadow"/>
<feBlend mode="normal" in="SourceGraphic" in2="effect2_dropShadow" result="shape"/>
</filter>
<filter id="filter9_ddddd" x="104.075" y="233.104" width="52.7896" height="136.815" filterUnits="userSpaceOnUse" color-interpolation-filters="sRGB">
<feFlood flood-opacity="0" result="BackgroundImageFix"/>
<feColorMatrix in="SourceAlpha" type="matrix" values="0 0 0 0 0 0 0 0 0 0 0 0 0 0 0 0 0 0 127 0" result="hardAlpha"/>
<feOffset/>
<feGaussianBlur stdDeviation="1"/>
<feComposite in2="hardAlpha" operator="out"/>
<feColorMatrix type="matrix" values="0 0 0 0 0.937255 0 0 0 0 0.196078 0 0 0 0 0.552941 0 0 0 1 0"/>
<feBlend mode="normal" in2="BackgroundImageFix" result="effect1_dropShadow"/>
<feColorMatrix in="SourceAlpha" type="matrix" values="0 0 0 0 0 0 0 0 0 0 0 0 0 0 0 0 0 0 127 0" result="hardAlpha"/>
<feOffset/>
<feGaussianBlur stdDeviation="2"/>
<feComposite in2="hardAlpha" operator="out"/>
<feColorMatrix type="matrix" values="0 0 0 0 0.937255 0 0 0 0 0.196078 0 0 0 0 0.552941 0 0 0 1 0"/>
<feBlend mode="normal" in2="effect1_dropShadow" result="effect2_dropShadow"/>
<feColorMatrix in="SourceAlpha" type="matrix" values="0 0 0 0 0 0 0 0 0 0 0 0 0 0 0 0 0 0 127 0" result="hardAlpha"/>
<feOffset/>
<feGaussianBlur stdDeviation="3"/>
<feComposite in2="hardAlpha" operator="out"/>
<feColorMatrix type="matrix" values="0 0 0 0 0.937255 0 0 0 0 0.196078 0 0 0 0 0.552941 0 0 0 1 0"/>
<feBlend mode="normal" in2="effect2_dropShadow" result="effect3_dropShadow"/>
<feColorMatrix in="SourceAlpha" type="matrix" values="0 0 0 0 0 0 0 0 0 0 0 0 0 0 0 0 0 0 127 0" result="hardAlpha"/>
<feOffset/>
<feGaussianBlur stdDeviation="2"/>
<feComposite in2="hardAlpha" operator="out"/>
<feColorMatrix type="matrix" values="0 0 0 0 0.937255 0 0 0 0 0.196078 0 0 0 0 0.552941 0 0 0 1 0"/>
<feBlend mode="normal" in2="effect3_dropShadow" result="effect4_dropShadow"/>
<feColorMatrix in="SourceAlpha" type="matrix" values="0 0 0 0 0 0 0 0 0 0 0 0 0 0 0 0 0 0 127 0" result="hardAlpha"/>
<feOffset/>
<feGaussianBlur stdDeviation="1.5"/>
<feComposite in2="hardAlpha" operator="out"/>
<feColorMatrix type="matrix" values="0 0 0 0 0.937255 0 0 0 0 0.196078 0 0 0 0 0.552941 0 0 0 1 0"/>
<feBlend mode="normal" in2="effect4_dropShadow" result="effect5_dropShadow"/>
<feBlend mode="normal" in="SourceGraphic" in2="effect5_dropShadow" result="shape"/>
</filter>
<filter id="filter10_dd" x="243.706" y="71" width="155.316" height="350.182" filterUnits="userSpaceOnUse" color-interpolation-filters="sRGB">
<feFlood flood-opacity="0" result="BackgroundImageFix"/>
<feColorMatrix in="SourceAlpha" type="matrix" values="0 0 0 0 0 0 0 0 0 0 0 0 0 0 0 0 0 0 127 0" result="hardAlpha"/>
<feOffset/>
<feGaussianBlur stdDeviation="27"/>
<feComposite in2="hardAlpha" operator="out"/>
<feColorMatrix type="matrix" values="0 0 0 0 0.776471 0 0 0 0 0.152941 0 0 0 0 0.345098 0 0 0 1 0"/>
<feBlend mode="normal" in2="BackgroundImageFix" result="effect1_dropShadow"/>
<feColorMatrix in="SourceAlpha" type="matrix" values="0 0 0 0 0 0 0 0 0 0 0 0 0 0 0 0 0 0 127 0" result="hardAlpha"/>
<feOffset dy="10"/>
<feGaussianBlur stdDeviation="3"/>
<feComposite in2="hardAlpha" operator="out"/>
<feColorMatrix type="matrix" values="0 0 0 0 0 0 0 0 0 0 0 0 0 0 0 0 0 0 0.23 0"/>
<feBlend mode="normal" in2="effect1_dropShadow" result="effect2_dropShadow"/>
<feBlend mode="normal" in="SourceGraphic" in2="effect2_dropShadow" result="shape"/>
</filter>
<filter id="filter11_ddddd" x="294.969" y="122" width="52.7893" height="248.37" filterUnits="userSpaceOnUse" color-interpolation-filters="sRGB">
<feFlood flood-opacity="0" result="BackgroundImageFix"/>
<feColorMatrix in="SourceAlpha" type="matrix" values="0 0 0 0 0 0 0 0 0 0 0 0 0 0 0 0 0 0 127 0" result="hardAlpha"/>
<feOffset/>
<feGaussianBlur stdDeviation="1"/>
<feComposite in2="hardAlpha" operator="out"/>
<feColorMatrix type="matrix" values="0 0 0 0 0.937255 0 0 0 0 0.196078 0 0 0 0 0.552941 0 0 0 1 0"/>
<feBlend mode="normal" in2="BackgroundImageFix" result="effect1_dropShadow"/>
<feColorMatrix in="SourceAlpha" type="matrix" values="0 0 0 0 0 0 0 0 0 0 0 0 0 0 0 0 0 0 127 0" result="hardAlpha"/>
<feOffset/>
<feGaussianBlur stdDeviation="2"/>
<feComposite in2="hardAlpha" operator="out"/>
<feColorMatrix type="matrix" values="0 0 0 0 0.937255 0 0 0 0 0.196078 0 0 0 0 0.552941 0 0 0 1 0"/>
<feBlend mode="normal" in2="effect1_dropShadow" result="effect2_dropShadow"/>
<feColorMatrix in="SourceAlpha" type="matrix" values="0 0 0 0 0 0 0 0 0 0 0 0 0 0 0 0 0 0 127 0" result="hardAlpha"/>
<feOffset/>
<feGaussianBlur stdDeviation="3"/>
<feComposite in2="hardAlpha" operator="out"/>
<feColorMatrix type="matrix" values="0 0 0 0 0.937255 0 0 0 0 0.196078 0 0 0 0 0.552941 0 0 0 1 0"/>
<feBlend mode="normal" in2="effect2_dropShadow" result="effect3_dropShadow"/>
<feColorMatrix in="SourceAlpha" type="matrix" values="0 0 0 0 0 0 0 0 0 0 0 0 0 0 0 0 0 0 127 0" result="hardAlpha"/>
<feOffset/>
<feGaussianBlur stdDeviation="2"/>
<feComposite in2="hardAlpha" operator="out"/>
<feColorMatrix type="matrix" values="0 0 0 0 0.937255 0 0 0 0 0.196078 0 0 0 0 0.552941 0 0 0 1 0"/>
<feBlend mode="normal" in2="effect3_dropShadow" result="effect4_dropShadow"/>
<feColorMatrix in="SourceAlpha" type="matrix" values="0 0 0 0 0 0 0 0 0 0 0 0 0 0 0 0 0 0 127 0" result="hardAlpha"/>
<feOffset/>
<feGaussianBlur stdDeviation="1.5"/>
<feComposite in2="hardAlpha" operator="out"/>
<feColorMatrix type="matrix" values="0 0 0 0 0.937255 0 0 0 0 0.196078 0 0 0 0 0.552941 0 0 0 1 0"/>
<feBlend mode="normal" in2="effect4_dropShadow" result="effect5_dropShadow"/>
<feBlend mode="normal" in="SourceGraphic" in2="effect5_dropShadow" result="shape"/>
</filter>
<filter id="filter12_dd" x="116" y="107" width="156" height="314.182" filterUnits="userSpaceOnUse" color-interpolation-filters="sRGB">
<feFlood flood-opacity="0" result="BackgroundImageFix"/>
<feColorMatrix in="SourceAlpha" type="matrix" values="0 0 0 0 0 0 0 0 0 0 0 0 0 0 0 0 0 0 127 0" result="hardAlpha"/>
<feOffset/>
<feGaussianBlur stdDeviation="27"/>
<feComposite in2="hardAlpha" operator="out"/>
<feColorMatrix type="matrix" values="0 0 0 0 0.776471 0 0 0 0 0.152941 0 0 0 0 0.345098 0 0 0 1 0"/>
<feBlend mode="normal" in2="BackgroundImageFix" result="effect1_dropShadow"/>
<feColorMatrix in="SourceAlpha" type="matrix" values="0 0 0 0 0 0 0 0 0 0 0 0 0 0 0 0 0 0 127 0" result="hardAlpha"/>
<feOffset dy="10"/>
<feGaussianBlur stdDeviation="3"/>
<feComposite in2="hardAlpha" operator="out"/>
<feColorMatrix type="matrix" values="0 0 0 0 0 0 0 0 0 0 0 0 0 0 0 0 0 0 0.23 0"/>
<feBlend mode="normal" in2="effect1_dropShadow" result="effect2_dropShadow"/>
<feBlend mode="normal" in="SourceGraphic" in2="effect2_dropShadow" result="shape"/>
</filter>
<filter id="filter13_ddddd" x="167.707" y="158" width="52.7893" height="212.447" filterUnits="userSpaceOnUse" color-interpolation-filters="sRGB">
<feFlood flood-opacity="0" result="BackgroundImageFix"/>
<feColorMatrix in="SourceAlpha" type="matrix" values="0 0 0 0 0 0 0 0 0 0 0 0 0 0 0 0 0 0 127 0" result="hardAlpha"/>
<feOffset/>
<feGaussianBlur stdDeviation="1"/>
<feComposite in2="hardAlpha" operator="out"/>
<feColorMatrix type="matrix" values="0 0 0 0 0.937255 0 0 0 0 0.196078 0 0 0 0 0.552941 0 0 0 1 0"/>
<feBlend mode="normal" in2="BackgroundImageFix" result="effect1_dropShadow"/>
<feColorMatrix in="SourceAlpha" type="matrix" values="0 0 0 0 0 0 0 0 0 0 0 0 0 0 0 0 0 0 127 0" result="hardAlpha"/>
<feOffset/>
<feGaussianBlur stdDeviation="2"/>
<feComposite in2="hardAlpha" operator="out"/>
<feColorMatrix type="matrix" values="0 0 0 0 0.937255 0 0 0 0 0.196078 0 0 0 0 0.552941 0 0 0 1 0"/>
<feBlend mode="normal" in2="effect1_dropShadow" result="effect2_dropShadow"/>
<feColorMatrix in="SourceAlpha" type="matrix" values="0 0 0 0 0 0 0 0 0 0 0 0 0 0 0 0 0 0 127 0" result="hardAlpha"/>
<feOffset/>
<feGaussianBlur stdDeviation="3"/>
<feComposite in2="hardAlpha" operator="out"/>
<feColorMatrix type="matrix" values="0 0 0 0 0.937255 0 0 0 0 0.196078 0 0 0 0 0.552941 0 0 0 1 0"/>
<feBlend mode="normal" in2="effect2_dropShadow" result="effect3_dropShadow"/>
<feColorMatrix in="SourceAlpha" type="matrix" values="0 0 0 0 0 0 0 0 0 0 0 0 0 0 0 0 0 0 127 0" result="hardAlpha"/>
<feOffset/>
<feGaussianBlur stdDeviation="2"/>
<feComposite in2="hardAlpha" operator="out"/>
<feColorMatrix type="matrix" values="0 0 0 0 0.937255 0 0 0 0 0.196078 0 0 0 0 0.552941 0 0 0 1 0"/>
<feBlend mode="normal" in2="effect3_dropShadow" result="effect4_dropShadow"/>
<feColorMatrix in="SourceAlpha" type="matrix" values="0 0 0 0 0 0 0 0 0 0 0 0 0 0 0 0 0 0 127 0" result="hardAlpha"/>
<feOffset/>
<feGaussianBlur stdDeviation="1.5"/>
<feComposite in2="hardAlpha" operator="out"/>
<feColorMatrix type="matrix" values="0 0 0 0 0.937255 0 0 0 0 0.196078 0 0 0 0 0.552941 0 0 0 1 0"/>
<feBlend mode="normal" in2="effect4_dropShadow" result="effect5_dropShadow"/>
<feBlend mode="normal" in="SourceGraphic" in2="effect5_dropShadow" result="shape"/>
</filter>
<filter id="filter14_dddd" x="197.375" y="412.776" width="111.018" height="39.4817" filterUnits="userSpaceOnUse" color-interpolation-filters="sRGB">
<feFlood flood-opacity="0" result="BackgroundImageFix"/>
<feColorMatrix in="SourceAlpha" type="matrix" values="0 0 0 0 0 0 0 0 0 0 0 0 0 0 0 0 0 0 127 0" result="hardAlpha"/>
<feOffset/>
<feGaussianBlur stdDeviation="2"/>
<feComposite in2="hardAlpha" operator="out"/>
<feColorMatrix type="matrix" values="0 0 0 0 1 0 0 0 0 1 0 0 0 0 1 0 0 0 1 0"/>
<feBlend mode="normal" in2="BackgroundImageFix" result="effect1_dropShadow"/>
<feColorMatrix in="SourceAlpha" type="matrix" values="0 0 0 0 0 0 0 0 0 0 0 0 0 0 0 0 0 0 127 0" result="hardAlpha"/>
<feOffset/>
<feGaussianBlur stdDeviation="3"/>
<feComposite in2="hardAlpha" operator="out"/>
<feColorMatrix type="matrix" values="0 0 0 0 1 0 0 0 0 1 0 0 0 0 1 0 0 0 1 0"/>
<feBlend mode="normal" in2="effect1_dropShadow" result="effect2_dropShadow"/>
<feColorMatrix in="SourceAlpha" type="matrix" values="0 0 0 0 0 0 0 0 0 0 0 0 0 0 0 0 0 0 127 0" result="hardAlpha"/>
<feOffset/>
<feGaussianBlur stdDeviation="2"/>
<feComposite in2="hardAlpha" operator="out"/>
<feColorMatrix type="matrix" values="0 0 0 0 1 0 0 0 0 1 0 0 0 0 1 0 0 0 1 0"/>
<feBlend mode="normal" in2="effect2_dropShadow" result="effect3_dropShadow"/>
<feColorMatrix in="SourceAlpha" type="matrix" values="0 0 0 0 0 0 0 0 0 0 0 0 0 0 0 0 0 0 127 0" result="hardAlpha"/>
<feOffset/>
<feGaussianBlur stdDeviation="1.5"/>
<feComposite in2="hardAlpha" operator="out"/>
<feColorMatrix type="matrix" values="0 0 0 0 1 0 0 0 0 1 0 0 0 0 1 0 0 0 1 0"/>
<feBlend mode="normal" in2="effect3_dropShadow" result="effect4_dropShadow"/>
<feBlend mode="normal" in="SourceGraphic" in2="effect4_dropShadow" result="shape"/>
</filter>
<filter id="filter15_dddd" x="0.244141" y="126.369" width="37.8245" height="175.601" filterUnits="userSpaceOnUse" color-interpolation-filters="sRGB">
<feFlood flood-opacity="0" result="BackgroundImageFix"/>
<feColorMatrix in="SourceAlpha" type="matrix" values="0 0 0 0 0 0 0 0 0 0 0 0 0 0 0 0 0 0 127 0" result="hardAlpha"/>
<feOffset/>
<feGaussianBlur stdDeviation="2"/>
<feComposite in2="hardAlpha" operator="out"/>
<feColorMatrix type="matrix" values="0 0 0 0 1 0 0 0 0 1 0 0 0 0 1 0 0 0 1 0"/>
<feBlend mode="normal" in2="BackgroundImageFix" result="effect1_dropShadow"/>
<feColorMatrix in="SourceAlpha" type="matrix" values="0 0 0 0 0 0 0 0 0 0 0 0 0 0 0 0 0 0 127 0" result="hardAlpha"/>
<feOffset/>
<feGaussianBlur stdDeviation="3"/>
<feComposite in2="hardAlpha" operator="out"/>
<feColorMatrix type="matrix" values="0 0 0 0 1 0 0 0 0 1 0 0 0 0 1 0 0 0 1 0"/>
<feBlend mode="normal" in2="effect1_dropShadow" result="effect2_dropShadow"/>
<feColorMatrix in="SourceAlpha" type="matrix" values="0 0 0 0 0 0 0 0 0 0 0 0 0 0 0 0 0 0 127 0" result="hardAlpha"/>
<feOffset/>
<feGaussianBlur stdDeviation="2"/>
<feComposite in2="hardAlpha" operator="out"/>
<feColorMatrix type="matrix" values="0 0 0 0 1 0 0 0 0 1 0 0 0 0 1 0 0 0 1 0"/>
<feBlend mode="normal" in2="effect2_dropShadow" result="effect3_dropShadow"/>
<feColorMatrix in="SourceAlpha" type="matrix" values="0 0 0 0 0 0 0 0 0 0 0 0 0 0 0 0 0 0 127 0" result="hardAlpha"/>
<feOffset/>
<feGaussianBlur stdDeviation="1.5"/>
<feComposite in2="hardAlpha" operator="out"/>
<feColorMatrix type="matrix" values="0 0 0 0 1 0 0 0 0 1 0 0 0 0 1 0 0 0 1 0"/>
<feBlend mode="normal" in2="effect3_dropShadow" result="effect4_dropShadow"/>
<feBlend mode="normal" in="SourceGraphic" in2="effect4_dropShadow" result="shape"/>
</filter>
</defs>
</svg>
