<svg width="427" height="475" viewBox="0 0 427 475" fill="none" xmlns="http://www.w3.org/2000/svg">
<g filter="url(#filter0_dd)">
<path d="M310.76 387.559H277.598C271.928 387.548 266.493 385.29 262.484 381.277C258.475 377.265 256.218 371.826 256.208 366.152V359.183C256.194 355.544 257.122 351.963 258.901 348.788C253.289 347.983 248.154 345.181 244.438 340.896C240.721 336.611 238.672 331.13 238.665 325.456V317.294C238.658 312.079 240.391 307.012 243.589 302.895C238.793 300.716 234.855 297.006 232.394 292.346C232.006 291.69 231.756 290.963 231.658 290.208C231.56 289.453 231.617 288.686 231.824 287.953C232.031 287.221 232.385 286.538 232.864 285.946C233.342 285.355 233.936 284.867 234.609 284.512C235.282 284.157 236.02 283.942 236.778 283.881C237.537 283.82 238.3 283.914 239.021 284.157C239.742 284.4 240.406 284.787 240.973 285.294C241.54 285.802 241.998 286.419 242.319 287.109C243.37 289.117 244.953 290.796 246.893 291.964C248.834 293.132 251.058 293.743 253.322 293.732H262.325C263.729 293.848 265.038 294.489 265.993 295.527C266.947 296.564 267.477 297.923 267.477 299.333C267.477 300.744 266.947 302.103 265.993 303.14C265.038 304.178 263.729 304.819 262.325 304.935C259.049 304.935 255.908 306.237 253.592 308.555C251.276 310.873 249.975 314.016 249.975 317.294V325.341C249.985 328.612 251.291 331.746 253.606 334.055C255.921 336.364 259.056 337.661 262.325 337.661H277.713C279.203 337.661 280.632 338.253 281.685 339.308C282.738 340.362 283.33 341.792 283.33 343.282C283.33 344.773 282.738 346.203 281.685 347.257C280.632 348.311 279.203 348.904 277.713 348.904C276.358 348.888 275.014 349.143 273.758 349.654C272.503 350.165 271.362 350.921 270.402 351.878C269.442 352.835 268.682 353.974 268.167 355.228C267.652 356.483 267.393 357.827 267.403 359.183V366.267C267.413 368.967 268.492 371.552 270.402 373.457C272.313 375.362 274.901 376.432 277.598 376.432H310.76C313.458 376.432 316.045 375.362 317.956 373.457C319.867 371.552 320.945 368.967 320.955 366.267V359.183C320.945 356.484 319.867 353.899 317.956 351.994C316.045 350.089 313.458 349.019 310.76 349.019C309.271 349.019 307.842 348.427 306.789 347.373C305.735 346.318 305.144 344.889 305.144 343.398C305.144 341.907 305.735 340.477 306.789 339.423C307.842 338.369 309.271 337.777 310.76 337.777H322.071C325.34 337.777 328.475 336.48 330.79 334.171C333.105 331.861 334.41 328.727 334.42 325.456V317.294C334.42 314.016 333.119 310.873 330.803 308.555C328.487 306.237 325.346 304.935 322.071 304.935C321.297 305 320.518 304.903 319.783 304.65C319.049 304.398 318.374 303.996 317.803 303.469C317.231 302.943 316.775 302.303 316.463 301.592C316.151 300.88 315.99 300.111 315.99 299.333C315.99 298.556 316.151 297.787 316.463 297.075C316.775 296.363 317.231 295.724 317.803 295.198C318.374 294.671 319.049 294.269 319.783 294.017C320.518 293.764 321.297 293.667 322.071 293.732H331.035C334.31 293.732 337.451 292.429 339.767 290.112C342.083 287.794 343.384 284.651 343.384 281.373V273.326C343.385 270.098 342.12 266.999 339.861 264.695C337.602 262.391 334.529 261.066 331.304 261.006H304.374C302.881 260.965 301.464 260.335 300.433 259.253C299.403 258.171 298.842 256.725 298.873 255.231C298.873 253.74 299.464 252.31 300.518 251.256C301.571 250.202 303 249.609 304.49 249.609H331.42C334.648 249.539 337.72 248.206 339.978 245.896C342.236 243.586 343.501 240.482 343.5 237.251V229.358C343.49 226.087 342.184 222.953 339.869 220.644C337.554 218.334 334.419 217.038 331.15 217.038H281.291C279.801 217.038 278.373 216.445 277.319 215.391C276.266 214.337 275.674 212.907 275.674 211.416C275.674 209.926 276.266 208.496 277.319 207.442C278.373 206.388 279.801 205.795 281.291 205.795H331.035C337.283 205.795 343.276 208.277 347.697 212.694C352.119 217.112 354.608 223.105 354.618 229.358V237.405C354.596 240.803 353.838 244.156 352.397 247.234C350.956 250.311 348.865 253.039 346.27 255.231C348.888 257.428 350.993 260.173 352.435 263.273C353.878 266.373 354.623 269.752 354.618 273.172V281.219C354.609 285.761 353.29 290.204 350.819 294.015C348.349 297.826 344.832 300.842 340.691 302.702C343.931 306.873 345.678 312.011 345.654 317.294V325.341C345.649 330.379 344.033 335.283 341.042 339.335C338.052 343.388 333.844 346.376 329.034 347.864C331.098 351.236 332.19 355.114 332.189 359.068V366.152C332.179 371.833 329.917 377.278 325.899 381.291C321.882 385.304 316.437 387.559 310.76 387.559ZM50.9614 321.799C61.9576 321.923 72.5624 325.901 80.9308 333.041C89.5485 341.665 109.169 349.828 116.017 352.292C117.419 352.789 118.566 353.821 119.208 355.164C119.85 356.506 119.934 358.049 119.441 359.453C118.928 360.852 117.887 361.995 116.542 362.635C115.198 363.276 113.655 363.363 112.247 362.879C111.17 362.456 85.3166 353.177 73.1596 341.165C66.8643 336.075 59.0533 333.23 50.9614 333.08C49.4717 333.08 48.0431 332.487 46.9897 331.433C45.9363 330.379 45.3446 328.949 45.3446 327.458C45.3446 325.968 45.9363 324.538 46.9897 323.484C48.0431 322.43 49.4717 321.837 50.9614 321.837V321.799ZM115.632 308.246C113.978 308.246 112.324 308.246 110.592 308.246C109.106 308.167 107.71 307.503 106.709 306.401C105.708 305.298 105.182 303.844 105.245 302.356C105.265 301.623 105.429 300.901 105.728 300.231C106.027 299.561 106.455 298.957 106.987 298.453C107.519 297.949 108.146 297.554 108.83 297.293C109.515 297.031 110.245 296.907 110.977 296.927C167.877 299.545 183.419 252.921 183.573 252.459C183.848 251.623 184.315 250.864 184.936 250.242C185.558 249.62 186.316 249.153 187.151 248.878C187.983 248.594 188.87 248.512 189.74 248.64C190.61 248.767 191.436 249.099 192.152 249.609C215.62 266.165 252.245 267.936 267.095 261.853C270.705 260.537 273.888 258.261 276.302 255.269C278.715 252.277 280.267 248.683 280.791 244.874C280.791 238.329 276.097 237.174 267.557 232.938C249.783 224.083 212.696 205.68 193.153 205.68C181.88 205.68 157.99 212.725 134.83 219.54C109.592 227.009 85.6628 234.094 72.5055 234.094H40.4587C38.969 234.094 37.5403 233.501 36.4869 232.447C35.4336 231.393 34.8418 229.963 34.8418 228.472C34.8418 226.982 35.4336 225.552 36.4869 224.498C37.5403 223.443 38.969 222.851 40.4587 222.851H72.5055C84.047 222.851 108.361 215.69 131.829 208.798C156.874 201.406 180.457 194.438 193.383 194.438C215.543 194.438 252.784 212.918 272.789 222.89C280.983 226.932 292.679 230.59 292.256 245.22C291.909 256.309 283.407 267.435 271.558 272.171C255.169 278.87 218.352 277.869 191.652 262.353C184.726 276.503 173.872 288.357 160.391 296.495C146.909 304.634 131.37 308.714 115.632 308.246Z" fill="#059FDA"/>
</g>
<g filter="url(#filter1_dd)">
<path d="M234.278 418.822C233.658 418.297 233.161 417.642 232.822 416.904C232.483 416.165 232.31 415.361 232.316 414.548V375.316C232.316 373.825 232.908 372.395 233.961 371.341C235.015 370.287 236.444 369.695 237.933 369.695C239.423 369.695 240.852 370.287 241.905 371.341C242.958 372.395 243.55 373.825 243.55 375.316V408.042L304.489 398.917L304.027 397.685C303.734 396.984 303.585 396.23 303.591 395.47C303.597 394.709 303.756 393.958 304.061 393.261C304.365 392.564 304.807 391.936 305.361 391.416C305.915 390.895 306.568 390.492 307.282 390.231C307.996 389.971 308.755 389.858 309.514 389.899C310.272 389.94 311.015 390.135 311.696 390.472C312.377 390.809 312.983 391.281 313.477 391.859C313.971 392.437 314.342 393.109 314.569 393.835L317.416 401.535C317.741 402.328 317.88 403.185 317.823 404.04C317.766 404.895 317.515 405.726 317.088 406.469C316.661 407.212 316.07 407.848 315.36 408.327C314.65 408.807 313.84 409.117 312.991 409.235L238.741 420.362C237.93 420.45 237.109 420.358 236.338 420.091C235.566 419.825 234.863 419.392 234.278 418.822ZM214.081 405.616L126.135 379.551C125.312 379.293 124.558 378.855 123.926 378.269C123.294 377.683 122.8 376.963 122.48 376.163C122.178 375.352 122.066 374.482 122.153 373.621C122.24 372.76 122.523 371.931 122.98 371.196L165.299 303.819C166.126 302.641 167.374 301.825 168.785 301.54C170.195 301.256 171.661 301.524 172.881 302.289C174.1 303.055 174.978 304.259 175.336 305.655C175.693 307.05 175.502 308.529 174.801 309.787L136.407 370.734L211.003 392.911L219.813 309.633C220.006 308.17 220.751 306.835 221.895 305.905C223.04 304.974 224.498 304.517 225.969 304.628C226.703 304.7 227.415 304.917 228.065 305.266C228.715 305.616 229.289 306.091 229.754 306.664C230.219 307.236 230.566 307.896 230.775 308.604C230.983 309.312 231.05 310.054 230.97 310.788L221.429 400.803C221.343 401.622 221.079 402.412 220.655 403.117C220.231 403.822 219.658 404.425 218.975 404.884C218.293 405.343 217.518 405.647 216.706 405.773C215.893 405.9 215.063 405.846 214.273 405.616H214.081ZM249.821 199.867C249.11 199.663 248.447 199.321 247.869 198.86C247.291 198.399 246.809 197.829 246.452 197.181C246.095 196.534 245.868 195.822 245.786 195.087C245.704 194.352 245.768 193.608 245.974 192.898L272.904 100.496C273.108 99.7846 273.449 99.1208 273.91 98.5423C274.37 97.9638 274.94 97.4818 275.587 97.1242C276.234 96.7665 276.945 96.5401 277.68 96.458C278.414 96.3758 279.157 96.4395 279.867 96.6455L368.737 122.557C369.555 122.799 370.308 123.223 370.941 123.796C371.573 124.369 372.069 125.077 372.392 125.868C372.704 126.658 372.831 127.51 372.765 128.357C372.698 129.204 372.439 130.025 372.007 130.757L335.305 193.899C334.972 194.604 334.495 195.231 333.907 195.742C333.318 196.253 332.629 196.635 331.885 196.865C331.141 197.095 330.357 197.168 329.583 197.078C328.809 196.988 328.062 196.739 327.39 196.344C326.717 195.95 326.134 195.421 325.678 194.789C325.221 194.157 324.9 193.438 324.737 192.675C324.573 191.913 324.569 191.125 324.726 190.361C324.883 189.598 325.197 188.875 325.649 188.239L358.773 131.335L281.829 109.004L256.784 196.017C256.581 196.728 256.239 197.391 255.778 197.97C255.318 198.548 254.748 199.03 254.101 199.388C253.454 199.746 252.743 199.972 252.009 200.054C251.274 200.136 250.531 200.073 249.821 199.867ZM155.219 185.929L117.209 123.558C116.74 122.775 116.467 121.89 116.416 120.979C116.365 120.068 116.536 119.158 116.915 118.328C117.293 117.498 117.868 116.773 118.59 116.215C119.312 115.657 120.158 115.283 121.056 115.126L228.277 93.5269C229.059 93.372 229.864 93.3853 230.641 93.566C231.417 93.7468 232.146 94.0907 232.779 94.5751C233.412 95.0594 233.935 95.673 234.313 96.3752C234.691 97.0773 234.915 97.8519 234.971 98.6475L240.511 182.079C240.568 182.814 240.479 183.552 240.248 184.252C240.017 184.952 239.649 185.598 239.165 186.154C238.682 186.709 238.092 187.163 237.432 187.488C236.771 187.813 236.052 188.003 235.317 188.047C233.838 188.133 232.383 187.638 231.262 186.667C230.142 185.696 229.443 184.327 229.316 182.849L224.199 105.847L130.944 124.328L164.837 179.962C165.229 180.594 165.492 181.297 165.612 182.03C165.732 182.764 165.707 183.515 165.537 184.239C165.367 184.963 165.057 185.646 164.623 186.25C164.189 186.854 163.641 187.366 163.01 187.758C162.378 188.15 161.676 188.413 160.942 188.534C160.209 188.654 159.459 188.628 158.736 188.458C158.013 188.289 157.33 187.978 156.726 187.544C156.123 187.11 155.611 186.561 155.219 185.929ZM328.111 99.687C326.668 99.339 325.42 98.4376 324.636 97.1772C323.851 95.9169 323.593 94.3984 323.917 92.9494L327.764 77.164L227.931 66.8072L226.699 82.2076C226.659 82.9566 226.47 83.69 226.142 84.3645C225.814 85.039 225.355 85.6411 224.791 86.1352C224.227 86.6293 223.57 87.0054 222.858 87.2414C222.147 87.4775 221.395 87.5686 220.648 87.5095C219.901 87.4504 219.173 87.2423 218.508 86.8973C217.842 86.5524 217.252 86.0776 216.773 85.501C216.293 84.9244 215.934 84.2576 215.716 83.5399C215.499 82.8222 215.426 82.0681 215.504 81.3221L217.197 60.031C217.334 58.535 218.053 57.1526 219.198 56.1809C219.78 55.724 220.447 55.3867 221.16 55.1885C221.873 54.9902 222.618 54.935 223.352 55.0259L335.113 66.5762C335.906 66.6534 336.674 66.8999 337.364 67.2991C338.054 67.6982 338.651 68.2408 339.114 68.8902C339.577 69.5396 339.895 70.2808 340.048 71.0638C340.2 71.8468 340.184 72.6534 339.998 73.4294L334.843 95.4134C334.684 96.1378 334.383 96.8235 333.958 97.4309C333.533 98.0384 332.992 98.5557 332.366 98.9529C331.74 99.3502 331.042 99.6196 330.312 99.7456C329.581 99.8716 328.833 99.8517 328.111 99.687Z" fill="#B92146"/>
</g>
<g filter="url(#filter2_dd)">
<path d="M174.469 155.954L174.469 155.954L190.767 161.976L190.94 161.506L190.767 161.976C191.123 162.107 191.5 162.13 191.856 162.054C192.22 161.977 192.563 161.796 192.837 161.522L204.899 149.473C205.658 148.715 205.668 147.486 204.921 146.715L185.823 127.019C185.352 126.533 184.665 126.324 184.004 126.464L184.004 126.465L184.004 126.465L184.004 126.465L184.004 126.465L184.004 126.465L184.004 126.465L184.004 126.465L184.004 126.465L184.004 126.465L184.004 126.465L184.003 126.465L184.003 126.465L184.003 126.465L184.003 126.465L184.003 126.465L184.003 126.465L184.003 126.465L184.003 126.465L184.003 126.465L184.003 126.465L184.003 126.465L184.003 126.465L184.003 126.465L184.003 126.465L184.003 126.465L184.003 126.465L184.003 126.465L184.003 126.465L184.003 126.465L184.003 126.465L184.003 126.465L184.003 126.465L184.003 126.465L184.003 126.465L184.003 126.465L184.003 126.465L184.003 126.465L184.003 126.465L184.003 126.465L184.003 126.465L184.003 126.465L184.003 126.465L184.003 126.465L184.003 126.465L184.003 126.465L184.003 126.465L184.003 126.465L184.003 126.465L184.003 126.465L184.003 126.465L184.003 126.465L184.003 126.465L184.003 126.465L184.003 126.465L184.003 126.465L184.003 126.465L184.003 126.465L184.003 126.465L184.003 126.465L184.003 126.465L184.003 126.465L184.003 126.465L184.003 126.465L184.003 126.465L184.003 126.465L184.003 126.465L184.003 126.465L184.003 126.465L184.003 126.465L184.003 126.465L184.003 126.465L184.003 126.465L184.003 126.465L184.003 126.465L184.003 126.465L184.003 126.465L184.003 126.465L184.003 126.465L184.003 126.465L184.003 126.465L184.003 126.465L184.003 126.465L184.003 126.465L184.003 126.465L184.003 126.465L184.003 126.465L184.003 126.465L184.003 126.465L184.003 126.465L184.003 126.465L184.003 126.465L184.003 126.465L184.003 126.465L184.003 126.465L184.003 126.465L184.003 126.465L184.003 126.465L184.003 126.465L184.003 126.465L184.003 126.465L184.003 126.465L184.003 126.465L184.003 126.465L184.003 126.465L184.003 126.465L184.003 126.465L184.003 126.465L184.003 126.465L184.003 126.465L184.003 126.465L184.003 126.465L184.003 126.465L184.003 126.465L184.003 126.465L184.003 126.465L184.003 126.465L184.003 126.465L184.003 126.465L184.003 126.465L184.003 126.465L184.003 126.465L184.003 126.465L184.003 126.465L184.003 126.465L184.003 126.465L184.003 126.465L184.003 126.465L184.003 126.465L184.003 126.465L184.003 126.465L184.003 126.465L184.003 126.465L184.003 126.465L184.003 126.465L184.003 126.465L184.003 126.465L184.003 126.465L184.002 126.465L184.002 126.465L184.002 126.465L184.002 126.465L184.002 126.465L184.002 126.465L184.002 126.465L184.002 126.465L184.002 126.465L184.002 126.465L184.002 126.465L184.002 126.465L184.002 126.465L184.002 126.465L184.002 126.465L184.002 126.465L184.002 126.465L184.002 126.465L184.002 126.465L184.002 126.465L184.002 126.465L184.002 126.465L184.002 126.465L184.002 126.465L184.002 126.465L184.002 126.465L184.002 126.465L184.002 126.465L184.002 126.465L184.002 126.465L184.002 126.465L184.002 126.465L184.002 126.465L184.002 126.465L184.002 126.465L184.002 126.465L184.002 126.465L184.002 126.465L184.002 126.465L184.002 126.465L184.002 126.465L184.002 126.465L184.002 126.465L184.002 126.465L184.002 126.465L184.002 126.465L184.002 126.465L184.002 126.465L184.002 126.465L184.002 126.465L184.002 126.465L184.002 126.465L184.002 126.465L184.002 126.465L184.002 126.465L184.002 126.465L184.002 126.465L184.002 126.465L184.002 126.465L184.002 126.465L184.002 126.465L184.002 126.465L184.002 126.465L184.002 126.465L184.002 126.465L184.002 126.465L184.002 126.465L184.002 126.465L184.002 126.465L184.002 126.465L184.002 126.465L184.002 126.465L184.002 126.465L184.002 126.465L184.002 126.465L184.002 126.465L184.002 126.465L184.002 126.465L184.002 126.465L184.002 126.465L184.002 126.465L184.002 126.465L184.002 126.465L184.002 126.465L184.002 126.465L184.002 126.465L184.002 126.465L184.002 126.465L184.002 126.465L184.002 126.465L184.002 126.465L184.002 126.465L184.002 126.465L184.002 126.465L184.002 126.465L184.002 126.465L184.002 126.465L184.002 126.465L184.002 126.465L184.002 126.465L184.002 126.465L184.002 126.465L184.002 126.465L184.002 126.465L184.002 126.465L184.002 126.465L184.002 126.465L184.002 126.465L184.002 126.465L184.002 126.465L184.002 126.465L184.002 126.465L184.002 126.465L184.002 126.465L184.002 126.465L184.002 126.465L184.002 126.465L184.002 126.465L184.002 126.465L184.002 126.465L184.002 126.465L184.002 126.465L184.002 126.465L184.002 126.465L184.002 126.465L184.002 126.465L184.002 126.465L184.002 126.465L184.001 126.465L184.001 126.465L184.001 126.465L184.001 126.465L184.001 126.465L184.001 126.465L184.001 126.465L184.001 126.465L184.001 126.465L184.001 126.465L184.001 126.465L184.001 126.465L184.001 126.465L184.001 126.465L184.001 126.465L184.001 126.465L184.001 126.465L184.001 126.465L184.001 126.465L184.001 126.465L184.001 126.465L184.001 126.465L184.001 126.465L184.001 126.465L184.001 126.465L184.001 126.465L184.001 126.465L184.001 126.465L184.001 126.465L184.001 126.465L184.001 126.465L184.001 126.465L184.001 126.465L184.001 126.465L184.001 126.465L184.001 126.465L184.001 126.465L184.001 126.465L184.001 126.465L184.001 126.465L184.001 126.465L184.001 126.465L184.001 126.465L184.001 126.465L184.001 126.465L184.001 126.465L184.001 126.465L184.001 126.465L184.001 126.465L184.001 126.465L184.001 126.465L184.001 126.465L184.001 126.465L184.001 126.465L184.001 126.465L184.001 126.465L184.001 126.465L184.001 126.465L184.001 126.465L184.001 126.465L184.001 126.465L184.001 126.465L184.001 126.465L184.001 126.465L184.001 126.465L184.001 126.465L184.001 126.465L184.001 126.465L184.001 126.465L184.001 126.465L184.001 126.465L184.001 126.465L184.001 126.465L184.001 126.465L184.001 126.465L184.001 126.465L184.001 126.465L184.001 126.465L184.001 126.465L184.001 126.465L184.001 126.465L184.001 126.465L184.001 126.465L184.001 126.465L184.001 126.465L184.001 126.465L184.001 126.465L184.001 126.465L184.001 126.465L184.001 126.465L184.001 126.465L184.001 126.465L184.001 126.465L184.001 126.465L184.001 126.465L184.001 126.465L184.001 126.465L184.001 126.465L184.001 126.465L184.001 126.465L184.001 126.465L184.001 126.465L184.001 126.465L184.001 126.465L184.001 126.465L184.001 126.465L184.001 126.465L184.001 126.465L184.001 126.465L184.001 126.465L184.001 126.465L184.001 126.465L184.001 126.465L184.001 126.465L184.001 126.465L184.001 126.465L184.001 126.465L184.001 126.465L184.001 126.465L184.001 126.465L184.001 126.465L184.001 126.465L184.001 126.465L184.001 126.465L184.001 126.465L184.001 126.465L184.001 126.465L184.001 126.465L184 126.465L184 126.465L184 126.465L184 126.465L184 126.465L184 126.465L184 126.465L184 126.465L184 126.465L184 126.465L184 126.465L184 126.465L184 126.465L184 126.465L184 126.465L184 126.465L184 126.465L184 126.465L184 126.465L184 126.465L184 126.465L184 126.465L184 126.465L184 126.465L184 126.465L184 126.465L184 126.465L184 126.465L184 126.465L184 126.465L184 126.465L184 126.465L184 126.465L184 126.465L184 126.465L184 126.465L184 126.465L184 126.465L184 126.465L184 126.465L184 126.465L184 126.465L184 126.465L184 126.465L184 126.465L184 126.465L184 126.465L184 126.465L184 126.465L184 126.465L184 126.465L184 126.465L184 126.465L184 126.465L184 126.465L184 126.465L184 126.465L184 126.465L184 126.465L184 126.465L184 126.465L184 126.465L184 126.465L184 126.465L184 126.465L184 126.465L184 126.465L184 126.465L184 126.465L184 126.465L184 126.465L184 126.465L184 126.465L184 126.465L184 126.465L184 126.465L184 126.465L184 126.465L184 126.465L184 126.465L184 126.465L184 126.465L184 126.465L184 126.465L184 126.465L184 126.465L184 126.465L184 126.465L184 126.465L184 126.465L184 126.465L184 126.465L184 126.465L184 126.465L184 126.465L184 126.465L184 126.465L184 126.465L184 126.465L184 126.465L184 126.465L184 126.465L184 126.465L184 126.465L184 126.465L184 126.465L184 126.465L184 126.465L184 126.465L184 126.465L184 126.465L184 126.465L184 126.465L184 126.465L184 126.465L184 126.465L184 126.465L184 126.465L184 126.465L183.998 126.466C183.335 126.608 182.793 127.083 182.563 127.72L182.563 127.721L173.301 153.446L173.3 153.446C172.936 154.461 173.457 155.581 174.469 155.954ZM177.658 152.944L185.194 132.015L200.752 148.061L190.949 157.853L177.658 152.944Z" stroke="#BBBDBF" shape-rendering="crispEdges"/>
</g>
<g filter="url(#filter3_dd)">
<path d="M175.068 160.825L175.068 160.825C175.549 160.023 176.529 159.671 177.411 159.985C177.411 159.985 177.411 159.985 177.411 159.985L192.438 165.327L203.825 154.376C203.825 154.376 203.826 154.376 203.826 154.376C204.491 153.736 205.512 153.646 206.279 154.158C207.046 154.671 207.354 155.648 207.018 156.508L197.799 180.082C197.799 180.082 197.799 180.082 197.799 180.082C197.563 180.685 197.046 181.132 196.416 181.28C196.401 181.283 196.387 181.286 196.379 181.288L196.378 181.288C195.759 181.42 195.113 181.245 194.645 180.818L175.068 160.825ZM175.068 160.825C174.586 161.627 174.737 162.657 175.428 163.288C175.428 163.288 175.428 163.288 175.428 163.288L194.645 180.818L175.068 160.825ZM192.266 169.436L192.266 169.436C192.968 169.685 193.75 169.517 194.286 169.001L194.286 169.001L200.098 163.413L195.18 175.987L185.275 166.951L192.266 169.436Z" stroke="#BBBDBF" shape-rendering="crispEdges"/>
</g>
<g filter="url(#filter4_dddd)">
<path d="M174.642 155.485L190.94 161.506C191.205 161.604 191.487 161.622 191.752 161.565C192.024 161.508 192.279 161.373 192.483 161.169L204.545 149.12C205.111 148.554 205.119 147.638 204.562 147.064L185.464 127.367C185.113 127.005 184.601 126.849 184.108 126.954C184.106 126.954 184.105 126.954 184.104 126.954C183.609 127.061 183.205 127.415 183.034 127.89L173.771 153.615C173.499 154.372 173.888 155.207 174.642 155.485ZM184.995 131.092L201.454 148.067L191.076 158.433L177.02 153.241L184.995 131.092Z" fill="white"/>
</g>
<g filter="url(#filter5_dddd)">
<path d="M175.765 162.918L194.982 180.448C195.331 180.767 195.812 180.897 196.274 180.799C196.283 180.797 196.292 180.795 196.302 180.793C196.772 180.683 197.158 180.349 197.333 179.9L206.552 156.326C206.802 155.685 206.573 154.956 206.001 154.574C205.429 154.192 204.668 154.259 204.172 154.736L192.562 165.901L177.243 160.456C176.586 160.222 175.855 160.484 175.497 161.082C175.138 161.68 175.25 162.448 175.765 162.918ZM192.434 168.965C192.957 169.151 193.54 169.025 193.94 168.641L201.393 161.474L195.381 176.847L183.106 165.649L192.434 168.965Z" fill="white"/>
</g>
<g filter="url(#filter6_dddd)">
<path d="M253.823 128.177C252.534 126.054 251.992 123.56 252.284 121.093C252.347 120.808 252.51 120.555 252.742 120.379C252.975 120.203 253.262 120.115 253.553 120.131C253.7 120.15 253.842 120.198 253.971 120.272C254.099 120.346 254.211 120.446 254.301 120.564C254.39 120.682 254.455 120.817 254.492 120.961C254.529 121.105 254.537 121.255 254.515 121.401C254.298 123.359 254.73 125.335 255.746 127.022C255.823 127.149 255.874 127.289 255.896 127.435C255.918 127.581 255.911 127.73 255.875 127.873C255.839 128.016 255.775 128.151 255.687 128.269C255.599 128.388 255.488 128.487 255.362 128.562C255.104 128.707 254.802 128.748 254.516 128.676C254.229 128.605 253.981 128.426 253.823 128.177Z" fill="white"/>
</g>
<g filter="url(#filter7_dddd)">
<path d="M259.285 108.273C258.166 107.348 257.293 106.162 256.743 104.819C256.192 103.475 255.982 102.017 256.13 100.573C256.47 98.6545 257.343 96.8713 258.65 95.4275C259.956 93.9837 261.643 92.938 263.517 92.4103C263.656 92.3618 263.803 92.3412 263.95 92.3498C264.097 92.3584 264.24 92.396 264.373 92.4604C264.505 92.5248 264.623 92.6148 264.721 92.7251C264.818 92.8355 264.893 92.964 264.94 93.1033C264.995 93.2446 265.02 93.3955 265.015 93.5468C265.009 93.6981 264.973 93.8467 264.908 93.9836C264.843 94.1204 264.751 94.2427 264.638 94.3429C264.524 94.4431 264.392 94.5191 264.248 94.5664C262.769 94.9502 261.429 95.748 260.387 96.8663C259.344 97.9846 258.642 99.3771 258.362 100.881C258.251 101.964 258.415 103.057 258.838 104.06C259.262 105.063 259.932 105.942 260.785 106.617C261.005 106.816 261.136 107.094 261.151 107.39C261.165 107.687 261.061 107.976 260.862 108.196C260.663 108.415 260.385 108.547 260.09 108.561C259.794 108.576 259.504 108.472 259.285 108.273Z" fill="white"/>
</g>
<g filter="url(#filter8_ddddd)">
<path d="M159.028 183.465L121.056 121.093C120.972 120.94 120.928 120.768 120.928 120.593C120.928 120.418 120.972 120.245 121.056 120.092C121.125 119.924 121.235 119.775 121.376 119.661C121.517 119.546 121.685 119.47 121.864 119.438L229.238 98.0695C229.394 98.0479 229.552 98.0571 229.704 98.0968C229.856 98.1364 229.998 98.2056 230.123 98.3005C230.252 98.3958 230.36 98.5169 230.439 98.6561C230.519 98.7953 230.568 98.9496 230.585 99.109L236.125 182.502C236.135 182.649 236.117 182.796 236.07 182.936C236.024 183.075 235.95 183.204 235.853 183.315C235.757 183.426 235.639 183.517 235.508 183.582C235.376 183.647 235.233 183.686 235.086 183.696C234.803 183.696 234.53 183.589 234.323 183.396C234.116 183.203 233.99 182.939 233.97 182.656L228.354 100.534L123.788 121.324L160.99 182.31C161.143 182.565 161.188 182.871 161.116 183.159C161.044 183.448 160.86 183.697 160.605 183.85C160.35 184.003 160.045 184.048 159.756 183.976C159.467 183.904 159.219 183.72 159.066 183.465H159.028Z" fill="#F858A5"/>
</g>
<g filter="url(#filter9_ddddd)">
<path d="M215.351 401.304L127.443 375.238C127.275 375.192 127.119 375.11 126.986 374.997C126.853 374.884 126.746 374.743 126.674 374.584C126.599 374.428 126.56 374.257 126.56 374.083C126.56 373.91 126.599 373.739 126.674 373.583L168.992 306.206C169.071 306.08 169.173 305.97 169.294 305.883C169.414 305.796 169.551 305.734 169.696 305.7C169.84 305.666 169.99 305.661 170.137 305.685C170.284 305.709 170.424 305.762 170.55 305.84C170.677 305.919 170.786 306.021 170.873 306.142C170.96 306.263 171.022 306.4 171.056 306.544C171.09 306.689 171.095 306.839 171.071 306.986C171.047 307.133 170.994 307.273 170.916 307.4L129.482 373.506L214.851 398.763L224.238 310.21C224.253 310.064 224.297 309.921 224.367 309.792C224.437 309.662 224.532 309.548 224.646 309.455C224.76 309.362 224.892 309.292 225.033 309.25C225.174 309.208 225.322 309.194 225.469 309.209C225.615 309.224 225.757 309.268 225.887 309.338C226.016 309.409 226.131 309.504 226.224 309.618C226.317 309.732 226.386 309.864 226.428 310.005C226.47 310.146 226.484 310.295 226.469 310.441L216.774 400.341C216.761 400.506 216.709 400.665 216.622 400.806C216.535 400.947 216.416 401.064 216.274 401.15C216.139 401.238 215.988 401.298 215.829 401.325C215.67 401.351 215.507 401.344 215.351 401.304Z" fill="#F858A5"/>
</g>
<g filter="url(#filter10_ddddd)">
<path d="M251.052 195.554C250.77 195.457 250.536 195.255 250.4 194.989C250.264 194.723 250.236 194.415 250.321 194.129L277.252 101.727C277.287 101.582 277.351 101.446 277.441 101.328C277.532 101.209 277.645 101.111 277.775 101.038C277.906 100.966 278.049 100.921 278.197 100.907C278.346 100.893 278.495 100.91 278.637 100.957L367.698 126.83C367.854 126.883 367.996 126.969 368.115 127.082C368.235 127.195 368.329 127.332 368.391 127.484C368.466 127.64 368.505 127.811 368.505 127.985C368.505 128.158 368.466 128.329 368.391 128.485L331.65 191.627C331.486 191.869 331.238 192.042 330.954 192.113C330.671 192.184 330.371 192.148 330.112 192.012C329.982 191.94 329.867 191.843 329.775 191.726C329.683 191.609 329.615 191.475 329.576 191.331C329.537 191.188 329.526 191.038 329.546 190.89C329.565 190.743 329.613 190.6 329.688 190.472L365.698 128.601L279.137 103.421L252.476 194.784C252.379 195.068 252.178 195.305 251.915 195.448C251.651 195.59 251.343 195.628 251.052 195.554Z" fill="#F858A5"/>
</g>
<g filter="url(#filter11_ddddd)">
<path d="M329.15 95.2977C329.002 95.271 328.862 95.2139 328.738 95.13C328.614 95.0462 328.509 94.9374 328.43 94.8106C328.35 94.6838 328.298 94.5418 328.276 94.3937C328.254 94.2455 328.264 94.0945 328.303 93.9501L333.151 73.2366L223.814 61.8788L222.199 81.9763C222.189 82.1231 222.15 82.2664 222.085 82.3982C222.02 82.53 221.929 82.6475 221.818 82.7441C221.707 82.8407 221.578 82.9144 221.439 82.9611C221.3 83.0077 221.152 83.0263 221.006 83.0159C220.71 82.9776 220.44 82.8299 220.247 82.6018C220.055 82.3738 219.955 82.082 219.967 81.7838L221.66 60.4928C221.684 60.1961 221.822 59.9202 222.045 59.7227C222.16 59.6222 222.294 59.5464 222.44 59.5001C222.585 59.4537 222.739 59.4378 222.891 59.4532L334.651 71.0035C334.812 71.0152 334.968 71.0628 335.108 71.1427C335.247 71.2227 335.367 71.333 335.459 71.4656C335.557 71.5962 335.624 71.7466 335.658 71.9062C335.691 72.0659 335.689 72.2308 335.651 72.3896L330.496 94.3736C330.473 94.5252 330.42 94.6705 330.339 94.8004C330.257 94.9304 330.15 95.0421 330.024 95.1288C329.897 95.2155 329.755 95.2752 329.604 95.3043C329.454 95.3333 329.299 95.3311 329.15 95.2977Z" fill="#F858A5"/>
</g>
<g filter="url(#filter12_ddddd)">
<path d="M237.202 415.433C237.076 415.324 236.976 415.188 236.909 415.034C236.843 414.881 236.811 414.715 236.818 414.548V375.315C236.818 375.019 236.935 374.735 237.144 374.526C237.354 374.316 237.637 374.199 237.933 374.199C238.229 374.199 238.513 374.316 238.722 374.526C238.931 374.735 239.049 375.019 239.049 375.315V413.085L310.645 402.42L308.259 395.952C308.196 395.686 308.232 395.407 308.36 395.166C308.489 394.925 308.701 394.74 308.957 394.645C309.213 394.55 309.495 394.552 309.749 394.651C310.003 394.75 310.212 394.939 310.337 395.182L313.222 402.882C313.289 403.034 313.324 403.198 313.324 403.363C313.324 403.529 313.289 403.693 313.222 403.844C313.139 403.991 313.023 404.117 312.882 404.21C312.742 404.304 312.582 404.363 312.414 404.383L237.933 415.664C237.669 415.683 237.408 415.601 237.202 415.433Z" fill="#F858A5"/>
</g>
<g filter="url(#filter13_dddd)">
<path d="M115.632 303.781C114.016 303.781 112.439 303.781 110.785 303.781C110.485 303.761 110.206 303.625 110.004 303.402C109.803 303.18 109.697 302.887 109.708 302.587C109.727 302.267 109.871 301.967 110.108 301.752C110.345 301.536 110.657 301.421 110.977 301.432C170.916 304.243 187.92 254.345 187.92 253.845C187.977 253.674 188.073 253.52 188.199 253.393C188.326 253.266 188.481 253.17 188.651 253.113C188.808 253.041 188.979 253.003 189.151 253.003C189.324 253.003 189.495 253.041 189.652 253.113C214.35 270.516 253.053 272.364 268.865 265.857C278.175 262.007 285.138 253.229 285.369 244.874C285.638 235.056 277.675 232.823 269.634 228.742C250.167 219.232 213.85 201.329 193.268 201.329C181.38 201.329 157.143 208.337 133.675 215.228C110.208 222.12 85.0087 229.589 72.5055 229.589H40.4586C40.1627 229.589 39.8789 229.472 39.6697 229.262C39.4604 229.053 39.3429 228.769 39.3429 228.473C39.3429 228.177 39.4604 227.893 39.6697 227.683C39.8789 227.474 40.1627 227.356 40.4586 227.356H72.5055C84.7394 227.356 109.361 220.079 133.098 213.072C157.797 205.796 181.111 198.942 193.345 198.942C214.466 198.942 251.052 217.115 270.75 226.894C279.06 231.014 288.062 233.747 287.716 245.105C287.447 254.307 280.021 263.971 269.827 268.206C253.322 274.789 215.274 273.288 189.575 255.924C183.547 270.459 173.248 282.819 160.044 291.365C146.839 299.912 131.351 304.241 115.632 303.781Z" fill="#44D3F2"/>
</g>
<g filter="url(#filter14_dddd)">
<path d="M113.747 358.567C112.708 358.221 87.5859 349.212 76.3137 337.969C69.2132 331.956 60.261 328.57 50.9609 328.383C50.9609 328.383 49.6144 328.383 49.6144 327.228C49.6144 326.072 50.9609 326.15 50.9609 326.15C60.8341 326.252 70.3606 329.807 77.891 336.198C88.817 347.133 114.247 356.219 114.516 356.334C114.669 356.371 114.813 356.44 114.938 356.536C115.063 356.633 115.166 356.755 115.24 356.894C115.315 357.033 115.359 357.187 115.369 357.344C115.38 357.502 115.357 357.66 115.303 357.808C115.248 357.956 115.162 358.091 115.052 358.203C114.941 358.316 114.808 358.404 114.661 358.461C114.514 358.518 114.356 358.543 114.199 358.535C114.041 358.527 113.887 358.486 113.747 358.413V358.567Z" fill="#44D3F2"/>
</g>
<g filter="url(#filter15_dddd)">
<path d="M331.035 256.502H304.49C304.326 256.509 304.163 256.48 304.012 256.417C303.86 256.354 303.725 256.259 303.615 256.137C303.505 256.016 303.423 255.872 303.374 255.715C303.326 255.559 303.313 255.394 303.335 255.231C303.33 255.083 303.355 254.936 303.409 254.798C303.464 254.66 303.546 254.534 303.65 254.43C303.755 254.325 303.88 254.243 304.018 254.189C304.156 254.134 304.303 254.109 304.451 254.115H330.997C335.463 254.104 339.743 252.325 342.901 249.164C346.058 246.004 347.837 241.721 347.847 237.251V229.359C347.837 224.893 346.057 220.613 342.898 217.459C339.739 214.305 335.459 212.534 330.997 212.534H281.291C280.995 212.534 280.712 212.416 280.502 212.207C280.293 211.997 280.176 211.713 280.176 211.417C280.176 211.121 280.293 210.837 280.502 210.628C280.712 210.418 280.995 210.301 281.291 210.301H331.035C333.561 210.301 336.062 210.798 338.396 211.766C340.73 212.733 342.851 214.151 344.637 215.939C346.423 217.726 347.84 219.849 348.807 222.184C349.773 224.52 350.271 227.023 350.271 229.551V237.598C350.18 242.643 348.114 247.451 344.516 250.986C340.918 254.522 336.077 256.503 331.035 256.502Z" fill="#44D3F2"/>
</g>
<g filter="url(#filter16_dddd)">
<path d="M310.76 383.054H277.598C273.115 383.054 268.815 381.275 265.642 378.106C262.468 374.937 260.68 370.638 260.67 366.152V359.183C260.674 356.206 261.462 353.283 262.955 350.708C264.448 348.132 266.592 345.996 269.172 344.515H262.247C257.146 344.515 252.253 342.486 248.646 338.876C245.038 335.266 243.012 330.37 243.012 325.264V317.294C243.046 313.813 244.023 310.407 245.838 307.437C247.654 304.467 250.24 302.046 253.322 300.431C249.843 300.444 246.426 299.5 243.448 297.7C240.469 295.9 238.042 293.316 236.433 290.228C236.365 290.097 236.323 289.953 236.31 289.806C236.298 289.658 236.314 289.509 236.359 289.368C236.449 289.083 236.649 288.845 236.914 288.707C237.179 288.57 237.488 288.543 237.773 288.633C238.058 288.723 238.296 288.923 238.433 289.189C239.858 291.906 241.998 294.183 244.623 295.771C247.247 297.359 250.255 298.198 253.322 298.198H262.324C262.62 298.198 262.904 298.316 263.113 298.525C263.322 298.734 263.44 299.018 263.44 299.314C263.44 299.611 263.322 299.895 263.113 300.104C262.904 300.313 262.62 300.431 262.324 300.431C257.858 300.441 253.578 302.221 250.42 305.381C247.263 308.542 245.484 312.825 245.474 317.294V325.341C245.484 329.807 247.264 334.086 250.423 337.24C253.582 340.395 257.862 342.166 262.324 342.166H277.713C278.009 342.166 278.293 342.284 278.502 342.493C278.711 342.702 278.829 342.986 278.829 343.283C278.829 343.579 278.711 343.863 278.502 344.072C278.293 344.281 278.009 344.399 277.713 344.399C275.77 344.389 273.844 344.764 272.048 345.504C270.251 346.243 268.618 347.332 267.244 348.707C265.87 350.081 264.782 351.715 264.044 353.514C263.305 355.312 262.93 357.239 262.94 359.183V366.268C262.95 370.155 264.498 373.88 267.244 376.629C269.991 379.378 273.713 380.926 277.598 380.937H310.76C312.685 380.937 314.591 380.557 316.369 379.82C318.148 379.083 319.764 378.002 321.125 376.64C322.486 375.278 323.565 373.661 324.302 371.881C325.039 370.102 325.418 368.194 325.418 366.268V359.183C325.418 357.257 325.039 355.35 324.302 353.57C323.565 351.79 322.486 350.173 321.125 348.811C319.764 347.449 318.148 346.368 316.369 345.631C314.591 344.894 312.685 344.515 310.76 344.515C310.614 344.515 310.469 344.486 310.333 344.43C310.198 344.373 310.075 344.291 309.971 344.188C309.868 344.084 309.785 343.961 309.729 343.825C309.673 343.69 309.644 343.545 309.644 343.398C309.644 343.251 309.673 343.106 309.729 342.971C309.785 342.835 309.868 342.712 309.971 342.609C310.075 342.505 310.198 342.423 310.333 342.367C310.469 342.31 310.614 342.282 310.76 342.282H322.071C324.279 342.282 326.465 341.846 328.505 341.001C330.544 340.155 332.398 338.916 333.959 337.354C335.52 335.791 336.758 333.937 337.603 331.895C338.448 329.854 338.883 327.666 338.883 325.457V317.294C338.883 312.829 337.113 308.545 333.961 305.384C330.809 302.222 326.533 300.441 322.071 300.431C321.775 300.431 321.491 300.313 321.282 300.104C321.073 299.895 320.955 299.611 320.955 299.314C320.955 299.018 321.073 298.734 321.282 298.525C321.491 298.316 321.775 298.198 322.071 298.198H331.035C335.497 298.198 339.777 296.427 342.936 293.272C346.095 290.118 347.875 285.839 347.885 281.373V273.326C347.875 268.86 346.095 264.581 342.936 261.427C339.777 258.273 335.497 256.501 331.035 256.501H304.489C304.224 256.452 303.984 256.312 303.812 256.104C303.639 255.897 303.545 255.635 303.545 255.366C303.545 255.096 303.639 254.834 303.812 254.627C303.984 254.419 304.224 254.279 304.489 254.23H331.035C336.136 254.23 341.029 256.258 344.636 259.868C348.244 263.478 350.271 268.375 350.271 273.48V281.527C350.22 286.599 348.171 291.446 344.569 295.015C340.967 298.583 336.103 300.585 331.035 300.585C334.08 302.226 336.628 304.658 338.408 307.626C340.189 310.593 341.137 313.987 341.153 317.448V325.495C341.153 330.601 339.126 335.497 335.519 339.107C331.911 342.717 327.019 344.746 321.917 344.746H319.032C321.607 346.188 323.76 348.28 325.279 350.812C326.797 353.345 327.628 356.231 327.688 359.183V366.268C327.647 370.734 325.846 375.003 322.676 378.147C319.506 381.291 315.223 383.054 310.76 383.054Z" fill="#44D3F2"/>
</g>
<g filter="url(#filter17_dd)">
<path d="M320.21 155.469L320.21 155.469C319.408 157.462 318.131 159.176 316.473 160.497C318.452 163.97 318.827 168.137 317.444 171.937C315.077 178.441 308.196 182.085 301.594 180.605L300.705 183.049C299.976 185.051 297.756 186.086 295.755 185.357C293.754 184.629 292.718 182.409 293.447 180.408L294.26 178.174L293.375 177.85L292.51 180.226C291.782 182.227 289.562 183.262 287.561 182.534C285.559 181.805 284.524 179.585 285.252 177.584L286.118 175.206L283.569 174.278C281.18 173.409 279.945 170.76 280.814 168.371C281.684 165.983 284.333 164.747 286.722 165.617L287.889 166.042L296.286 142.972L295.118 142.547C292.73 141.678 291.494 139.029 292.364 136.64C293.233 134.252 295.882 133.016 298.271 133.885L300.82 134.813L301.605 132.655C302.334 130.654 304.553 129.618 306.555 130.347C308.556 131.075 309.592 133.295 308.863 135.297L308.078 137.455L308.963 137.777L309.8 135.479C310.528 133.477 312.748 132.442 314.749 133.17C316.751 133.899 317.786 136.119 317.058 138.12L316.051 140.886C318.808 142.913 320.636 146.038 321.026 149.484M320.21 155.469L320.529 149.54M320.21 155.469C320.543 154.639 320.142 153.696 319.312 153.362C318.475 153.019 317.535 153.435 317.202 154.26L317.202 154.26C316.457 156.115 315.154 157.639 313.432 158.67C312.613 159.139 312.385 160.285 312.96 161.033C315.062 163.87 315.598 167.531 314.398 170.829C312.451 176.178 306.495 178.994 301.125 177.104L301.125 177.104C300.287 176.809 299.368 177.244 299.065 178.079L297.659 181.941C297.542 182.262 297.185 182.428 296.864 182.312C296.542 182.195 296.376 181.837 296.493 181.516L297.859 177.761C298.165 176.921 297.732 175.992 296.893 175.685L292.968 174.25C292.144 173.934 291.171 174.386 290.883 175.221L289.465 179.117C289.348 179.438 288.99 179.605 288.669 179.488C288.348 179.371 288.181 179.014 288.298 178.693L289.718 174.792C290.024 173.951 289.59 173.021 288.749 172.715L284.678 171.233C283.969 170.975 283.602 170.188 283.86 169.48C284.118 168.771 284.905 168.405 285.613 168.662L288.303 169.642C289.144 169.948 290.074 169.514 290.381 168.673L299.886 142.558C300.192 141.717 299.758 140.787 298.917 140.481L296.227 139.501C295.519 139.244 295.152 138.457 295.409 137.749C295.667 137.04 296.454 136.673 297.162 136.931L301.234 138.413C302.075 138.719 303.005 138.286 303.311 137.444L304.651 133.764C304.768 133.442 305.125 133.276 305.446 133.393C305.768 133.509 305.934 133.867 305.817 134.188L304.478 137.869C304.171 138.71 304.605 139.64 305.446 139.946L309.377 141.377C310.218 141.683 311.148 141.25 311.455 140.408L312.845 136.587C312.962 136.266 313.32 136.099 313.641 136.216C313.962 136.333 314.129 136.69 314.012 137.012L312.566 140.984C312.296 141.725 312.599 142.552 313.282 142.944C315.787 144.381 317.479 146.962 317.805 149.848M320.21 155.469L317.805 149.848M321.026 149.484L320.529 149.54M321.026 149.484C321.026 149.484 321.026 149.484 321.026 149.484L320.529 149.54M321.026 149.484C321.127 150.373 320.487 151.176 319.598 151.276M320.529 149.54C320.599 150.155 320.157 150.71 319.542 150.78M319.598 151.276C319.598 151.276 319.598 151.276 319.598 151.276L319.542 150.78M319.598 151.276C318.708 151.377 317.906 150.737 317.805 149.848M319.598 151.276L319.542 150.78M319.542 150.78L317.805 149.848M309.433 137.948L309.262 138.418L308.792 138.247L309.433 137.948Z" stroke="#BBBDBF" shape-rendering="crispEdges"/>
</g>
<g filter="url(#filter18_dd)">
<path d="M300.333 154.069L300.303 154.153L300.303 154.153L300.333 154.069ZM299.194 152.457C298.879 153.28 299.332 154.252 300.165 154.54L300.167 154.54L300.18 154.545L300.228 154.562L300.41 154.628L301.067 154.866L303.107 155.606C304.622 156.154 306.22 156.733 306.555 156.856C309.865 158.06 313.537 156.348 314.742 153.038C315.947 149.728 314.235 146.056 310.924 144.851L304.533 142.525C303.692 142.219 302.762 142.652 302.456 143.494L299.194 152.457ZM304.947 146.125L309.816 147.897C311.446 148.49 312.289 150.3 311.696 151.93C311.103 153.559 309.294 154.403 307.664 153.81C307.217 153.647 304.539 152.677 302.793 152.044L304.947 146.125Z" stroke="#BBBDBF" shape-rendering="crispEdges"/>
</g>
<g filter="url(#filter19_dd)">
<path d="M307.221 160.019L307.222 160.019C311.215 161.472 313.281 165.901 311.828 169.894C310.377 173.878 305.962 175.943 301.976 174.506C301.079 174.266 300.476 173.312 300.827 172.364C301.168 171.412 302.242 171.069 303.084 171.46C305.39 172.286 307.943 171.09 308.782 168.785L307.221 160.019ZM307.221 160.019C307.213 160.015 307.097 159.974 306.9 159.902C305.508 159.397 300.042 157.415 299.215 157.118L299.215 157.118M307.221 160.019L299.215 157.118M299.215 157.118C298.375 156.816 297.449 157.25 297.144 158.089L292.979 169.531C292.663 170.357 293.12 171.331 293.956 171.617L296.882 172.668C297.724 172.971 298.652 172.535 298.955 171.692C299.258 170.852 298.823 169.926 297.985 169.621L297.985 169.621L297.985 169.621L297.985 169.621L297.985 169.621L297.985 169.621L297.985 169.621L297.985 169.621L297.985 169.621L297.985 169.621L297.985 169.621L297.985 169.621L297.985 169.621L297.985 169.621L297.985 169.621L297.985 169.621L297.985 169.621L297.985 169.621L297.985 169.621L297.985 169.621L297.985 169.621L297.985 169.621L297.985 169.621L297.985 169.621L297.985 169.621L297.985 169.621L297.985 169.621L297.985 169.621L297.985 169.621L297.985 169.621L297.985 169.621L297.985 169.621L297.985 169.621L297.985 169.621L297.985 169.621L297.985 169.621L297.985 169.621L297.985 169.621L297.985 169.621L297.985 169.621L297.985 169.621L297.985 169.621L297.985 169.621L297.985 169.621L297.984 169.621L297.984 169.621L297.984 169.621L297.984 169.621L297.984 169.621L297.984 169.621L297.984 169.621L297.984 169.621L297.984 169.621L297.984 169.621L297.984 169.621L297.984 169.621L297.984 169.621L297.984 169.621L297.984 169.621L297.984 169.621L297.984 169.62L297.984 169.62L297.984 169.62L297.984 169.62L297.984 169.62L297.984 169.62L297.984 169.62L297.984 169.62L297.984 169.62L297.984 169.62L297.984 169.62L297.984 169.62L297.984 169.62L297.984 169.62L297.984 169.62L297.984 169.62L297.984 169.62L297.984 169.62L297.984 169.62L297.984 169.62L297.984 169.62L297.984 169.62L297.984 169.62L297.984 169.62L297.984 169.62L297.984 169.62L297.984 169.62L297.984 169.62L297.984 169.62L297.984 169.62L297.984 169.62L297.984 169.62L297.984 169.62L297.984 169.62L297.984 169.62L297.984 169.62L297.984 169.62L297.984 169.62L297.984 169.62L297.984 169.62L297.984 169.62L297.984 169.62L297.984 169.62L297.984 169.62L297.984 169.62L297.984 169.62L297.984 169.62L297.984 169.62L297.984 169.62L297.984 169.62L297.984 169.62L297.984 169.62L297.984 169.62L297.984 169.62L297.984 169.62L297.984 169.62L297.984 169.62L297.984 169.62L297.984 169.62L297.984 169.62L297.984 169.62L297.984 169.62L297.984 169.62L297.984 169.62L297.984 169.62L297.984 169.62L297.984 169.62L297.984 169.62L297.984 169.62L297.984 169.62L297.984 169.62L297.984 169.62L297.984 169.62L297.984 169.62L297.984 169.62L297.984 169.62L297.984 169.62L297.984 169.62L297.984 169.62L297.984 169.62L297.984 169.62L297.984 169.62L297.984 169.62L297.984 169.62L297.984 169.62L297.984 169.62L297.984 169.62L297.984 169.62L297.984 169.62L297.984 169.62L297.984 169.62L297.984 169.62L297.984 169.62L297.984 169.62L297.984 169.62L297.984 169.62L297.984 169.62L297.984 169.62L297.984 169.62L297.984 169.62L297.984 169.62L297.984 169.62L297.984 169.62L297.984 169.62L297.984 169.62L297.984 169.62L297.984 169.62L297.984 169.62L297.984 169.62L297.984 169.62L297.984 169.62L297.984 169.62L297.984 169.62L297.984 169.62L297.983 169.62L297.983 169.62L297.983 169.62L297.983 169.62L297.983 169.62L297.983 169.62L297.983 169.62L297.983 169.62L297.983 169.62L297.983 169.62L297.983 169.62L297.983 169.62L297.983 169.62L297.983 169.62L297.983 169.62L297.983 169.62L297.983 169.62L297.983 169.62L297.983 169.62L297.983 169.62L297.983 169.62L297.983 169.62L297.983 169.62L297.983 169.62L297.983 169.62L297.983 169.62L297.983 169.62L297.983 169.62L297.983 169.62L297.983 169.62L297.983 169.62L297.983 169.62L297.983 169.62L297.983 169.62L297.983 169.62L297.983 169.62L297.983 169.62L297.983 169.62L297.983 169.62L297.983 169.62L297.983 169.62L297.983 169.62L297.983 169.62L297.983 169.62L297.983 169.62L297.983 169.62L297.983 169.62L297.983 169.62L297.983 169.62L297.983 169.62L297.983 169.62L297.983 169.62L297.983 169.62L297.983 169.62L297.983 169.62L297.983 169.62L297.983 169.62L297.983 169.62L297.983 169.62L297.983 169.62L297.983 169.62L297.983 169.62L297.983 169.62L297.983 169.62L297.983 169.62L297.983 169.62L297.983 169.62L297.983 169.62L297.983 169.62L297.983 169.62L297.983 169.62L297.983 169.62L297.983 169.62L297.983 169.62L297.983 169.62L297.983 169.62L297.983 169.62L297.983 169.62L297.983 169.62L297.983 169.62L297.983 169.62L297.983 169.62L297.983 169.62L297.983 169.62L297.983 169.62L297.983 169.62L297.983 169.62L297.983 169.62L297.983 169.62L297.983 169.62L297.983 169.62L297.983 169.62L297.983 169.62L297.983 169.62L297.983 169.62L297.983 169.62L297.983 169.62L297.983 169.62L297.983 169.62L297.983 169.62L297.983 169.62L297.983 169.62L297.983 169.62L297.983 169.62L297.983 169.62L297.983 169.62L297.983 169.62L297.983 169.62L297.983 169.62L297.983 169.62L297.983 169.62L297.983 169.62L297.983 169.62L297.983 169.62L297.983 169.62L297.983 169.62L297.983 169.62L297.983 169.62L297.983 169.62L297.983 169.62L297.983 169.62L297.983 169.62L297.983 169.62L297.983 169.62L297.983 169.62L297.983 169.62L297.983 169.62L297.983 169.62L297.982 169.62L297.982 169.62L297.982 169.62L297.982 169.62L297.982 169.62L297.982 169.62L297.982 169.62L297.982 169.62L297.982 169.62L297.982 169.62L297.982 169.62L297.982 169.62L297.982 169.62L297.982 169.62L297.982 169.62L297.982 169.62L297.982 169.62L297.982 169.62L297.982 169.62L297.982 169.62L297.982 169.62L297.982 169.62L297.982 169.62L297.982 169.62L297.982 169.62L297.982 169.62L297.982 169.62L297.982 169.62L297.982 169.62L297.982 169.62L297.982 169.62L297.982 169.62L297.982 169.62L297.982 169.62L297.982 169.62L297.982 169.62L297.982 169.62L297.982 169.62L297.982 169.62L297.982 169.62L297.982 169.62L297.982 169.62L297.982 169.62L297.982 169.62L297.982 169.62L297.982 169.62L297.982 169.62L297.982 169.62L297.982 169.62L297.982 169.62L297.982 169.62L297.982 169.62L297.982 169.62L297.982 169.62L297.982 169.62L297.982 169.62L297.982 169.62L297.982 169.62L297.982 169.62L297.982 169.62L297.982 169.62L297.982 169.62L297.982 169.62L297.982 169.62L297.982 169.62L297.982 169.62L297.982 169.62L297.982 169.62L297.982 169.62L297.982 169.62L297.982 169.62L297.982 169.62L297.982 169.62L297.982 169.62L297.982 169.62L297.982 169.62L297.982 169.62L297.982 169.62L297.982 169.62L297.982 169.62L297.982 169.62L297.982 169.62L297.982 169.62L297.982 169.62L297.982 169.62L297.982 169.62L297.982 169.62L297.982 169.62L297.982 169.62L297.982 169.62L297.982 169.62L297.982 169.62L297.982 169.62L297.982 169.62L297.982 169.62L297.982 169.62L297.982 169.62L297.982 169.62L297.982 169.62L297.982 169.62L297.982 169.62L297.982 169.62L297.982 169.62L297.982 169.62L297.982 169.62L297.982 169.62L297.982 169.62L297.982 169.62L297.982 169.62L297.982 169.62L297.982 169.62L297.982 169.62L297.982 169.619L297.982 169.619L297.982 169.619L297.982 169.619L297.982 169.619L297.982 169.619L297.982 169.619L297.982 169.619L297.982 169.619L297.982 169.619L297.982 169.619L297.982 169.619L297.982 169.619L297.982 169.619L297.982 169.619L297.982 169.619L297.982 169.619L297.982 169.619L297.981 169.619L297.981 169.619L297.981 169.619L297.981 169.619L297.981 169.619L297.981 169.619L297.981 169.619L297.981 169.619L297.981 169.619L297.981 169.619L297.981 169.619L297.981 169.619L297.981 169.619L297.981 169.619L297.981 169.619L297.981 169.619L297.981 169.619L297.981 169.619L297.981 169.619L297.981 169.619L297.981 169.619L297.981 169.619L297.981 169.619L297.981 169.619L297.981 169.619L297.981 169.619L297.981 169.619L297.981 169.619L297.981 169.619L297.981 169.619L297.981 169.619L297.981 169.619L297.981 169.619L297.981 169.619L297.981 169.619L297.981 169.619L297.981 169.619L297.981 169.619L297.981 169.619L297.981 169.619L297.981 169.619L297.981 169.619L297.981 169.619L297.981 169.619L297.981 169.619L297.981 169.619L297.981 169.619L297.981 169.619L297.981 169.619L297.981 169.619L297.981 169.619L297.981 169.619L297.981 169.619L297.981 169.619L297.981 169.619L297.981 169.619L297.981 169.619L297.981 169.619L297.981 169.619L297.981 169.619L297.981 169.619L297.981 169.619L297.981 169.619L297.981 169.619L297.981 169.619L297.981 169.619L297.981 169.619L297.981 169.619L297.981 169.619L297.981 169.619L297.981 169.619L297.981 169.619L297.981 169.619L297.981 169.619L297.981 169.619L297.981 169.619L297.981 169.619L297.981 169.619L297.981 169.619L297.981 169.619L297.981 169.619L297.979 169.619M299.215 157.118L297.979 169.619M297.979 169.619L296.58 169.115M297.979 169.619L296.58 169.115M296.58 169.115L299.637 160.717C301.986 161.568 306.062 163.046 306.115 163.065C308.427 163.907 309.623 166.473 308.782 168.785L296.58 169.115Z" stroke="#BBBDBF" shape-rendering="crispEdges"/>
</g>
<g filter="url(#filter20_dddd)">
<path d="M286.551 166.086C284.422 165.312 282.059 166.413 281.284 168.542C280.509 170.671 281.611 173.034 283.74 173.809L286.759 174.907L285.722 177.755C285.088 179.497 285.99 181.43 287.732 182.064C289.474 182.698 291.406 181.796 292.04 180.055L293.076 177.209L294.901 177.875L293.917 180.579C293.283 182.32 294.184 184.253 295.926 184.887C297.668 185.521 299.601 184.62 300.235 182.878L301.277 180.014C307.765 181.698 314.643 178.171 316.974 171.766C318.357 167.967 317.916 163.789 315.818 160.37C317.575 159.071 318.922 157.332 319.746 155.283C319.977 154.709 319.698 154.056 319.124 153.825C318.548 153.589 317.897 153.873 317.666 154.447C316.879 156.405 315.502 158.014 313.684 159.101C313.124 159.42 312.964 160.222 313.359 160.731C315.563 163.702 316.127 167.541 314.868 171C312.827 176.607 306.588 179.556 300.959 177.576C300.38 177.372 299.745 177.673 299.535 178.25L298.129 182.112C297.917 182.692 297.273 182.993 296.693 182.781C296.112 182.57 295.811 181.926 296.023 181.345L297.389 177.59C297.601 177.009 297.302 176.367 296.721 176.155L292.792 174.718C292.23 174.5 291.549 174.817 291.354 175.387L289.934 179.288C289.723 179.869 289.079 180.169 288.498 179.958C287.917 179.746 287.617 179.102 287.828 178.522L289.248 174.621C289.46 174.039 289.16 173.396 288.578 173.185L284.507 171.703C283.539 171.35 283.038 170.277 283.39 169.309C283.743 168.341 284.816 167.84 285.784 168.193L288.474 169.172C289.056 169.383 289.699 169.084 289.911 168.502L299.416 142.387C299.628 141.805 299.328 141.162 298.746 140.95L296.056 139.971C295.088 139.619 294.587 138.545 294.94 137.577C295.292 136.61 296.366 136.109 297.333 136.461L301.405 137.943C301.987 138.155 302.63 137.855 302.841 137.273L304.181 133.593C304.392 133.012 305.037 132.711 305.617 132.923C306.198 133.134 306.499 133.778 306.287 134.359L304.947 138.04C304.736 138.622 305.036 139.265 305.617 139.476L309.548 140.907C310.13 141.119 310.773 140.819 310.985 140.237L312.376 136.416C312.587 135.835 313.231 135.535 313.812 135.746C314.392 135.958 314.693 136.602 314.482 137.183L313.036 141.155C312.849 141.667 313.058 142.24 313.531 142.511C316.175 144.027 317.958 146.749 318.302 149.792C318.372 150.407 318.927 150.849 319.542 150.78C320.157 150.71 320.599 150.155 320.529 149.54C320.141 146.108 318.266 143.007 315.451 141.073L316.588 137.949C317.222 136.207 316.32 134.274 314.578 133.64C312.836 133.006 310.904 133.908 310.27 135.65L309.262 138.418L307.437 137.754L308.393 135.126C309.027 133.384 308.126 131.451 306.384 130.817C304.642 130.183 302.709 131.084 302.075 132.826L301.119 135.454L298.1 134.355C295.971 133.58 293.608 134.682 292.834 136.811C292.059 138.94 293.16 141.302 295.289 142.077L296.927 142.673L288.188 166.682L286.551 166.086Z" fill="white"/>
</g>
<g filter="url(#filter21_dddd)">
<path d="M300.332 154.068L300.333 154.069C300.333 154.069 306.054 156.141 306.726 156.386C309.777 157.496 313.162 155.918 314.272 152.867C315.382 149.817 313.804 146.431 310.753 145.321L304.362 142.995C303.781 142.783 303.138 143.083 302.926 143.665L299.662 152.632C299.445 153.193 299.762 153.873 300.332 154.068ZM304.649 145.484L309.987 147.427C311.876 148.115 312.854 150.211 312.166 152.101C311.478 153.99 309.382 154.967 307.493 154.28C307.004 154.102 303.839 152.955 302.152 152.344L304.649 145.484Z" fill="white"/>
</g>
<g filter="url(#filter22_dddd)">
<path d="M302.891 171.922C302.282 171.626 301.529 171.882 301.297 172.535C301.055 173.184 301.468 173.864 302.124 174.028C305.857 175.387 309.999 173.455 311.358 169.723C312.716 165.99 310.785 161.848 307.051 160.489C306.981 160.463 299.99 157.928 299.046 157.588C298.465 157.38 297.825 157.68 297.614 158.26L293.447 169.707C293.23 170.27 293.549 170.952 294.121 171.144L297.051 172.198C297.633 172.407 298.275 172.105 298.485 171.523C298.694 170.942 298.394 170.302 297.814 170.091C297.813 170.09 297.811 170.09 297.81 170.089L295.938 169.416L299.337 160.077C301.562 160.882 306.229 162.575 306.286 162.595C308.857 163.531 310.188 166.385 309.252 168.956C308.316 171.528 305.462 172.858 302.891 171.922Z" fill="white"/>
</g>
<defs>
<filter id="filter0_dd" x="0.841797" y="160.438" width="387.776" height="261.121" filterUnits="userSpaceOnUse" color-interpolation-filters="sRGB">
<feFlood flood-opacity="0" result="BackgroundImageFix"/>
<feColorMatrix in="SourceAlpha" type="matrix" values="0 0 0 0 0 0 0 0 0 0 0 0 0 0 0 0 0 0 127 0" result="hardAlpha"/>
<feOffset/>
<feGaussianBlur stdDeviation="17"/>
<feComposite in2="hardAlpha" operator="out"/>
<feColorMatrix type="matrix" values="0 0 0 0 0.0941176 0 0 0 0 0.65098 0 0 0 0 0.866667 0 0 0 1 0"/>
<feBlend mode="normal" in2="BackgroundImageFix" result="effect1_dropShadow"/>
<feColorMatrix in="SourceAlpha" type="matrix" values="0 0 0 0 0 0 0 0 0 0 0 0 0 0 0 0 0 0 127 0" result="hardAlpha"/>
<feOffset dy="8"/>
<feGaussianBlur stdDeviation="2"/>
<feComposite in2="hardAlpha" operator="out"/>
<feColorMatrix type="matrix" values="0 0 0 0 0 0 0 0 0 0 0 0 0 0 0 0 0 0 0.18 0"/>
<feBlend mode="normal" in2="effect1_dropShadow" result="effect2_dropShadow"/>
<feBlend mode="normal" in="SourceGraphic" in2="effect2_dropShadow" result="shape"/>
</filter>
<filter id="filter1_dd" x="62.4072" y="0.983398" width="364.375" height="473.411" filterUnits="userSpaceOnUse" color-interpolation-filters="sRGB">
<feFlood flood-opacity="0" result="BackgroundImageFix"/>
<feColorMatrix in="SourceAlpha" type="matrix" values="0 0 0 0 0 0 0 0 0 0 0 0 0 0 0 0 0 0 127 0" result="hardAlpha"/>
<feOffset/>
<feGaussianBlur stdDeviation="27"/>
<feComposite in2="hardAlpha" operator="out"/>
<feColorMatrix type="matrix" values="0 0 0 0 0.776471 0 0 0 0 0.152941 0 0 0 0 0.345098 0 0 0 1 0"/>
<feBlend mode="normal" in2="BackgroundImageFix" result="effect1_dropShadow"/>
<feColorMatrix in="SourceAlpha" type="matrix" values="0 0 0 0 0 0 0 0 0 0 0 0 0 0 0 0 0 0 127 0" result="hardAlpha"/>
<feOffset dy="10"/>
<feGaussianBlur stdDeviation="3"/>
<feComposite in2="hardAlpha" operator="out"/>
<feColorMatrix type="matrix" values="0 0 0 0 0 0 0 0 0 0 0 0 0 0 0 0 0 0 0.23 0"/>
<feBlend mode="normal" in2="effect1_dropShadow" result="effect2_dropShadow"/>
<feBlend mode="normal" in="SourceGraphic" in2="effect2_dropShadow" result="shape"/>
</filter>
<filter id="filter2_dd" x="145.684" y="98.9216" width="87.2908" height="90.6758" filterUnits="userSpaceOnUse" color-interpolation-filters="sRGB">
<feFlood flood-opacity="0" result="BackgroundImageFix"/>
<feColorMatrix in="SourceAlpha" type="matrix" values="0 0 0 0 0 0 0 0 0 0 0 0 0 0 0 0 0 0 127 0" result="hardAlpha"/>
<feOffset/>
<feGaussianBlur stdDeviation="13.5"/>
<feComposite in2="hardAlpha" operator="out"/>
<feColorMatrix type="matrix" values="0 0 0 0 1 0 0 0 0 1 0 0 0 0 1 0 0 0 1 0"/>
<feBlend mode="normal" in2="BackgroundImageFix" result="effect1_dropShadow"/>
<feColorMatrix in="SourceAlpha" type="matrix" values="0 0 0 0 0 0 0 0 0 0 0 0 0 0 0 0 0 0 127 0" result="hardAlpha"/>
<feOffset dy="12"/>
<feGaussianBlur stdDeviation="3"/>
<feComposite in2="hardAlpha" operator="out"/>
<feColorMatrix type="matrix" values="0 0 0 0 0 0 0 0 0 0 0 0 0 0 0 0 0 0 0.3 0"/>
<feBlend mode="normal" in2="effect1_dropShadow" result="effect2_dropShadow"/>
<feBlend mode="normal" in="SourceGraphic" in2="effect2_dropShadow" result="shape"/>
</filter>
<filter id="filter3_dd" x="147.288" y="126.327" width="87.3651" height="82.5037" filterUnits="userSpaceOnUse" color-interpolation-filters="sRGB">
<feFlood flood-opacity="0" result="BackgroundImageFix"/>
<feColorMatrix in="SourceAlpha" type="matrix" values="0 0 0 0 0 0 0 0 0 0 0 0 0 0 0 0 0 0 127 0" result="hardAlpha"/>
<feOffset/>
<feGaussianBlur stdDeviation="13.5"/>
<feComposite in2="hardAlpha" operator="out"/>
<feColorMatrix type="matrix" values="0 0 0 0 1 0 0 0 0 1 0 0 0 0 1 0 0 0 1 0"/>
<feBlend mode="normal" in2="BackgroundImageFix" result="effect1_dropShadow"/>
<feColorMatrix in="SourceAlpha" type="matrix" values="0 0 0 0 0 0 0 0 0 0 0 0 0 0 0 0 0 0 127 0" result="hardAlpha"/>
<feOffset dy="12"/>
<feGaussianBlur stdDeviation="3"/>
<feComposite in2="hardAlpha" operator="out"/>
<feColorMatrix type="matrix" values="0 0 0 0 0 0 0 0 0 0 0 0 0 0 0 0 0 0 0.3 0"/>
<feBlend mode="normal" in2="effect1_dropShadow" result="effect2_dropShadow"/>
<feBlend mode="normal" in="SourceGraphic" in2="effect2_dropShadow" result="shape"/>
</filter>
<filter id="filter4_dddd" x="167.684" y="120.922" width="43.2906" height="46.6758" filterUnits="userSpaceOnUse" color-interpolation-filters="sRGB">
<feFlood flood-opacity="0" result="BackgroundImageFix"/>
<feColorMatrix in="SourceAlpha" type="matrix" values="0 0 0 0 0 0 0 0 0 0 0 0 0 0 0 0 0 0 127 0" result="hardAlpha"/>
<feOffset/>
<feGaussianBlur stdDeviation="2"/>
<feComposite in2="hardAlpha" operator="out"/>
<feColorMatrix type="matrix" values="0 0 0 0 1 0 0 0 0 1 0 0 0 0 1 0 0 0 1 0"/>
<feBlend mode="normal" in2="BackgroundImageFix" result="effect1_dropShadow"/>
<feColorMatrix in="SourceAlpha" type="matrix" values="0 0 0 0 0 0 0 0 0 0 0 0 0 0 0 0 0 0 127 0" result="hardAlpha"/>
<feOffset/>
<feGaussianBlur stdDeviation="3"/>
<feComposite in2="hardAlpha" operator="out"/>
<feColorMatrix type="matrix" values="0 0 0 0 1 0 0 0 0 1 0 0 0 0 1 0 0 0 1 0"/>
<feBlend mode="normal" in2="effect1_dropShadow" result="effect2_dropShadow"/>
<feColorMatrix in="SourceAlpha" type="matrix" values="0 0 0 0 0 0 0 0 0 0 0 0 0 0 0 0 0 0 127 0" result="hardAlpha"/>
<feOffset/>
<feGaussianBlur stdDeviation="2"/>
<feComposite in2="hardAlpha" operator="out"/>
<feColorMatrix type="matrix" values="0 0 0 0 1 0 0 0 0 1 0 0 0 0 1 0 0 0 1 0"/>
<feBlend mode="normal" in2="effect2_dropShadow" result="effect3_dropShadow"/>
<feColorMatrix in="SourceAlpha" type="matrix" values="0 0 0 0 0 0 0 0 0 0 0 0 0 0 0 0 0 0 127 0" result="hardAlpha"/>
<feOffset/>
<feGaussianBlur stdDeviation="1.5"/>
<feComposite in2="hardAlpha" operator="out"/>
<feColorMatrix type="matrix" values="0 0 0 0 1 0 0 0 0 1 0 0 0 0 1 0 0 0 1 0"/>
<feBlend mode="normal" in2="effect3_dropShadow" result="effect4_dropShadow"/>
<feBlend mode="normal" in="SourceGraphic" in2="effect4_dropShadow" result="shape"/>
</filter>
<filter id="filter5_dddd" x="169.288" y="148.327" width="43.3649" height="38.5037" filterUnits="userSpaceOnUse" color-interpolation-filters="sRGB">
<feFlood flood-opacity="0" result="BackgroundImageFix"/>
<feColorMatrix in="SourceAlpha" type="matrix" values="0 0 0 0 0 0 0 0 0 0 0 0 0 0 0 0 0 0 127 0" result="hardAlpha"/>
<feOffset/>
<feGaussianBlur stdDeviation="2"/>
<feComposite in2="hardAlpha" operator="out"/>
<feColorMatrix type="matrix" values="0 0 0 0 1 0 0 0 0 1 0 0 0 0 1 0 0 0 1 0"/>
<feBlend mode="normal" in2="BackgroundImageFix" result="effect1_dropShadow"/>
<feColorMatrix in="SourceAlpha" type="matrix" values="0 0 0 0 0 0 0 0 0 0 0 0 0 0 0 0 0 0 127 0" result="hardAlpha"/>
<feOffset/>
<feGaussianBlur stdDeviation="3"/>
<feComposite in2="hardAlpha" operator="out"/>
<feColorMatrix type="matrix" values="0 0 0 0 1 0 0 0 0 1 0 0 0 0 1 0 0 0 1 0"/>
<feBlend mode="normal" in2="effect1_dropShadow" result="effect2_dropShadow"/>
<feColorMatrix in="SourceAlpha" type="matrix" values="0 0 0 0 0 0 0 0 0 0 0 0 0 0 0 0 0 0 127 0" result="hardAlpha"/>
<feOffset/>
<feGaussianBlur stdDeviation="2"/>
<feComposite in2="hardAlpha" operator="out"/>
<feColorMatrix type="matrix" values="0 0 0 0 1 0 0 0 0 1 0 0 0 0 1 0 0 0 1 0"/>
<feBlend mode="normal" in2="effect2_dropShadow" result="effect3_dropShadow"/>
<feColorMatrix in="SourceAlpha" type="matrix" values="0 0 0 0 0 0 0 0 0 0 0 0 0 0 0 0 0 0 127 0" result="hardAlpha"/>
<feOffset/>
<feGaussianBlur stdDeviation="1.5"/>
<feComposite in2="hardAlpha" operator="out"/>
<feColorMatrix type="matrix" values="0 0 0 0 1 0 0 0 0 1 0 0 0 0 1 0 0 0 1 0"/>
<feBlend mode="normal" in2="effect3_dropShadow" result="effect4_dropShadow"/>
<feBlend mode="normal" in="SourceGraphic" in2="effect4_dropShadow" result="shape"/>
</filter>
<filter id="filter6_dddd" x="246.207" y="114.129" width="15.7015" height="20.5821" filterUnits="userSpaceOnUse" color-interpolation-filters="sRGB">
<feFlood flood-opacity="0" result="BackgroundImageFix"/>
<feColorMatrix in="SourceAlpha" type="matrix" values="0 0 0 0 0 0 0 0 0 0 0 0 0 0 0 0 0 0 127 0" result="hardAlpha"/>
<feOffset/>
<feGaussianBlur stdDeviation="2"/>
<feComposite in2="hardAlpha" operator="out"/>
<feColorMatrix type="matrix" values="0 0 0 0 1 0 0 0 0 1 0 0 0 0 1 0 0 0 1 0"/>
<feBlend mode="normal" in2="BackgroundImageFix" result="effect1_dropShadow"/>
<feColorMatrix in="SourceAlpha" type="matrix" values="0 0 0 0 0 0 0 0 0 0 0 0 0 0 0 0 0 0 127 0" result="hardAlpha"/>
<feOffset/>
<feGaussianBlur stdDeviation="3"/>
<feComposite in2="hardAlpha" operator="out"/>
<feColorMatrix type="matrix" values="0 0 0 0 1 0 0 0 0 1 0 0 0 0 1 0 0 0 1 0"/>
<feBlend mode="normal" in2="effect1_dropShadow" result="effect2_dropShadow"/>
<feColorMatrix in="SourceAlpha" type="matrix" values="0 0 0 0 0 0 0 0 0 0 0 0 0 0 0 0 0 0 127 0" result="hardAlpha"/>
<feOffset/>
<feGaussianBlur stdDeviation="2"/>
<feComposite in2="hardAlpha" operator="out"/>
<feColorMatrix type="matrix" values="0 0 0 0 1 0 0 0 0 1 0 0 0 0 1 0 0 0 1 0"/>
<feBlend mode="normal" in2="effect2_dropShadow" result="effect3_dropShadow"/>
<feColorMatrix in="SourceAlpha" type="matrix" values="0 0 0 0 0 0 0 0 0 0 0 0 0 0 0 0 0 0 127 0" result="hardAlpha"/>
<feOffset/>
<feGaussianBlur stdDeviation="1.5"/>
<feComposite in2="hardAlpha" operator="out"/>
<feColorMatrix type="matrix" values="0 0 0 0 1 0 0 0 0 1 0 0 0 0 1 0 0 0 1 0"/>
<feBlend mode="normal" in2="effect3_dropShadow" result="effect4_dropShadow"/>
<feBlend mode="normal" in="SourceGraphic" in2="effect4_dropShadow" result="shape"/>
</filter>
<filter id="filter7_dddd" x="250.084" y="86.3479" width="20.9311" height="28.2146" filterUnits="userSpaceOnUse" color-interpolation-filters="sRGB">
<feFlood flood-opacity="0" result="BackgroundImageFix"/>
<feColorMatrix in="SourceAlpha" type="matrix" values="0 0 0 0 0 0 0 0 0 0 0 0 0 0 0 0 0 0 127 0" result="hardAlpha"/>
<feOffset/>
<feGaussianBlur stdDeviation="2"/>
<feComposite in2="hardAlpha" operator="out"/>
<feColorMatrix type="matrix" values="0 0 0 0 1 0 0 0 0 1 0 0 0 0 1 0 0 0 1 0"/>
<feBlend mode="normal" in2="BackgroundImageFix" result="effect1_dropShadow"/>
<feColorMatrix in="SourceAlpha" type="matrix" values="0 0 0 0 0 0 0 0 0 0 0 0 0 0 0 0 0 0 127 0" result="hardAlpha"/>
<feOffset/>
<feGaussianBlur stdDeviation="3"/>
<feComposite in2="hardAlpha" operator="out"/>
<feColorMatrix type="matrix" values="0 0 0 0 1 0 0 0 0 1 0 0 0 0 1 0 0 0 1 0"/>
<feBlend mode="normal" in2="effect1_dropShadow" result="effect2_dropShadow"/>
<feColorMatrix in="SourceAlpha" type="matrix" values="0 0 0 0 0 0 0 0 0 0 0 0 0 0 0 0 0 0 127 0" result="hardAlpha"/>
<feOffset/>
<feGaussianBlur stdDeviation="2"/>
<feComposite in2="hardAlpha" operator="out"/>
<feColorMatrix type="matrix" values="0 0 0 0 1 0 0 0 0 1 0 0 0 0 1 0 0 0 1 0"/>
<feBlend mode="normal" in2="effect2_dropShadow" result="effect3_dropShadow"/>
<feColorMatrix in="SourceAlpha" type="matrix" values="0 0 0 0 0 0 0 0 0 0 0 0 0 0 0 0 0 0 127 0" result="hardAlpha"/>
<feOffset/>
<feGaussianBlur stdDeviation="1.5"/>
<feComposite in2="hardAlpha" operator="out"/>
<feColorMatrix type="matrix" values="0 0 0 0 1 0 0 0 0 1 0 0 0 0 1 0 0 0 1 0"/>
<feBlend mode="normal" in2="effect3_dropShadow" result="effect4_dropShadow"/>
<feBlend mode="normal" in="SourceGraphic" in2="effect4_dropShadow" result="shape"/>
</filter>
<filter id="filter8_ddddd" x="114.928" y="92.0581" width="127.2" height="97.9516" filterUnits="userSpaceOnUse" color-interpolation-filters="sRGB">
<feFlood flood-opacity="0" result="BackgroundImageFix"/>
<feColorMatrix in="SourceAlpha" type="matrix" values="0 0 0 0 0 0 0 0 0 0 0 0 0 0 0 0 0 0 127 0" result="hardAlpha"/>
<feOffset/>
<feGaussianBlur stdDeviation="1"/>
<feComposite in2="hardAlpha" operator="out"/>
<feColorMatrix type="matrix" values="0 0 0 0 0.937255 0 0 0 0 0.196078 0 0 0 0 0.552941 0 0 0 1 0"/>
<feBlend mode="normal" in2="BackgroundImageFix" result="effect1_dropShadow"/>
<feColorMatrix in="SourceAlpha" type="matrix" values="0 0 0 0 0 0 0 0 0 0 0 0 0 0 0 0 0 0 127 0" result="hardAlpha"/>
<feOffset/>
<feGaussianBlur stdDeviation="2"/>
<feComposite in2="hardAlpha" operator="out"/>
<feColorMatrix type="matrix" values="0 0 0 0 0.937255 0 0 0 0 0.196078 0 0 0 0 0.552941 0 0 0 1 0"/>
<feBlend mode="normal" in2="effect1_dropShadow" result="effect2_dropShadow"/>
<feColorMatrix in="SourceAlpha" type="matrix" values="0 0 0 0 0 0 0 0 0 0 0 0 0 0 0 0 0 0 127 0" result="hardAlpha"/>
<feOffset/>
<feGaussianBlur stdDeviation="3"/>
<feComposite in2="hardAlpha" operator="out"/>
<feColorMatrix type="matrix" values="0 0 0 0 0.937255 0 0 0 0 0.196078 0 0 0 0 0.552941 0 0 0 1 0"/>
<feBlend mode="normal" in2="effect2_dropShadow" result="effect3_dropShadow"/>
<feColorMatrix in="SourceAlpha" type="matrix" values="0 0 0 0 0 0 0 0 0 0 0 0 0 0 0 0 0 0 127 0" result="hardAlpha"/>
<feOffset/>
<feGaussianBlur stdDeviation="2"/>
<feComposite in2="hardAlpha" operator="out"/>
<feColorMatrix type="matrix" values="0 0 0 0 0.937255 0 0 0 0 0.196078 0 0 0 0 0.552941 0 0 0 1 0"/>
<feBlend mode="normal" in2="effect3_dropShadow" result="effect4_dropShadow"/>
<feColorMatrix in="SourceAlpha" type="matrix" values="0 0 0 0 0 0 0 0 0 0 0 0 0 0 0 0 0 0 127 0" result="hardAlpha"/>
<feOffset/>
<feGaussianBlur stdDeviation="1.5"/>
<feComposite in2="hardAlpha" operator="out"/>
<feColorMatrix type="matrix" values="0 0 0 0 0.937255 0 0 0 0 0.196078 0 0 0 0 0.552941 0 0 0 1 0"/>
<feBlend mode="normal" in2="effect4_dropShadow" result="effect5_dropShadow"/>
<feBlend mode="normal" in="SourceGraphic" in2="effect5_dropShadow" result="shape"/>
</filter>
<filter id="filter9_ddddd" x="120.56" y="299.67" width="111.915" height="107.67" filterUnits="userSpaceOnUse" color-interpolation-filters="sRGB">
<feFlood flood-opacity="0" result="BackgroundImageFix"/>
<feColorMatrix in="SourceAlpha" type="matrix" values="0 0 0 0 0 0 0 0 0 0 0 0 0 0 0 0 0 0 127 0" result="hardAlpha"/>
<feOffset/>
<feGaussianBlur stdDeviation="1"/>
<feComposite in2="hardAlpha" operator="out"/>
<feColorMatrix type="matrix" values="0 0 0 0 0.937255 0 0 0 0 0.196078 0 0 0 0 0.552941 0 0 0 1 0"/>
<feBlend mode="normal" in2="BackgroundImageFix" result="effect1_dropShadow"/>
<feColorMatrix in="SourceAlpha" type="matrix" values="0 0 0 0 0 0 0 0 0 0 0 0 0 0 0 0 0 0 127 0" result="hardAlpha"/>
<feOffset/>
<feGaussianBlur stdDeviation="2"/>
<feComposite in2="hardAlpha" operator="out"/>
<feColorMatrix type="matrix" values="0 0 0 0 0.937255 0 0 0 0 0.196078 0 0 0 0 0.552941 0 0 0 1 0"/>
<feBlend mode="normal" in2="effect1_dropShadow" result="effect2_dropShadow"/>
<feColorMatrix in="SourceAlpha" type="matrix" values="0 0 0 0 0 0 0 0 0 0 0 0 0 0 0 0 0 0 127 0" result="hardAlpha"/>
<feOffset/>
<feGaussianBlur stdDeviation="3"/>
<feComposite in2="hardAlpha" operator="out"/>
<feColorMatrix type="matrix" values="0 0 0 0 0.937255 0 0 0 0 0.196078 0 0 0 0 0.552941 0 0 0 1 0"/>
<feBlend mode="normal" in2="effect2_dropShadow" result="effect3_dropShadow"/>
<feColorMatrix in="SourceAlpha" type="matrix" values="0 0 0 0 0 0 0 0 0 0 0 0 0 0 0 0 0 0 127 0" result="hardAlpha"/>
<feOffset/>
<feGaussianBlur stdDeviation="2"/>
<feComposite in2="hardAlpha" operator="out"/>
<feColorMatrix type="matrix" values="0 0 0 0 0.937255 0 0 0 0 0.196078 0 0 0 0 0.552941 0 0 0 1 0"/>
<feBlend mode="normal" in2="effect3_dropShadow" result="effect4_dropShadow"/>
<feColorMatrix in="SourceAlpha" type="matrix" values="0 0 0 0 0 0 0 0 0 0 0 0 0 0 0 0 0 0 127 0" result="hardAlpha"/>
<feOffset/>
<feGaussianBlur stdDeviation="1.5"/>
<feComposite in2="hardAlpha" operator="out"/>
<feColorMatrix type="matrix" values="0 0 0 0 0.937255 0 0 0 0 0.196078 0 0 0 0 0.552941 0 0 0 1 0"/>
<feBlend mode="normal" in2="effect4_dropShadow" result="effect5_dropShadow"/>
<feBlend mode="normal" in="SourceGraphic" in2="effect5_dropShadow" result="shape"/>
</filter>
<filter id="filter10_ddddd" x="244.273" y="94.9026" width="130.232" height="106.689" filterUnits="userSpaceOnUse" color-interpolation-filters="sRGB">
<feFlood flood-opacity="0" result="BackgroundImageFix"/>
<feColorMatrix in="SourceAlpha" type="matrix" values="0 0 0 0 0 0 0 0 0 0 0 0 0 0 0 0 0 0 127 0" result="hardAlpha"/>
<feOffset/>
<feGaussianBlur stdDeviation="1"/>
<feComposite in2="hardAlpha" operator="out"/>
<feColorMatrix type="matrix" values="0 0 0 0 0.937255 0 0 0 0 0.196078 0 0 0 0 0.552941 0 0 0 1 0"/>
<feBlend mode="normal" in2="BackgroundImageFix" result="effect1_dropShadow"/>
<feColorMatrix in="SourceAlpha" type="matrix" values="0 0 0 0 0 0 0 0 0 0 0 0 0 0 0 0 0 0 127 0" result="hardAlpha"/>
<feOffset/>
<feGaussianBlur stdDeviation="2"/>
<feComposite in2="hardAlpha" operator="out"/>
<feColorMatrix type="matrix" values="0 0 0 0 0.937255 0 0 0 0 0.196078 0 0 0 0 0.552941 0 0 0 1 0"/>
<feBlend mode="normal" in2="effect1_dropShadow" result="effect2_dropShadow"/>
<feColorMatrix in="SourceAlpha" type="matrix" values="0 0 0 0 0 0 0 0 0 0 0 0 0 0 0 0 0 0 127 0" result="hardAlpha"/>
<feOffset/>
<feGaussianBlur stdDeviation="3"/>
<feComposite in2="hardAlpha" operator="out"/>
<feColorMatrix type="matrix" values="0 0 0 0 0.937255 0 0 0 0 0.196078 0 0 0 0 0.552941 0 0 0 1 0"/>
<feBlend mode="normal" in2="effect2_dropShadow" result="effect3_dropShadow"/>
<feColorMatrix in="SourceAlpha" type="matrix" values="0 0 0 0 0 0 0 0 0 0 0 0 0 0 0 0 0 0 127 0" result="hardAlpha"/>
<feOffset/>
<feGaussianBlur stdDeviation="2"/>
<feComposite in2="hardAlpha" operator="out"/>
<feColorMatrix type="matrix" values="0 0 0 0 0.937255 0 0 0 0 0.196078 0 0 0 0 0.552941 0 0 0 1 0"/>
<feBlend mode="normal" in2="effect3_dropShadow" result="effect4_dropShadow"/>
<feColorMatrix in="SourceAlpha" type="matrix" values="0 0 0 0 0 0 0 0 0 0 0 0 0 0 0 0 0 0 127 0" result="hardAlpha"/>
<feOffset/>
<feGaussianBlur stdDeviation="1.5"/>
<feComposite in2="hardAlpha" operator="out"/>
<feColorMatrix type="matrix" values="0 0 0 0 0.937255 0 0 0 0 0.196078 0 0 0 0 0.552941 0 0 0 1 0"/>
<feBlend mode="normal" in2="effect4_dropShadow" result="effect5_dropShadow"/>
<feBlend mode="normal" in="SourceGraphic" in2="effect5_dropShadow" result="shape"/>
</filter>
<filter id="filter11_ddddd" x="213.966" y="53.4475" width="127.715" height="47.877" filterUnits="userSpaceOnUse" color-interpolation-filters="sRGB">
<feFlood flood-opacity="0" result="BackgroundImageFix"/>
<feColorMatrix in="SourceAlpha" type="matrix" values="0 0 0 0 0 0 0 0 0 0 0 0 0 0 0 0 0 0 127 0" result="hardAlpha"/>
<feOffset/>
<feGaussianBlur stdDeviation="1"/>
<feComposite in2="hardAlpha" operator="out"/>
<feColorMatrix type="matrix" values="0 0 0 0 0.937255 0 0 0 0 0.196078 0 0 0 0 0.552941 0 0 0 1 0"/>
<feBlend mode="normal" in2="BackgroundImageFix" result="effect1_dropShadow"/>
<feColorMatrix in="SourceAlpha" type="matrix" values="0 0 0 0 0 0 0 0 0 0 0 0 0 0 0 0 0 0 127 0" result="hardAlpha"/>
<feOffset/>
<feGaussianBlur stdDeviation="2"/>
<feComposite in2="hardAlpha" operator="out"/>
<feColorMatrix type="matrix" values="0 0 0 0 0.937255 0 0 0 0 0.196078 0 0 0 0 0.552941 0 0 0 1 0"/>
<feBlend mode="normal" in2="effect1_dropShadow" result="effect2_dropShadow"/>
<feColorMatrix in="SourceAlpha" type="matrix" values="0 0 0 0 0 0 0 0 0 0 0 0 0 0 0 0 0 0 127 0" result="hardAlpha"/>
<feOffset/>
<feGaussianBlur stdDeviation="3"/>
<feComposite in2="hardAlpha" operator="out"/>
<feColorMatrix type="matrix" values="0 0 0 0 0.937255 0 0 0 0 0.196078 0 0 0 0 0.552941 0 0 0 1 0"/>
<feBlend mode="normal" in2="effect2_dropShadow" result="effect3_dropShadow"/>
<feColorMatrix in="SourceAlpha" type="matrix" values="0 0 0 0 0 0 0 0 0 0 0 0 0 0 0 0 0 0 127 0" result="hardAlpha"/>
<feOffset/>
<feGaussianBlur stdDeviation="2"/>
<feComposite in2="hardAlpha" operator="out"/>
<feColorMatrix type="matrix" values="0 0 0 0 0.937255 0 0 0 0 0.196078 0 0 0 0 0.552941 0 0 0 1 0"/>
<feBlend mode="normal" in2="effect3_dropShadow" result="effect4_dropShadow"/>
<feColorMatrix in="SourceAlpha" type="matrix" values="0 0 0 0 0 0 0 0 0 0 0 0 0 0 0 0 0 0 127 0" result="hardAlpha"/>
<feOffset/>
<feGaussianBlur stdDeviation="1.5"/>
<feComposite in2="hardAlpha" operator="out"/>
<feColorMatrix type="matrix" values="0 0 0 0 0.937255 0 0 0 0 0.196078 0 0 0 0 0.552941 0 0 0 1 0"/>
<feBlend mode="normal" in2="effect4_dropShadow" result="effect5_dropShadow"/>
<feBlend mode="normal" in="SourceGraphic" in2="effect5_dropShadow" result="shape"/>
</filter>
<filter id="filter12_ddddd" x="230.817" y="368.199" width="88.5067" height="53.4683" filterUnits="userSpaceOnUse" color-interpolation-filters="sRGB">
<feFlood flood-opacity="0" result="BackgroundImageFix"/>
<feColorMatrix in="SourceAlpha" type="matrix" values="0 0 0 0 0 0 0 0 0 0 0 0 0 0 0 0 0 0 127 0" result="hardAlpha"/>
<feOffset/>
<feGaussianBlur stdDeviation="1"/>
<feComposite in2="hardAlpha" operator="out"/>
<feColorMatrix type="matrix" values="0 0 0 0 0.937255 0 0 0 0 0.196078 0 0 0 0 0.552941 0 0 0 1 0"/>
<feBlend mode="normal" in2="BackgroundImageFix" result="effect1_dropShadow"/>
<feColorMatrix in="SourceAlpha" type="matrix" values="0 0 0 0 0 0 0 0 0 0 0 0 0 0 0 0 0 0 127 0" result="hardAlpha"/>
<feOffset/>
<feGaussianBlur stdDeviation="2"/>
<feComposite in2="hardAlpha" operator="out"/>
<feColorMatrix type="matrix" values="0 0 0 0 0.937255 0 0 0 0 0.196078 0 0 0 0 0.552941 0 0 0 1 0"/>
<feBlend mode="normal" in2="effect1_dropShadow" result="effect2_dropShadow"/>
<feColorMatrix in="SourceAlpha" type="matrix" values="0 0 0 0 0 0 0 0 0 0 0 0 0 0 0 0 0 0 127 0" result="hardAlpha"/>
<feOffset/>
<feGaussianBlur stdDeviation="3"/>
<feComposite in2="hardAlpha" operator="out"/>
<feColorMatrix type="matrix" values="0 0 0 0 0.937255 0 0 0 0 0.196078 0 0 0 0 0.552941 0 0 0 1 0"/>
<feBlend mode="normal" in2="effect2_dropShadow" result="effect3_dropShadow"/>
<feColorMatrix in="SourceAlpha" type="matrix" values="0 0 0 0 0 0 0 0 0 0 0 0 0 0 0 0 0 0 127 0" result="hardAlpha"/>
<feOffset/>
<feGaussianBlur stdDeviation="2"/>
<feComposite in2="hardAlpha" operator="out"/>
<feColorMatrix type="matrix" values="0 0 0 0 0.937255 0 0 0 0 0.196078 0 0 0 0 0.552941 0 0 0 1 0"/>
<feBlend mode="normal" in2="effect3_dropShadow" result="effect4_dropShadow"/>
<feColorMatrix in="SourceAlpha" type="matrix" values="0 0 0 0 0 0 0 0 0 0 0 0 0 0 0 0 0 0 127 0" result="hardAlpha"/>
<feOffset/>
<feGaussianBlur stdDeviation="1.5"/>
<feComposite in2="hardAlpha" operator="out"/>
<feColorMatrix type="matrix" values="0 0 0 0 0.937255 0 0 0 0 0.196078 0 0 0 0 0.552941 0 0 0 1 0"/>
<feBlend mode="normal" in2="effect4_dropShadow" result="effect5_dropShadow"/>
<feBlend mode="normal" in="SourceGraphic" in2="effect5_dropShadow" result="shape"/>
</filter>
<filter id="filter13_dddd" x="33.3429" y="192.942" width="260.383" height="116.872" filterUnits="userSpaceOnUse" color-interpolation-filters="sRGB">
<feFlood flood-opacity="0" result="BackgroundImageFix"/>
<feColorMatrix in="SourceAlpha" type="matrix" values="0 0 0 0 0 0 0 0 0 0 0 0 0 0 0 0 0 0 127 0" result="hardAlpha"/>
<feOffset/>
<feGaussianBlur stdDeviation="2"/>
<feComposite in2="hardAlpha" operator="out"/>
<feColorMatrix type="matrix" values="0 0 0 0 0.196078 0 0 0 0 0.803922 0 0 0 0 0.937255 0 0 0 1 0"/>
<feBlend mode="normal" in2="BackgroundImageFix" result="effect1_dropShadow"/>
<feColorMatrix in="SourceAlpha" type="matrix" values="0 0 0 0 0 0 0 0 0 0 0 0 0 0 0 0 0 0 127 0" result="hardAlpha"/>
<feOffset/>
<feGaussianBlur stdDeviation="3"/>
<feComposite in2="hardAlpha" operator="out"/>
<feColorMatrix type="matrix" values="0 0 0 0 0.196078 0 0 0 0 0.803922 0 0 0 0 0.937255 0 0 0 1 0"/>
<feBlend mode="normal" in2="effect1_dropShadow" result="effect2_dropShadow"/>
<feColorMatrix in="SourceAlpha" type="matrix" values="0 0 0 0 0 0 0 0 0 0 0 0 0 0 0 0 0 0 127 0" result="hardAlpha"/>
<feOffset/>
<feGaussianBlur stdDeviation="2"/>
<feComposite in2="hardAlpha" operator="out"/>
<feColorMatrix type="matrix" values="0 0 0 0 0.196078 0 0 0 0 0.803922 0 0 0 0 0.937255 0 0 0 1 0"/>
<feBlend mode="normal" in2="effect2_dropShadow" result="effect3_dropShadow"/>
<feColorMatrix in="SourceAlpha" type="matrix" values="0 0 0 0 0 0 0 0 0 0 0 0 0 0 0 0 0 0 127 0" result="hardAlpha"/>
<feOffset/>
<feGaussianBlur stdDeviation="1.5"/>
<feComposite in2="hardAlpha" operator="out"/>
<feColorMatrix type="matrix" values="0 0 0 0 0.196078 0 0 0 0 0.803922 0 0 0 0 0.937255 0 0 0 1 0"/>
<feBlend mode="normal" in2="effect3_dropShadow" result="effect4_dropShadow"/>
<feBlend mode="normal" in="SourceGraphic" in2="effect4_dropShadow" result="shape"/>
</filter>
<filter id="filter14_dddd" x="43.6144" y="320.148" width="77.7576" height="44.4189" filterUnits="userSpaceOnUse" color-interpolation-filters="sRGB">
<feFlood flood-opacity="0" result="BackgroundImageFix"/>
<feColorMatrix in="SourceAlpha" type="matrix" values="0 0 0 0 0 0 0 0 0 0 0 0 0 0 0 0 0 0 127 0" result="hardAlpha"/>
<feOffset/>
<feGaussianBlur stdDeviation="2"/>
<feComposite in2="hardAlpha" operator="out"/>
<feColorMatrix type="matrix" values="0 0 0 0 0.196078 0 0 0 0 0.803922 0 0 0 0 0.937255 0 0 0 1 0"/>
<feBlend mode="normal" in2="BackgroundImageFix" result="effect1_dropShadow"/>
<feColorMatrix in="SourceAlpha" type="matrix" values="0 0 0 0 0 0 0 0 0 0 0 0 0 0 0 0 0 0 127 0" result="hardAlpha"/>
<feOffset/>
<feGaussianBlur stdDeviation="3"/>
<feComposite in2="hardAlpha" operator="out"/>
<feColorMatrix type="matrix" values="0 0 0 0 0.196078 0 0 0 0 0.803922 0 0 0 0 0.937255 0 0 0 1 0"/>
<feBlend mode="normal" in2="effect1_dropShadow" result="effect2_dropShadow"/>
<feColorMatrix in="SourceAlpha" type="matrix" values="0 0 0 0 0 0 0 0 0 0 0 0 0 0 0 0 0 0 127 0" result="hardAlpha"/>
<feOffset/>
<feGaussianBlur stdDeviation="2"/>
<feComposite in2="hardAlpha" operator="out"/>
<feColorMatrix type="matrix" values="0 0 0 0 0.196078 0 0 0 0 0.803922 0 0 0 0 0.937255 0 0 0 1 0"/>
<feBlend mode="normal" in2="effect2_dropShadow" result="effect3_dropShadow"/>
<feColorMatrix in="SourceAlpha" type="matrix" values="0 0 0 0 0 0 0 0 0 0 0 0 0 0 0 0 0 0 127 0" result="hardAlpha"/>
<feOffset/>
<feGaussianBlur stdDeviation="1.5"/>
<feComposite in2="hardAlpha" operator="out"/>
<feColorMatrix type="matrix" values="0 0 0 0 0.196078 0 0 0 0 0.803922 0 0 0 0 0.937255 0 0 0 1 0"/>
<feBlend mode="normal" in2="effect3_dropShadow" result="effect4_dropShadow"/>
<feBlend mode="normal" in="SourceGraphic" in2="effect4_dropShadow" result="shape"/>
</filter>
<filter id="filter15_dddd" x="274.176" y="204.301" width="82.0953" height="58.2023" filterUnits="userSpaceOnUse" color-interpolation-filters="sRGB">
<feFlood flood-opacity="0" result="BackgroundImageFix"/>
<feColorMatrix in="SourceAlpha" type="matrix" values="0 0 0 0 0 0 0 0 0 0 0 0 0 0 0 0 0 0 127 0" result="hardAlpha"/>
<feOffset/>
<feGaussianBlur stdDeviation="2"/>
<feComposite in2="hardAlpha" operator="out"/>
<feColorMatrix type="matrix" values="0 0 0 0 0.196078 0 0 0 0 0.803922 0 0 0 0 0.937255 0 0 0 1 0"/>
<feBlend mode="normal" in2="BackgroundImageFix" result="effect1_dropShadow"/>
<feColorMatrix in="SourceAlpha" type="matrix" values="0 0 0 0 0 0 0 0 0 0 0 0 0 0 0 0 0 0 127 0" result="hardAlpha"/>
<feOffset/>
<feGaussianBlur stdDeviation="3"/>
<feComposite in2="hardAlpha" operator="out"/>
<feColorMatrix type="matrix" values="0 0 0 0 0.196078 0 0 0 0 0.803922 0 0 0 0 0.937255 0 0 0 1 0"/>
<feBlend mode="normal" in2="effect1_dropShadow" result="effect2_dropShadow"/>
<feColorMatrix in="SourceAlpha" type="matrix" values="0 0 0 0 0 0 0 0 0 0 0 0 0 0 0 0 0 0 127 0" result="hardAlpha"/>
<feOffset/>
<feGaussianBlur stdDeviation="2"/>
<feComposite in2="hardAlpha" operator="out"/>
<feColorMatrix type="matrix" values="0 0 0 0 0.196078 0 0 0 0 0.803922 0 0 0 0 0.937255 0 0 0 1 0"/>
<feBlend mode="normal" in2="effect2_dropShadow" result="effect3_dropShadow"/>
<feColorMatrix in="SourceAlpha" type="matrix" values="0 0 0 0 0 0 0 0 0 0 0 0 0 0 0 0 0 0 127 0" result="hardAlpha"/>
<feOffset/>
<feGaussianBlur stdDeviation="1.5"/>
<feComposite in2="hardAlpha" operator="out"/>
<feColorMatrix type="matrix" values="0 0 0 0 0.196078 0 0 0 0 0.803922 0 0 0 0 0.937255 0 0 0 1 0"/>
<feBlend mode="normal" in2="effect3_dropShadow" result="effect4_dropShadow"/>
<feBlend mode="normal" in="SourceGraphic" in2="effect4_dropShadow" result="shape"/>
</filter>
<filter id="filter16_dddd" x="230.306" y="248.23" width="125.964" height="140.824" filterUnits="userSpaceOnUse" color-interpolation-filters="sRGB">
<feFlood flood-opacity="0" result="BackgroundImageFix"/>
<feColorMatrix in="SourceAlpha" type="matrix" values="0 0 0 0 0 0 0 0 0 0 0 0 0 0 0 0 0 0 127 0" result="hardAlpha"/>
<feOffset/>
<feGaussianBlur stdDeviation="2"/>
<feComposite in2="hardAlpha" operator="out"/>
<feColorMatrix type="matrix" values="0 0 0 0 0.196078 0 0 0 0 0.803922 0 0 0 0 0.937255 0 0 0 1 0"/>
<feBlend mode="normal" in2="BackgroundImageFix" result="effect1_dropShadow"/>
<feColorMatrix in="SourceAlpha" type="matrix" values="0 0 0 0 0 0 0 0 0 0 0 0 0 0 0 0 0 0 127 0" result="hardAlpha"/>
<feOffset/>
<feGaussianBlur stdDeviation="3"/>
<feComposite in2="hardAlpha" operator="out"/>
<feColorMatrix type="matrix" values="0 0 0 0 0.196078 0 0 0 0 0.803922 0 0 0 0 0.937255 0 0 0 1 0"/>
<feBlend mode="normal" in2="effect1_dropShadow" result="effect2_dropShadow"/>
<feColorMatrix in="SourceAlpha" type="matrix" values="0 0 0 0 0 0 0 0 0 0 0 0 0 0 0 0 0 0 127 0" result="hardAlpha"/>
<feOffset/>
<feGaussianBlur stdDeviation="2"/>
<feComposite in2="hardAlpha" operator="out"/>
<feColorMatrix type="matrix" values="0 0 0 0 0.196078 0 0 0 0 0.803922 0 0 0 0 0.937255 0 0 0 1 0"/>
<feBlend mode="normal" in2="effect2_dropShadow" result="effect3_dropShadow"/>
<feColorMatrix in="SourceAlpha" type="matrix" values="0 0 0 0 0 0 0 0 0 0 0 0 0 0 0 0 0 0 127 0" result="hardAlpha"/>
<feOffset/>
<feGaussianBlur stdDeviation="1.5"/>
<feComposite in2="hardAlpha" operator="out"/>
<feColorMatrix type="matrix" values="0 0 0 0 0.196078 0 0 0 0 0.803922 0 0 0 0 0.937255 0 0 0 1 0"/>
<feBlend mode="normal" in2="effect3_dropShadow" result="effect4_dropShadow"/>
<feBlend mode="normal" in="SourceGraphic" in2="effect4_dropShadow" result="shape"/>
</filter>
<filter id="filter17_dd" x="253.036" y="102.614" width="95.5006" height="110.477" filterUnits="userSpaceOnUse" color-interpolation-filters="sRGB">
<feFlood flood-opacity="0" result="BackgroundImageFix"/>
<feColorMatrix in="SourceAlpha" type="matrix" values="0 0 0 0 0 0 0 0 0 0 0 0 0 0 0 0 0 0 127 0" result="hardAlpha"/>
<feOffset/>
<feGaussianBlur stdDeviation="13.5"/>
<feComposite in2="hardAlpha" operator="out"/>
<feColorMatrix type="matrix" values="0 0 0 0 1 0 0 0 0 1 0 0 0 0 1 0 0 0 1 0"/>
<feBlend mode="normal" in2="BackgroundImageFix" result="effect1_dropShadow"/>
<feColorMatrix in="SourceAlpha" type="matrix" values="0 0 0 0 0 0 0 0 0 0 0 0 0 0 0 0 0 0 127 0" result="hardAlpha"/>
<feOffset dy="12"/>
<feGaussianBlur stdDeviation="3"/>
<feComposite in2="hardAlpha" operator="out"/>
<feColorMatrix type="matrix" values="0 0 0 0 0 0 0 0 0 0 0 0 0 0 0 0 0 0 0.3 0"/>
<feBlend mode="normal" in2="effect1_dropShadow" result="effect2_dropShadow"/>
<feBlend mode="normal" in="SourceGraphic" in2="effect2_dropShadow" result="shape"/>
</filter>
<filter id="filter18_dd" x="271.593" y="114.927" width="71.0348" height="69.8147" filterUnits="userSpaceOnUse" color-interpolation-filters="sRGB">
<feFlood flood-opacity="0" result="BackgroundImageFix"/>
<feColorMatrix in="SourceAlpha" type="matrix" values="0 0 0 0 0 0 0 0 0 0 0 0 0 0 0 0 0 0 127 0" result="hardAlpha"/>
<feOffset/>
<feGaussianBlur stdDeviation="13.5"/>
<feComposite in2="hardAlpha" operator="out"/>
<feColorMatrix type="matrix" values="0 0 0 0 1 0 0 0 0 1 0 0 0 0 1 0 0 0 1 0"/>
<feBlend mode="normal" in2="BackgroundImageFix" result="effect1_dropShadow"/>
<feColorMatrix in="SourceAlpha" type="matrix" values="0 0 0 0 0 0 0 0 0 0 0 0 0 0 0 0 0 0 127 0" result="hardAlpha"/>
<feOffset dy="12"/>
<feGaussianBlur stdDeviation="3"/>
<feComposite in2="hardAlpha" operator="out"/>
<feColorMatrix type="matrix" values="0 0 0 0 0 0 0 0 0 0 0 0 0 0 0 0 0 0 0.3 0"/>
<feBlend mode="normal" in2="effect1_dropShadow" result="effect2_dropShadow"/>
<feBlend mode="normal" in="SourceGraphic" in2="effect2_dropShadow" result="shape"/>
</filter>
<filter id="filter19_dd" x="265.378" y="129.522" width="74.4146" height="72.9417" filterUnits="userSpaceOnUse" color-interpolation-filters="sRGB">
<feFlood flood-opacity="0" result="BackgroundImageFix"/>
<feColorMatrix in="SourceAlpha" type="matrix" values="0 0 0 0 0 0 0 0 0 0 0 0 0 0 0 0 0 0 127 0" result="hardAlpha"/>
<feOffset/>
<feGaussianBlur stdDeviation="13.5"/>
<feComposite in2="hardAlpha" operator="out"/>
<feColorMatrix type="matrix" values="0 0 0 0 1 0 0 0 0 1 0 0 0 0 1 0 0 0 1 0"/>
<feBlend mode="normal" in2="BackgroundImageFix" result="effect1_dropShadow"/>
<feColorMatrix in="SourceAlpha" type="matrix" values="0 0 0 0 0 0 0 0 0 0 0 0 0 0 0 0 0 0 127 0" result="hardAlpha"/>
<feOffset dy="12"/>
<feGaussianBlur stdDeviation="3"/>
<feComposite in2="hardAlpha" operator="out"/>
<feColorMatrix type="matrix" values="0 0 0 0 0 0 0 0 0 0 0 0 0 0 0 0 0 0 0.3 0"/>
<feBlend mode="normal" in2="effect1_dropShadow" result="effect2_dropShadow"/>
<feBlend mode="normal" in="SourceGraphic" in2="effect2_dropShadow" result="shape"/>
</filter>
<filter id="filter20_dddd" x="275.036" y="124.614" width="51.5003" height="66.4766" filterUnits="userSpaceOnUse" color-interpolation-filters="sRGB">
<feFlood flood-opacity="0" result="BackgroundImageFix"/>
<feColorMatrix in="SourceAlpha" type="matrix" values="0 0 0 0 0 0 0 0 0 0 0 0 0 0 0 0 0 0 127 0" result="hardAlpha"/>
<feOffset/>
<feGaussianBlur stdDeviation="2"/>
<feComposite in2="hardAlpha" operator="out"/>
<feColorMatrix type="matrix" values="0 0 0 0 1 0 0 0 0 1 0 0 0 0 1 0 0 0 1 0"/>
<feBlend mode="normal" in2="BackgroundImageFix" result="effect1_dropShadow"/>
<feColorMatrix in="SourceAlpha" type="matrix" values="0 0 0 0 0 0 0 0 0 0 0 0 0 0 0 0 0 0 127 0" result="hardAlpha"/>
<feOffset/>
<feGaussianBlur stdDeviation="3"/>
<feComposite in2="hardAlpha" operator="out"/>
<feColorMatrix type="matrix" values="0 0 0 0 1 0 0 0 0 1 0 0 0 0 1 0 0 0 1 0"/>
<feBlend mode="normal" in2="effect1_dropShadow" result="effect2_dropShadow"/>
<feColorMatrix in="SourceAlpha" type="matrix" values="0 0 0 0 0 0 0 0 0 0 0 0 0 0 0 0 0 0 127 0" result="hardAlpha"/>
<feOffset/>
<feGaussianBlur stdDeviation="2"/>
<feComposite in2="hardAlpha" operator="out"/>
<feColorMatrix type="matrix" values="0 0 0 0 1 0 0 0 0 1 0 0 0 0 1 0 0 0 1 0"/>
<feBlend mode="normal" in2="effect2_dropShadow" result="effect3_dropShadow"/>
<feColorMatrix in="SourceAlpha" type="matrix" values="0 0 0 0 0 0 0 0 0 0 0 0 0 0 0 0 0 0 127 0" result="hardAlpha"/>
<feOffset/>
<feGaussianBlur stdDeviation="1.5"/>
<feComposite in2="hardAlpha" operator="out"/>
<feColorMatrix type="matrix" values="0 0 0 0 1 0 0 0 0 1 0 0 0 0 1 0 0 0 1 0"/>
<feBlend mode="normal" in2="effect3_dropShadow" result="effect4_dropShadow"/>
<feBlend mode="normal" in="SourceGraphic" in2="effect4_dropShadow" result="shape"/>
</filter>
<filter id="filter21_dddd" x="293.593" y="136.927" width="27.0342" height="25.8142" filterUnits="userSpaceOnUse" color-interpolation-filters="sRGB">
<feFlood flood-opacity="0" result="BackgroundImageFix"/>
<feColorMatrix in="SourceAlpha" type="matrix" values="0 0 0 0 0 0 0 0 0 0 0 0 0 0 0 0 0 0 127 0" result="hardAlpha"/>
<feOffset/>
<feGaussianBlur stdDeviation="2"/>
<feComposite in2="hardAlpha" operator="out"/>
<feColorMatrix type="matrix" values="0 0 0 0 1 0 0 0 0 1 0 0 0 0 1 0 0 0 1 0"/>
<feBlend mode="normal" in2="BackgroundImageFix" result="effect1_dropShadow"/>
<feColorMatrix in="SourceAlpha" type="matrix" values="0 0 0 0 0 0 0 0 0 0 0 0 0 0 0 0 0 0 127 0" result="hardAlpha"/>
<feOffset/>
<feGaussianBlur stdDeviation="3"/>
<feComposite in2="hardAlpha" operator="out"/>
<feColorMatrix type="matrix" values="0 0 0 0 1 0 0 0 0 1 0 0 0 0 1 0 0 0 1 0"/>
<feBlend mode="normal" in2="effect1_dropShadow" result="effect2_dropShadow"/>
<feColorMatrix in="SourceAlpha" type="matrix" values="0 0 0 0 0 0 0 0 0 0 0 0 0 0 0 0 0 0 127 0" result="hardAlpha"/>
<feOffset/>
<feGaussianBlur stdDeviation="2"/>
<feComposite in2="hardAlpha" operator="out"/>
<feColorMatrix type="matrix" values="0 0 0 0 1 0 0 0 0 1 0 0 0 0 1 0 0 0 1 0"/>
<feBlend mode="normal" in2="effect2_dropShadow" result="effect3_dropShadow"/>
<feColorMatrix in="SourceAlpha" type="matrix" values="0 0 0 0 0 0 0 0 0 0 0 0 0 0 0 0 0 0 127 0" result="hardAlpha"/>
<feOffset/>
<feGaussianBlur stdDeviation="1.5"/>
<feComposite in2="hardAlpha" operator="out"/>
<feColorMatrix type="matrix" values="0 0 0 0 1 0 0 0 0 1 0 0 0 0 1 0 0 0 1 0"/>
<feBlend mode="normal" in2="effect3_dropShadow" result="effect4_dropShadow"/>
<feBlend mode="normal" in="SourceGraphic" in2="effect4_dropShadow" result="shape"/>
</filter>
<filter id="filter22_dddd" x="287.379" y="151.522" width="30.4141" height="28.9412" filterUnits="userSpaceOnUse" color-interpolation-filters="sRGB">
<feFlood flood-opacity="0" result="BackgroundImageFix"/>
<feColorMatrix in="SourceAlpha" type="matrix" values="0 0 0 0 0 0 0 0 0 0 0 0 0 0 0 0 0 0 127 0" result="hardAlpha"/>
<feOffset/>
<feGaussianBlur stdDeviation="2"/>
<feComposite in2="hardAlpha" operator="out"/>
<feColorMatrix type="matrix" values="0 0 0 0 1 0 0 0 0 1 0 0 0 0 1 0 0 0 1 0"/>
<feBlend mode="normal" in2="BackgroundImageFix" result="effect1_dropShadow"/>
<feColorMatrix in="SourceAlpha" type="matrix" values="0 0 0 0 0 0 0 0 0 0 0 0 0 0 0 0 0 0 127 0" result="hardAlpha"/>
<feOffset/>
<feGaussianBlur stdDeviation="3"/>
<feComposite in2="hardAlpha" operator="out"/>
<feColorMatrix type="matrix" values="0 0 0 0 1 0 0 0 0 1 0 0 0 0 1 0 0 0 1 0"/>
<feBlend mode="normal" in2="effect1_dropShadow" result="effect2_dropShadow"/>
<feColorMatrix in="SourceAlpha" type="matrix" values="0 0 0 0 0 0 0 0 0 0 0 0 0 0 0 0 0 0 127 0" result="hardAlpha"/>
<feOffset/>
<feGaussianBlur stdDeviation="2"/>
<feComposite in2="hardAlpha" operator="out"/>
<feColorMatrix type="matrix" values="0 0 0 0 1 0 0 0 0 1 0 0 0 0 1 0 0 0 1 0"/>
<feBlend mode="normal" in2="effect2_dropShadow" result="effect3_dropShadow"/>
<feColorMatrix in="SourceAlpha" type="matrix" values="0 0 0 0 0 0 0 0 0 0 0 0 0 0 0 0 0 0 127 0" result="hardAlpha"/>
<feOffset/>
<feGaussianBlur stdDeviation="1.5"/>
<feComposite in2="hardAlpha" operator="out"/>
<feColorMatrix type="matrix" values="0 0 0 0 1 0 0 0 0 1 0 0 0 0 1 0 0 0 1 0"/>
<feBlend mode="normal" in2="effect3_dropShadow" result="effect4_dropShadow"/>
<feBlend mode="normal" in="SourceGraphic" in2="effect4_dropShadow" result="shape"/>
</filter>
</defs>
</svg>
