<svg width="36" height="36" viewBox="0 0 36 36" fill="none" xmlns="http://www.w3.org/2000/svg">
<g filter="url(#filter0_b_303_1794)">
<rect width="36" height="36" fill="white" fill-opacity="0.12"/>
</g>
<g clip-path="url(#clip0_303_1794)">
<path d="M25.4453 23.9445L21.4825 21.8488L21.2995 21.2769C21.2447 21.0853 21.158 20.8937 20.9796 20.8434C20.923 20.8274 20.8513 20.724 20.842 20.6518L20.7362 19.5398C20.7304 19.4446 20.7686 19.3591 20.8189 19.2991C21.1225 18.9353 21.288 18.514 21.358 18.0322C21.3932 17.79 21.5192 17.5666 21.584 17.3281L21.8381 15.9984C21.8646 15.8238 21.8594 15.6893 21.6643 15.6216C21.6105 15.6028 21.5636 15.5137 21.5636 15.3799L21.5662 12.8711C21.5248 12.2639 21.2033 11.7944 20.7472 11.4675C19.8762 10.8432 18.3163 11.1327 18.8254 10.1143C18.8555 10.0544 18.8459 9.95026 18.6366 10.0272C17.8557 10.3145 15.7758 11.0737 15.2533 11.4675C14.7856 11.82 14.4758 12.2639 14.4343 12.8711L14.4369 15.3799C14.4369 15.4903 14.3901 15.6028 14.3362 15.6216C14.141 15.6892 14.1359 15.8238 14.1624 15.9984L14.4166 17.3281C14.4812 17.5666 14.6073 17.79 14.6425 18.0322C14.7125 18.514 14.8781 18.9353 15.1816 19.2991C15.2318 19.3591 15.2701 19.4446 15.2643 19.5398L15.1585 20.6518C15.1492 20.724 15.0774 20.8274 15.0208 20.8434C14.8425 20.8937 14.7557 21.0853 14.7009 21.2769L14.5178 21.8488L10.5549 23.9445C10.4526 23.9985 10.3887 24.1047 10.3887 24.2204V25.6878C10.3887 25.8601 10.5285 25.9999 10.7009 25.9999H25.2994C25.4718 25.9999 25.6116 25.8601 25.6116 25.6878V24.2204C25.6115 24.1047 25.5475 23.9985 25.4453 23.9445Z" fill="white" fill-opacity="0.2"/>
</g>
<defs>
<filter id="filter0_b_303_1794" x="-4" y="-4" width="44" height="44" filterUnits="userSpaceOnUse" color-interpolation-filters="sRGB">
<feFlood flood-opacity="0" result="BackgroundImageFix"/>
<feGaussianBlur in="BackgroundImage" stdDeviation="2"/>
<feComposite in2="SourceAlpha" operator="in" result="effect1_backgroundBlur_303_1794"/>
<feBlend mode="normal" in="SourceGraphic" in2="effect1_backgroundBlur_303_1794" result="shape"/>
</filter>
<clipPath id="clip0_303_1794">
<rect width="16" height="16" fill="white" transform="translate(10 10)"/>
</clipPath>
</defs>
</svg>
