<svg width="16" height="16" viewBox="0 0 16 16" fill="none" xmlns="http://www.w3.org/2000/svg">
<path d="M15.5312 0.78125C14.326 0.78125 1.13812 0.78125 0.468749 0.78125C0.209875 0.78125 0 0.991125 0 1.25C0 1.50887 0.209875 1.71875 0.468749 1.71875H1.59375V14.75C1.59375 14.907 1.6724 15.0536 1.80322 15.1405C1.93422 15.2275 2.09993 15.2428 2.24437 15.182L5.03133 14.0086L7.8183 15.182C7.93458 15.231 8.06577 15.231 8.18211 15.182L10.9689 14.0086L13.7556 15.182C13.9003 15.2429 14.066 15.2273 14.1968 15.1405C14.3276 15.0536 14.4063 14.907 14.4063 14.75V1.71875H15.5313C15.7901 1.71875 16 1.50887 16 1.25C16 0.991125 15.7901 0.78125 15.5312 0.78125ZM4.62499 10.625C4.2798 10.625 3.99999 10.3452 3.99999 9.99998C3.99999 9.65479 4.2798 9.37498 4.62499 9.37498C4.97018 9.37498 5.24999 9.65479 5.24999 9.99998C5.24999 10.3452 4.97018 10.625 4.62499 10.625ZM4.62499 8.12498C4.2798 8.12498 3.99999 7.84517 3.99999 7.49999C3.99999 7.1548 4.2798 6.87499 4.62499 6.87499C4.97018 6.87499 5.24999 7.1548 5.24999 7.49999C5.24999 7.84517 4.97018 8.12498 4.62499 8.12498ZM5.18749 3.74999C5.18749 3.49112 5.39736 3.28124 5.65624 3.28124H10.3437C10.6026 3.28124 10.8125 3.49112 10.8125 3.74999C10.8125 4.00887 10.6026 4.21874 10.3437 4.21874H5.65624C5.39736 4.21874 5.18749 4.00887 5.18749 3.74999ZM11.4375 10.4687H7.06249C6.80361 10.4687 6.59374 10.2589 6.59374 9.99998C6.59374 9.74111 6.80361 9.53123 7.06249 9.53123H11.4375C11.6964 9.53123 11.9062 9.74111 11.9062 9.99998C11.9062 10.2589 11.6964 10.4687 11.4375 10.4687ZM11.4375 7.96874H7.06249C6.80361 7.96874 6.59374 7.75886 6.59374 7.49999C6.59374 7.24111 6.80361 7.03124 7.06249 7.03124H11.4375C11.6964 7.03124 11.9062 7.24111 11.9062 7.49999C11.9062 7.75886 11.6964 7.96874 11.4375 7.96874Z" fill="white" fill-opacity="0.2"/>
</svg>
