<svg width="407" height="539" viewBox="0 0 407 539" fill="none" xmlns="http://www.w3.org/2000/svg">
<g filter="url(#filter0_dd)">
<path d="M158.082 485C139.394 485 127.386 481.176 125.201 473.659L121.573 429.932C121.518 429.243 121.737 428.561 122.184 428.033C122.63 427.506 123.267 427.177 123.956 427.117C124.298 427.086 124.642 427.122 124.97 427.225C125.297 427.328 125.601 427.496 125.863 427.718C126.125 427.94 126.34 428.211 126.496 428.517C126.652 428.824 126.745 429.157 126.77 429.5L130.302 472.709C132.309 479.389 160.017 484.494 212.831 472.513C253.107 463.394 265.347 455.389 268.522 450.278C269.308 449.015 269.561 447.845 269.287 446.704L266.089 407.161C266.033 406.473 266.253 405.791 266.699 405.264C267.146 404.737 267.783 404.408 268.471 404.35C268.814 404.313 269.161 404.345 269.491 404.446C269.82 404.547 270.126 404.714 270.389 404.937C270.653 405.16 270.868 405.434 271.022 405.743C271.176 406.051 271.266 406.388 271.285 406.732L274.418 445.88C274.96 448.015 274.484 450.555 272.929 453.027C267.467 461.809 248.175 469.847 213.963 477.599C192.163 482.561 172.993 485 158.082 485ZM154.958 432.287C139.156 432.287 128.009 429.583 123.595 424.196C121.368 421.477 120.963 418.153 122.443 414.851C122.738 414.238 123.261 413.765 123.9 413.532C124.538 413.299 125.243 413.324 125.863 413.602C126.484 413.88 126.972 414.389 127.223 415.021C127.474 415.653 127.468 416.358 127.208 416.986C126.526 418.493 126.66 419.696 127.634 420.893C133.471 428.014 161.584 430.754 209.531 419.881C254.137 409.782 263.882 401.029 265.716 396.714C266.312 395.276 266.211 393.977 265.32 392.515C265.12 392.221 264.982 391.89 264.914 391.541C264.846 391.193 264.85 390.834 264.925 390.486C265.001 390.139 265.146 389.811 265.353 389.522C265.559 389.233 265.822 388.989 266.126 388.805C266.43 388.621 266.769 388.501 267.12 388.452C267.472 388.403 267.831 388.426 268.173 388.52C268.516 388.614 268.836 388.777 269.113 388.999C269.391 389.221 269.62 389.497 269.787 389.811C271.982 393.453 271.393 396.687 270.514 398.745C266.497 408.177 246.927 416.754 210.681 424.952C189.114 429.869 169.944 432.302 154.958 432.302V432.287Z" fill="#B92146"/>
</g>
<g filter="url(#filter1_dd)">
<path d="M149.829 469.895C143.197 469.895 137.351 464.588 136.407 457.387C135.389 449.585 140.472 442.47 147.742 441.514C155.011 440.558 161.757 446.148 162.781 453.942C163.286 457.606 162.397 461.326 160.288 464.365C159.133 466.076 157.575 467.477 155.751 468.445C153.928 469.413 151.894 469.918 149.829 469.916V469.895ZM149.356 446.615C149.042 446.616 148.729 446.636 148.418 446.675C144.004 447.253 140.937 451.738 141.586 456.693C142.235 461.649 146.297 465.172 150.767 464.615C151.824 464.469 152.838 464.102 153.742 463.538C154.647 462.973 155.423 462.224 156.018 461.339C157.373 459.373 157.938 456.969 157.602 454.606C157.001 450.013 153.406 446.615 149.356 446.615ZM203.682 467.164C200.664 467.164 197.714 466.269 195.205 464.593C192.695 462.916 190.74 460.533 189.584 457.745C188.429 454.957 188.127 451.889 188.716 448.929C189.304 445.969 190.757 443.249 192.891 441.115C195.025 438.981 197.744 437.527 200.704 436.938C203.663 436.349 206.732 436.651 209.52 437.805C212.308 438.96 214.692 440.915 216.369 443.424C218.046 445.934 218.942 448.884 218.942 451.902C218.938 455.948 217.33 459.828 214.469 462.691C211.608 465.553 207.729 467.164 203.682 467.17V467.164ZM203.682 441.85C201.696 441.85 199.754 442.44 198.103 443.543C196.451 444.647 195.164 446.216 194.404 448.051C193.644 449.886 193.446 451.906 193.834 453.854C194.222 455.802 195.179 457.591 196.584 458.996C197.989 460.4 199.779 461.356 201.727 461.742C203.675 462.129 205.695 461.93 207.53 461.169C209.364 460.408 210.932 459.12 212.035 457.467C213.138 455.815 213.726 453.873 213.725 451.887C213.714 449.229 212.652 446.683 210.77 444.807C208.889 442.93 206.34 441.874 203.682 441.871V441.85ZM253.649 451.184C247.633 451.184 242.469 445.228 242.034 437.592C241.817 433.917 242.71 430.376 244.536 427.615C246.519 424.619 249.361 422.874 252.529 422.689C255.668 422.457 258.718 423.904 261.05 426.65C263.182 429.179 264.48 432.592 264.698 436.261C264.915 439.93 264.025 443.471 262.199 446.237C260.24 449.185 257.324 450.984 254.2 451.163C254.006 451.184 253.825 451.184 253.649 451.184ZM253.053 427.889H252.824C251.335 427.978 249.935 428.902 248.884 430.492C247.693 432.279 247.097 434.766 247.231 437.282C247.529 442.166 250.549 445.835 253.884 445.951C255.373 445.862 256.779 444.939 257.833 443.342C259.024 441.556 259.62 439.075 259.486 436.561C259.352 434.048 258.444 431.668 257.053 430.01C255.877 428.654 254.471 427.901 253.053 427.901V427.889ZM175.891 291.185C173.681 291.185 171.909 290.348 170.914 288.71C169.3 286.054 165.417 276.905 167.183 270.973C167.796 268.921 169.05 267.399 170.81 266.556C171.633 266.15 172.535 265.925 173.453 265.898C174.371 265.872 175.283 266.043 176.129 266.402C180.894 268.373 184.036 275.759 186.255 281.971L186.573 282.864C187.496 285.181 185.793 287.629 181.886 289.571C179.715 290.646 177.663 291.185 175.891 291.185ZM173.059 271.259C172.779 271.396 172.43 271.655 172.186 272.471C171.159 275.914 173.675 283.192 175.376 286.006C176.317 286.441 179.977 284.961 181.353 283.791L181.323 283.716C178.047 274.484 175.611 271.84 174.137 271.226C173.967 271.147 173.781 271.11 173.594 271.115C173.407 271.121 173.223 271.17 173.059 271.259ZM181.68 284.693C181.691 284.731 181.705 284.768 181.722 284.803L181.68 284.693ZM205.285 275.461C203.078 275.461 201.303 274.624 200.311 272.986C198.694 270.324 194.814 261.178 196.58 255.252C197.193 253.197 198.45 251.678 200.201 250.829C201.024 250.421 201.927 250.195 202.845 250.169C203.764 250.143 204.678 250.316 205.523 250.677C210.288 252.649 213.433 260.031 215.648 266.244L215.967 267.137C216.89 269.454 215.187 271.902 211.277 273.844C209.111 274.925 207.06 275.476 205.285 275.476V275.461ZM203.036 255.386C202.834 255.391 202.636 255.444 202.458 255.54C202.178 255.671 201.827 255.931 201.583 256.732C200.555 260.174 203.072 267.453 204.769 270.273C205.725 270.708 209.371 269.219 210.749 268.057L210.723 267.983C207.447 258.751 205.005 256.1 203.531 255.49C203.374 255.423 203.206 255.387 203.036 255.386ZM211.077 268.972C211.077 269.004 211.107 269.046 211.119 269.079L211.077 268.972ZM347.004 205.193C346.489 205.192 345.986 205.041 345.558 204.756C345.13 204.471 344.795 204.066 344.596 203.592C344.397 203.118 344.342 202.595 344.439 202.09C344.536 201.585 344.779 201.12 345.139 200.752L358.079 187.619C358.568 187.14 359.225 186.873 359.909 186.874C360.593 186.875 361.25 187.144 361.737 187.624C362.225 188.104 362.505 188.756 362.517 189.44C362.529 190.124 362.272 190.785 361.802 191.282L348.865 204.415C348.621 204.662 348.332 204.857 348.012 204.99C347.693 205.124 347.35 205.193 347.004 205.193Z" fill="#BBBDBF"/>
</g>
<g filter="url(#filter2_dd)">
<path d="M135.219 418.544C134.697 418.544 134.188 418.388 133.756 418.096C133.323 417.805 132.989 417.39 132.795 416.906C130.808 411.938 128.521 406.834 125.799 401.309C103.928 356.873 99.9611 341.545 91.2531 307.949L87.6496 294.113C85.0587 284.261 75.085 265.383 64.5247 245.397C54.1936 225.846 43.5142 205.63 37.2274 189.471C29.1865 168.773 38.3382 162.102 41.3342 160.551C49.3096 156.435 60.5698 161.28 67.5415 171.841C69.9776 175.528 73.7955 181.228 78.1942 187.842C88.8111 203.76 102.484 224.261 109.822 235.685C110.301 227.978 111.352 216.587 113.577 208.4C115.194 202.444 119.706 197.977 126.285 195.817C133.259 193.524 141.669 194.278 145.842 197.577C152.286 202.67 187.77 261.38 193.64 278.284C196.249 285.825 194.287 292.615 188.381 296.45C180.849 301.335 169.384 299.938 162.278 293.27C151.512 283.171 122.136 241.954 121.478 226.93C121.448 226.239 121.694 225.564 122.161 225.054C122.629 224.544 123.279 224.241 123.971 224.211C125.335 224.077 126.63 225.262 126.69 226.706C127.241 239.351 154.824 279.121 165.846 289.464C171.829 295.083 180.736 295.194 185.534 292.073C189.405 289.565 190.528 285.28 188.703 280.005C182.633 262.506 147.709 205.714 142.602 201.681C140.142 199.734 133.825 198.837 127.911 200.788C124.474 201.92 120.072 204.397 118.607 209.785C115.176 222.397 114.655 244.033 114.652 244.256C114.64 244.826 114.442 245.376 114.088 245.823C113.734 246.27 113.244 246.588 112.691 246.73C112.139 246.871 111.556 246.828 111.031 246.607C110.506 246.385 110.067 245.998 109.783 245.504C106.001 238.952 86.652 209.945 73.8461 190.752C69.4296 184.128 65.6236 178.419 63.1816 174.729C57.139 165.587 48.5442 162.71 43.7226 165.2C38.4067 167.951 37.7664 176.531 42.0817 187.598C48.2553 203.474 58.8663 223.555 69.1259 242.973C79.8291 263.224 89.9398 282.364 92.6856 292.796L96.2921 306.659C105.155 340.893 108.821 355.068 130.457 399.013C133.238 404.672 135.582 409.886 137.604 414.976C137.862 415.619 137.853 416.339 137.581 416.976C137.308 417.613 136.794 418.116 136.151 418.374C135.853 418.485 135.537 418.543 135.219 418.544ZM258.396 397.837C258.341 397.84 258.285 397.84 258.229 397.837C257.887 397.815 257.553 397.726 257.246 397.574C256.938 397.423 256.664 397.213 256.438 396.955C256.212 396.698 256.039 396.398 255.929 396.074C255.819 395.749 255.774 395.406 255.796 395.064C256.719 380.969 260.561 369.128 267.905 357.79C276.244 344.913 280.035 330.827 284.064 315.906C286.745 305.992 289.499 295.745 293.719 285.869C304.619 260.341 331.878 226.307 344.049 213.766L347.251 210.49C356.242 201.3 367.433 189.861 366.814 184.283C366.745 183.688 366.516 182.946 365.393 182.199C349.145 171.656 318.688 180.986 287.233 225.622C278.263 238.363 269.796 239.837 264.302 238.821C254.569 237.034 245.948 225.893 241.802 209.74C239.167 199.483 233.919 174.795 228.359 148.656C220.851 113.345 212.337 73.3251 207.885 57.4905C204.135 44.1546 196.538 38.246 190.999 39.339C186.067 40.295 181.731 47.082 183.157 60.1023C187.446 99.306 193.664 136.461 198.658 166.316C200.192 175.504 201.595 183.887 202.762 191.285C202.824 191.627 202.817 191.977 202.742 192.317C202.666 192.656 202.524 192.977 202.323 193.26C202.122 193.543 201.866 193.784 201.571 193.967C201.275 194.15 200.947 194.273 200.603 194.327C200.26 194.381 199.91 194.367 199.572 194.283C199.235 194.2 198.917 194.051 198.638 193.844C198.36 193.636 198.125 193.375 197.948 193.076C197.772 192.777 197.657 192.445 197.61 192.101C196.443 184.724 195.043 176.35 193.506 167.174C188.506 137.253 182.273 100.021 177.969 60.6741C176.061 43.2373 183.259 35.524 190.007 34.2167C197.61 32.7127 208.09 38.9369 212.915 56.0759C217.406 72.0743 225.935 112.183 233.463 147.569C239.009 173.654 244.247 198.289 246.865 208.442C250.439 222.388 257.658 232.299 265.249 233.687C272.491 235.009 278.885 228.401 282.962 222.617C316.424 175.114 349.898 165.902 368.232 177.818C370.426 179.244 371.731 181.275 371.996 183.699C372.889 191.74 362.246 202.613 350.976 214.133L347.796 217.409C333.799 231.829 308.208 265.237 298.517 287.927C294.449 297.457 291.73 307.532 289.1 317.27C285.145 331.923 281.059 347.075 272.28 360.637C265.451 371.192 261.857 382.241 260.999 395.41C260.954 396.069 260.66 396.686 260.176 397.137C259.693 397.587 259.057 397.838 258.396 397.837ZM244.167 384.254C232.174 384.233 215.077 378.962 206.387 364.167C200.085 353.445 196.261 334.022 213.832 302.368C214.178 301.783 214.738 301.356 215.394 301.178C216.05 300.999 216.75 301.084 217.344 301.413C217.939 301.742 218.382 302.29 218.579 302.94C218.776 303.591 218.712 304.292 218.4 304.896C205.44 328.248 202.846 347.832 210.889 361.522C218.466 374.42 233.559 379.012 244.188 379.033C244.865 379.056 245.506 379.341 245.977 379.828C246.448 380.315 246.711 380.966 246.711 381.643C246.711 382.321 246.448 382.972 245.977 383.459C245.506 383.946 244.865 384.231 244.188 384.254H244.167ZM207.956 286.128C204.775 286.128 201.425 285.083 198.191 282.989C197.896 282.807 197.64 282.567 197.438 282.284C197.237 282.001 197.094 281.68 197.018 281.341C196.943 281.002 196.935 280.652 196.997 280.31C197.058 279.968 197.187 279.642 197.376 279.35C197.565 279.059 197.811 278.809 198.098 278.613C198.385 278.418 198.709 278.282 199.049 278.214C199.39 278.145 199.741 278.145 200.081 278.214C200.422 278.283 200.745 278.419 201.032 278.615C205.559 281.527 210.05 281.664 213.358 278.987C217.769 275.434 218.781 268.242 215.928 260.669L215.452 259.415C191.669 196.118 183.452 184.346 181.022 182.219C177.955 179.539 173.946 179.611 171.15 180.153C164.782 181.359 157.748 186.255 155.145 191.294C154.827 191.908 154.278 192.371 153.618 192.58C152.958 192.79 152.243 192.729 151.628 192.41C151.014 192.092 150.551 191.543 150.341 190.883C150.132 190.224 150.193 189.508 150.511 188.893C153.883 182.38 162.153 176.546 170.167 175.024C175.825 173.949 180.772 175.078 184.462 178.3C190.478 183.56 202.554 210.234 220.345 257.583L220.812 258.834C224.476 268.555 222.838 278.061 216.643 283.055C214.192 285.057 211.121 286.144 207.956 286.128ZM95.6816 275.44C95.0478 275.444 94.4347 275.215 93.9587 274.797C93.4827 274.378 93.1769 273.8 93.0996 273.171C93.034 272.626 91.7654 259.769 113.684 249.513C113.995 249.367 114.331 249.285 114.673 249.27C115.016 249.255 115.358 249.307 115.68 249.424C116.002 249.541 116.298 249.72 116.551 249.952C116.804 250.183 117.009 250.462 117.154 250.772C117.299 251.083 117.381 251.419 117.397 251.761C117.412 252.104 117.359 252.446 117.242 252.768C117.125 253.09 116.946 253.386 116.715 253.639C116.483 253.892 116.204 254.097 115.894 254.242C97.6948 262.753 98.2785 272.498 98.2874 272.593C98.3442 273.277 98.1316 273.955 97.6948 274.485C97.258 275.014 96.6317 275.351 95.9496 275.425C95.8638 275.437 95.7771 275.442 95.6905 275.44H95.6816ZM206.154 206.271C205.537 206.269 204.94 206.049 204.47 205.649C203.999 205.25 203.686 204.696 203.584 204.088C203.483 203.479 203.601 202.854 203.916 202.323C204.232 201.793 204.725 201.391 205.309 201.19C207.057 200.594 222.665 195.442 231.438 199.031C232.079 199.292 232.59 199.798 232.859 200.436C233.127 201.074 233.131 201.792 232.869 202.433C232.608 203.074 232.103 203.585 231.464 203.853C230.826 204.122 230.108 204.126 229.467 203.864C223.549 201.446 211.235 204.683 206.997 206.131C206.729 206.222 206.447 206.269 206.163 206.271H206.154Z" fill="#059FDA"/>
</g>
<g filter="url(#filter3_dddd)">
<path d="M135.219 416.98C135.01 416.979 134.806 416.916 134.634 416.798C134.461 416.68 134.328 416.513 134.251 416.319C132.25 411.319 129.942 406.193 127.202 400.615C105.405 356.331 101.706 342.054 92.7809 307.553C91.6731 303.279 90.4878 298.702 89.1774 293.711C86.5388 283.689 76.5235 264.731 65.9184 244.664C55.6053 225.146 44.9496 204.978 38.7016 188.905C33.5882 175.757 34.83 165.676 42.0668 161.939C49.3036 158.201 59.718 162.832 66.252 172.704C68.691 176.394 72.506 182.094 76.9106 188.715C88.9779 206.807 105.009 230.84 111.159 240.662C111.457 233.892 112.386 218.865 115.12 208.811C116.609 203.388 120.742 199.302 126.803 197.306C133.316 195.156 141.098 195.794 144.904 198.796C151.265 203.823 186.365 262.006 192.19 278.793C194.587 285.705 192.896 291.659 187.553 295.122C181.463 299.077 170.751 299.029 163.38 292.114C151.735 281.185 123.667 240.495 123.077 226.846C123.071 226.709 123.092 226.573 123.139 226.444C123.186 226.315 123.258 226.197 123.351 226.096C123.443 225.995 123.555 225.913 123.679 225.855C123.803 225.798 123.938 225.765 124.075 225.759C124.703 225.798 125.144 226.185 125.162 226.76C125.737 240.001 153.35 279.842 164.806 290.593C171.43 296.802 180.992 296.882 186.418 293.371C190.96 290.435 192.306 285.494 190.218 279.472C184.095 261.845 148.784 204.528 143.605 200.433C140.773 198.191 133.965 197.158 127.455 199.278C122.094 201.047 118.419 204.639 117.13 209.353C113.651 222.159 113.127 243.982 113.121 244.197C113.116 244.424 113.037 244.644 112.896 244.823C112.754 245.001 112.559 245.128 112.338 245.185C112.117 245.238 111.886 245.219 111.676 245.131C111.467 245.043 111.291 244.891 111.174 244.697C107.365 238.101 88.7664 210.217 75.1863 189.858C70.7698 183.235 66.9638 177.529 64.5247 173.836C57.7495 163.594 48.4102 161.03 43.0377 163.779C38.2727 166.248 35.1368 173.943 40.6552 188.134C46.8645 204.094 57.4934 224.214 67.7768 243.673C78.4384 263.852 88.5073 282.906 91.2055 293.169C92.5188 298.154 93.7041 302.74 94.812 307.017C103.702 341.366 107.383 355.584 129.09 399.677C131.854 405.291 134.177 410.476 136.199 415.53C136.249 415.658 136.274 415.795 136.271 415.933C136.269 416.071 136.239 416.208 136.184 416.334C136.128 416.461 136.048 416.575 135.949 416.67C135.849 416.766 135.732 416.841 135.603 416.891C135.481 416.943 135.351 416.974 135.219 416.98Z" fill="#44D3F2"/>
</g>
<g filter="url(#filter4_dddd)">
<path d="M207.95 284.553C205.061 284.553 201.994 283.594 199.048 281.679C198.822 281.527 198.664 281.292 198.608 281.025C198.553 280.758 198.604 280.48 198.752 280.25C198.899 280.021 199.13 279.858 199.396 279.797C199.662 279.736 199.942 279.782 200.174 279.925C205.216 283.18 210.517 283.302 214.344 280.223C219.291 276.235 220.485 268.346 217.388 260.13L216.917 258.879C193.87 197.53 185.176 183.792 182.052 181.058C178.511 177.958 174.012 178.014 170.858 178.628C163.955 179.935 156.608 185.078 153.755 190.588C153.627 190.834 153.408 191.019 153.144 191.102C152.881 191.186 152.595 191.162 152.349 191.035C152.103 190.907 151.918 190.688 151.834 190.424C151.751 190.161 151.775 189.875 151.902 189.629C155.017 183.604 162.999 177.996 170.465 176.576C175.632 175.59 180.12 176.594 183.425 179.486C190.674 185.823 206.705 225.759 218.865 258.143L219.332 259.397C222.751 268.468 221.304 277.283 215.642 281.849C213.469 283.614 210.75 284.569 207.95 284.553Z" fill="#44D3F2"/>
</g>
<g filter="url(#filter5_dddd)">
<path d="M258.396 396.274H258.331C258.194 396.266 258.06 396.231 257.936 396.171C257.813 396.111 257.703 396.027 257.612 395.924C257.522 395.821 257.453 395.7 257.41 395.57C257.366 395.44 257.349 395.302 257.36 395.166C258.253 381.35 262.032 369.745 269.216 358.648C277.682 345.545 281.515 331.357 285.571 316.312C288.252 306.451 290.983 296.254 295.161 286.489C305.977 261.148 333.072 227.332 345.175 214.857L348.368 211.581C358.064 201.658 369.068 190.418 368.369 184.099C368.217 182.767 367.526 181.716 366.239 180.882C349.38 169.914 317.994 179.224 285.953 224.717C277.447 236.787 269.624 238.214 264.588 237.273C255.469 235.602 247.315 224.902 243.327 209.344C240.703 199.12 235.45 174.447 229.899 148.326C222.379 112.991 213.868 72.944 209.403 57.0618C205.204 42.1385 196.749 36.6171 190.71 37.7965C185.483 38.809 179.968 45.3013 181.606 60.2722C185.906 99.5146 192.121 136.69 197.125 166.567C198.658 175.751 200.061 184.137 201.229 191.523C201.251 191.659 201.245 191.797 201.214 191.93C201.182 192.064 201.124 192.19 201.043 192.3C200.962 192.411 200.86 192.505 200.742 192.576C200.625 192.647 200.495 192.694 200.359 192.714C200.087 192.754 199.81 192.686 199.588 192.525C199.365 192.363 199.215 192.122 199.168 191.851C198.006 184.465 196.601 176.088 195.07 166.912C190.064 137.012 183.839 99.8005 179.539 60.4956C177.752 44.116 184.227 36.9298 190.314 35.7475C197.348 34.3984 206.869 40.3159 211.423 56.496C215.89 72.4407 224.428 112.523 231.942 147.891C237.493 173.991 242.74 198.641 245.358 208.829C249.143 223.585 256.657 233.699 264.975 235.221C271.348 236.394 278.028 232.347 284.246 223.511C317.104 176.895 349.672 167.621 367.389 179.137C369.202 180.328 370.23 181.913 370.447 183.878C371.254 191.178 360.381 202.295 349.863 213.046L346.676 216.322C332.602 230.828 306.85 264.46 297.082 287.311C292.966 296.948 290.232 307.073 287.596 316.865C283.668 331.402 279.618 346.432 270.976 359.786C263.998 370.575 260.326 381.868 259.441 395.312C259.421 395.574 259.302 395.82 259.108 395.998C258.914 396.177 258.66 396.275 258.396 396.274Z" fill="#44D3F2"/>
</g>
<g filter="url(#filter6_dddd)">
<path d="M244.167 382.687C232.582 382.666 216.083 377.598 207.727 363.368C201.637 352.999 197.979 334.126 215.193 303.121C215.26 303.002 215.349 302.897 215.457 302.812C215.565 302.727 215.688 302.664 215.819 302.627C215.951 302.59 216.089 302.579 216.225 302.595C216.361 302.611 216.492 302.654 216.612 302.721C216.731 302.788 216.837 302.877 216.921 302.985C217.006 303.092 217.069 303.216 217.106 303.347C217.143 303.479 217.154 303.617 217.138 303.753C217.122 303.889 217.079 304.02 217.012 304.14C200.284 334.284 203.709 352.415 209.526 362.314C217.441 375.778 233.133 380.582 244.167 380.594C244.313 380.578 244.461 380.593 244.601 380.639C244.741 380.684 244.87 380.758 244.979 380.856C245.088 380.955 245.176 381.075 245.236 381.209C245.296 381.343 245.327 381.489 245.327 381.636C245.327 381.783 245.296 381.928 245.236 382.063C245.176 382.197 245.088 382.317 244.979 382.416C244.87 382.514 244.741 382.588 244.601 382.633C244.461 382.679 244.313 382.694 244.167 382.678V382.687Z" fill="#44D3F2"/>
</g>
<g filter="url(#filter7_dddd)">
<path d="M95.6964 273.897C95.4419 273.897 95.1963 273.804 95.0059 273.635C94.8155 273.466 94.6936 273.233 94.663 272.98C94.6064 272.483 93.4509 260.707 114.357 250.942C114.608 250.824 114.895 250.81 115.156 250.903C115.416 250.996 115.63 251.189 115.748 251.44C115.866 251.69 115.881 251.977 115.787 252.238C115.694 252.499 115.501 252.712 115.251 252.83C95.8364 261.908 96.7358 272.641 96.7447 272.751C96.7748 273.025 96.6948 273.3 96.5223 273.516C96.3498 273.731 96.0988 273.87 95.8245 273.9C95.7818 273.903 95.739 273.902 95.6964 273.897Z" fill="#44D3F2"/>
</g>
<g filter="url(#filter8_dddd)">
<path d="M206.163 204.704C205.915 204.705 205.676 204.618 205.486 204.458C205.297 204.298 205.17 204.076 205.129 203.832C205.088 203.588 205.135 203.337 205.262 203.124C205.388 202.911 205.586 202.75 205.821 202.67C206.503 202.447 222.498 197.053 230.855 200.484C230.982 200.535 231.098 200.611 231.195 200.707C231.293 200.803 231.371 200.917 231.424 201.044C231.477 201.17 231.505 201.306 231.505 201.443C231.506 201.58 231.479 201.715 231.426 201.842C231.377 201.97 231.302 202.087 231.206 202.186C231.11 202.284 230.995 202.363 230.869 202.416C230.742 202.469 230.606 202.497 230.468 202.496C230.331 202.496 230.195 202.468 230.068 202.414C222.415 199.293 206.658 204.591 206.503 204.647C206.393 204.684 206.279 204.703 206.163 204.704Z" fill="#44D3F2"/>
</g>
<g filter="url(#filter9_ddddd)">
<path d="M155.372 430.706C138.754 430.706 128.482 427.695 124.816 423.216C122.958 420.947 122.636 418.284 123.881 415.506C123.937 415.381 124.018 415.268 124.117 415.174C124.217 415.08 124.334 415.007 124.462 414.958C124.59 414.909 124.727 414.886 124.863 414.89C125 414.895 125.135 414.925 125.26 414.982C125.385 415.038 125.498 415.118 125.592 415.218C125.686 415.317 125.759 415.434 125.808 415.562C125.856 415.691 125.879 415.827 125.875 415.964C125.871 416.101 125.84 416.236 125.784 416.36C124.861 418.421 125.073 420.232 126.431 421.894C132.559 429.381 161.274 432.433 209.88 421.423C252.896 411.688 264.772 402.959 267.158 397.342C267.968 395.445 267.804 393.605 266.669 391.714C266.599 391.596 266.552 391.466 266.532 391.331C266.512 391.196 266.519 391.058 266.552 390.925C266.585 390.792 266.644 390.667 266.726 390.557C266.807 390.447 266.909 390.355 267.027 390.284C267.144 390.214 267.274 390.167 267.409 390.147C267.545 390.127 267.683 390.134 267.815 390.167C267.948 390.2 268.073 390.259 268.183 390.34C268.293 390.422 268.386 390.524 268.456 390.642C269.945 393.107 270.163 395.636 269.088 398.155C265.338 406.971 245.561 415.485 210.347 423.469C187.666 428.594 169.285 430.706 155.372 430.706Z" fill="#F858A5"/>
</g>
<g filter="url(#filter10_ddddd)">
<path d="M158.4 483.457C138.9 483.457 128.441 479.19 126.704 473.224L123.131 429.81C123.119 429.673 123.134 429.535 123.176 429.404C123.217 429.274 123.284 429.152 123.373 429.047C123.461 428.942 123.57 428.856 123.692 428.793C123.814 428.73 123.947 428.692 124.084 428.681C124.358 428.663 124.629 428.752 124.839 428.93C125.05 429.107 125.182 429.36 125.209 429.634L128.741 472.843C130.877 480.095 155.744 487.061 213.18 474.052C253.98 464.82 266.52 456.482 269.859 451.121C270.877 449.483 271.19 447.925 270.818 446.356L267.658 407.045C267.647 406.908 267.662 406.771 267.705 406.64C267.747 406.51 267.814 406.389 267.904 406.285C267.993 406.181 268.102 406.095 268.224 406.034C268.347 405.972 268.48 405.935 268.617 405.925C269.233 405.943 269.695 406.304 269.737 406.881L272.87 446.031C273.352 447.979 272.938 450.12 271.631 452.22C266.47 460.511 246.957 468.543 213.641 476.092C190.615 481.31 172.234 483.457 158.4 483.457Z" fill="#F858A5"/>
</g>
<g filter="url(#filter11_dddd)">
<path d="M149.83 468.332C143.972 468.332 138.811 463.596 137.962 457.167C137.068 450.222 141.535 443.896 147.947 443.053C154.359 442.211 160.321 447.19 161.227 454.132C161.68 457.404 160.888 460.726 159.008 463.442C158.123 464.743 156.974 465.842 155.635 466.669C154.296 467.495 152.798 468.029 151.238 468.236C150.771 468.299 150.301 468.331 149.83 468.332ZM149.356 445.043C148.976 445.045 148.596 445.071 148.218 445.12C142.944 445.814 139.284 451.077 140.032 456.896C140.779 462.715 145.735 466.831 150.967 466.172C152.239 465.997 153.459 465.557 154.55 464.881C155.641 464.204 156.577 463.306 157.299 462.244C158.88 459.956 159.542 457.157 159.154 454.403C158.451 449.019 154.181 445.043 149.356 445.043Z" fill="white"/>
</g>
<g filter="url(#filter12_dddd)">
<path d="M253.649 449.626C248.449 449.626 243.985 444.304 243.583 437.508C243.386 434.173 244.179 430.971 245.826 428.491C247.532 425.918 249.944 424.414 252.607 424.265C252.765 424.265 252.922 424.265 253.071 424.265C255.57 424.265 257.955 425.456 259.838 427.692C261.761 429.962 262.923 433.053 263.113 436.383C263.31 439.712 262.518 442.911 260.871 445.391C259.167 447.967 256.755 449.477 254.09 449.626C253.947 449.626 253.798 449.626 253.649 449.626ZM253.053 426.337C252.946 426.337 252.83 426.337 252.723 426.337C250.725 426.454 248.896 427.63 247.565 429.64C246.165 431.749 245.48 434.491 245.656 437.383C246.007 443.22 249.825 447.807 253.965 447.53C255.957 447.413 257.792 446.237 259.123 444.227C260.522 442.121 261.207 439.367 261.032 436.484C260.862 433.595 259.864 430.945 258.232 429.015C256.767 427.281 254.939 426.337 253.053 426.337Z" fill="white"/>
</g>
<g filter="url(#filter13_dddd)">
<path d="M203.682 465.607C200.973 465.607 198.324 464.803 196.072 463.298C193.819 461.793 192.063 459.653 191.026 457.15C189.989 454.647 189.718 451.892 190.246 449.235C190.775 446.577 192.08 444.136 193.996 442.22C195.911 440.305 198.352 439 201.01 438.471C203.667 437.943 206.422 438.214 208.925 439.251C211.428 440.288 213.568 442.044 215.073 444.296C216.578 446.549 217.382 449.198 217.382 451.907C217.376 455.539 215.931 459.02 213.363 461.588C210.795 464.156 207.314 465.601 203.682 465.607ZM203.682 440.293C201.385 440.293 199.14 440.974 197.23 442.25C195.32 443.526 193.831 445.34 192.952 447.463C192.073 449.585 191.843 451.92 192.291 454.173C192.739 456.426 193.845 458.496 195.47 460.12C197.094 461.744 199.164 462.851 201.417 463.299C203.67 463.747 206.005 463.517 208.127 462.638C210.249 461.759 212.063 460.27 213.34 458.36C214.616 456.45 215.297 454.204 215.297 451.907C215.293 448.83 214.068 445.879 211.89 443.704C209.712 441.529 206.76 440.308 203.682 440.308V440.293Z" fill="white"/>
</g>
<g filter="url(#filter14_dddd)">
<path d="M175.831 289.627C174.324 289.627 173.011 289.145 172.258 287.9C170.798 285.497 167.09 276.786 168.684 271.422C169.172 269.784 170.113 268.623 171.48 267.965C172.106 267.655 172.791 267.483 173.49 267.463C174.188 267.443 174.882 267.575 175.524 267.849C180.263 269.805 183.527 279.019 184.757 282.492C184.914 282.927 185.028 283.254 185.111 283.451C185.96 285.586 182.312 287.602 181.171 288.168C179.521 288.996 177.553 289.627 175.831 289.627ZM172.383 269.853C171.561 270.246 171.004 270.955 170.688 272.021C169.47 276.104 172.222 283.826 174.041 286.816C174.563 287.683 176.028 287.581 176.853 287.447C179.875 286.956 182.97 284.845 183.154 284.055C183 283.784 182.881 283.493 182.8 283.192C181.764 280.27 178.613 271.381 174.732 269.79C174.36 269.626 173.956 269.547 173.549 269.56C173.142 269.573 172.744 269.677 172.383 269.865V269.853Z" fill="white"/>
</g>
<g filter="url(#filter15_dddd)">
<path d="M205.225 273.903C203.721 273.903 202.405 273.421 201.651 272.176C200.192 269.773 196.487 261.05 198.078 255.698C198.566 254.057 199.51 252.896 200.877 252.243C201.501 251.928 202.186 251.755 202.884 251.734C203.583 251.713 204.277 251.847 204.918 252.124C209.656 254.081 212.923 263.298 214.15 266.768C214.308 267.202 214.421 267.53 214.505 267.727C215.354 269.859 211.705 271.878 210.571 272.444C208.921 273.272 206.949 273.903 205.225 273.903ZM203.036 253.822C202.6 253.825 202.171 253.927 201.779 254.12C200.957 254.513 200.401 255.224 200.079 256.288C198.864 260.368 201.616 268.093 203.429 271.083C203.953 271.955 205.413 271.86 206.25 271.717C209.269 271.229 212.367 269.114 212.551 268.325C212.397 268.053 212.278 267.763 212.197 267.462C211.154 264.54 208.01 255.647 204.129 254.06C203.784 253.911 203.412 253.83 203.036 253.822Z" fill="white"/>
</g>
<g filter="url(#filter16_dddd)">
<path d="M347.004 203.629C346.795 203.633 346.59 203.574 346.415 203.46C346.24 203.345 346.104 203.181 346.024 202.988C345.944 202.796 345.924 202.583 345.966 202.379C346.009 202.174 346.112 201.987 346.262 201.842L359.199 188.712C359.295 188.614 359.41 188.536 359.536 188.483C359.663 188.429 359.799 188.401 359.936 188.4C360.073 188.399 360.209 188.426 360.337 188.477C360.464 188.529 360.58 188.605 360.677 188.701C360.775 188.798 360.853 188.913 360.907 189.039C360.96 189.166 360.988 189.301 360.989 189.439C360.99 189.576 360.964 189.712 360.912 189.839C360.86 189.967 360.784 190.082 360.688 190.18L347.757 203.319C347.659 203.42 347.542 203.499 347.412 203.552C347.283 203.605 347.144 203.631 347.004 203.629Z" fill="white"/>
</g>
<defs>
<filter id="filter0_dd" x="67.5648" y="334.427" width="261.069" height="204.573" filterUnits="userSpaceOnUse" color-interpolation-filters="sRGB">
<feFlood flood-opacity="0" result="BackgroundImageFix"/>
<feColorMatrix in="SourceAlpha" type="matrix" values="0 0 0 0 0 0 0 0 0 0 0 0 0 0 0 0 0 0 127 0" result="hardAlpha"/>
<feOffset/>
<feGaussianBlur stdDeviation="27"/>
<feComposite in2="hardAlpha" operator="out"/>
<feColorMatrix type="matrix" values="0 0 0 0 0.776471 0 0 0 0 0.152941 0 0 0 0 0.345098 0 0 0 1 0"/>
<feBlend mode="normal" in2="BackgroundImageFix" result="effect1_dropShadow"/>
<feColorMatrix in="SourceAlpha" type="matrix" values="0 0 0 0 0 0 0 0 0 0 0 0 0 0 0 0 0 0 127 0" result="hardAlpha"/>
<feOffset dy="10"/>
<feGaussianBlur stdDeviation="3"/>
<feComposite in2="hardAlpha" operator="out"/>
<feColorMatrix type="matrix" values="0 0 0 0 0 0 0 0 0 0 0 0 0 0 0 0 0 0 0.23 0"/>
<feBlend mode="normal" in2="effect1_dropShadow" result="effect2_dropShadow"/>
<feBlend mode="normal" in="SourceGraphic" in2="effect2_dropShadow" result="shape"/>
</filter>
<filter id="filter1_dd" x="109.277" y="159.874" width="280.24" height="337.042" filterUnits="userSpaceOnUse" color-interpolation-filters="sRGB">
<feFlood flood-opacity="0" result="BackgroundImageFix"/>
<feColorMatrix in="SourceAlpha" type="matrix" values="0 0 0 0 0 0 0 0 0 0 0 0 0 0 0 0 0 0 127 0" result="hardAlpha"/>
<feOffset/>
<feGaussianBlur stdDeviation="13.5"/>
<feComposite in2="hardAlpha" operator="out"/>
<feColorMatrix type="matrix" values="0 0 0 0 1 0 0 0 0 1 0 0 0 0 1 0 0 0 1 0"/>
<feBlend mode="normal" in2="BackgroundImageFix" result="effect1_dropShadow"/>
<feColorMatrix in="SourceAlpha" type="matrix" values="0 0 0 0 0 0 0 0 0 0 0 0 0 0 0 0 0 0 127 0" result="hardAlpha"/>
<feOffset dy="12"/>
<feGaussianBlur stdDeviation="3"/>
<feComposite in2="hardAlpha" operator="out"/>
<feColorMatrix type="matrix" values="0 0 0 0 0 0 0 0 0 0 0 0 0 0 0 0 0 0 0.3 0"/>
<feBlend mode="normal" in2="effect1_dropShadow" result="effect2_dropShadow"/>
<feBlend mode="normal" in="SourceGraphic" in2="effect2_dropShadow" result="shape"/>
</filter>
<filter id="filter2_dd" x="0" y="0" width="406.048" height="452.544" filterUnits="userSpaceOnUse" color-interpolation-filters="sRGB">
<feFlood flood-opacity="0" result="BackgroundImageFix"/>
<feColorMatrix in="SourceAlpha" type="matrix" values="0 0 0 0 0 0 0 0 0 0 0 0 0 0 0 0 0 0 127 0" result="hardAlpha"/>
<feOffset/>
<feGaussianBlur stdDeviation="17"/>
<feComposite in2="hardAlpha" operator="out"/>
<feColorMatrix type="matrix" values="0 0 0 0 0.0941176 0 0 0 0 0.65098 0 0 0 0 0.866667 0 0 0 1 0"/>
<feBlend mode="normal" in2="BackgroundImageFix" result="effect1_dropShadow"/>
<feColorMatrix in="SourceAlpha" type="matrix" values="0 0 0 0 0 0 0 0 0 0 0 0 0 0 0 0 0 0 127 0" result="hardAlpha"/>
<feOffset dy="8"/>
<feGaussianBlur stdDeviation="2"/>
<feComposite in2="hardAlpha" operator="out"/>
<feColorMatrix type="matrix" values="0 0 0 0 0 0 0 0 0 0 0 0 0 0 0 0 0 0 0.18 0"/>
<feBlend mode="normal" in2="effect1_dropShadow" result="effect2_dropShadow"/>
<feBlend mode="normal" in="SourceGraphic" in2="effect2_dropShadow" result="shape"/>
</filter>
<filter id="filter3_dddd" x="29.592" y="154.649" width="169.663" height="268.331" filterUnits="userSpaceOnUse" color-interpolation-filters="sRGB">
<feFlood flood-opacity="0" result="BackgroundImageFix"/>
<feColorMatrix in="SourceAlpha" type="matrix" values="0 0 0 0 0 0 0 0 0 0 0 0 0 0 0 0 0 0 127 0" result="hardAlpha"/>
<feOffset/>
<feGaussianBlur stdDeviation="2"/>
<feComposite in2="hardAlpha" operator="out"/>
<feColorMatrix type="matrix" values="0 0 0 0 0.196078 0 0 0 0 0.803922 0 0 0 0 0.937255 0 0 0 1 0"/>
<feBlend mode="normal" in2="BackgroundImageFix" result="effect1_dropShadow"/>
<feColorMatrix in="SourceAlpha" type="matrix" values="0 0 0 0 0 0 0 0 0 0 0 0 0 0 0 0 0 0 127 0" result="hardAlpha"/>
<feOffset/>
<feGaussianBlur stdDeviation="3"/>
<feComposite in2="hardAlpha" operator="out"/>
<feColorMatrix type="matrix" values="0 0 0 0 0.196078 0 0 0 0 0.803922 0 0 0 0 0.937255 0 0 0 1 0"/>
<feBlend mode="normal" in2="effect1_dropShadow" result="effect2_dropShadow"/>
<feColorMatrix in="SourceAlpha" type="matrix" values="0 0 0 0 0 0 0 0 0 0 0 0 0 0 0 0 0 0 127 0" result="hardAlpha"/>
<feOffset/>
<feGaussianBlur stdDeviation="2"/>
<feComposite in2="hardAlpha" operator="out"/>
<feColorMatrix type="matrix" values="0 0 0 0 0.196078 0 0 0 0 0.803922 0 0 0 0 0.937255 0 0 0 1 0"/>
<feBlend mode="normal" in2="effect2_dropShadow" result="effect3_dropShadow"/>
<feColorMatrix in="SourceAlpha" type="matrix" values="0 0 0 0 0 0 0 0 0 0 0 0 0 0 0 0 0 0 127 0" result="hardAlpha"/>
<feOffset/>
<feGaussianBlur stdDeviation="1.5"/>
<feComposite in2="hardAlpha" operator="out"/>
<feColorMatrix type="matrix" values="0 0 0 0 0.196078 0 0 0 0 0.803922 0 0 0 0 0.937255 0 0 0 1 0"/>
<feBlend mode="normal" in2="effect3_dropShadow" result="effect4_dropShadow"/>
<feBlend mode="normal" in="SourceGraphic" in2="effect4_dropShadow" result="shape"/>
</filter>
<filter id="filter4_dddd" x="145.785" y="170.208" width="81.3778" height="120.345" filterUnits="userSpaceOnUse" color-interpolation-filters="sRGB">
<feFlood flood-opacity="0" result="BackgroundImageFix"/>
<feColorMatrix in="SourceAlpha" type="matrix" values="0 0 0 0 0 0 0 0 0 0 0 0 0 0 0 0 0 0 127 0" result="hardAlpha"/>
<feOffset/>
<feGaussianBlur stdDeviation="2"/>
<feComposite in2="hardAlpha" operator="out"/>
<feColorMatrix type="matrix" values="0 0 0 0 0.196078 0 0 0 0 0.803922 0 0 0 0 0.937255 0 0 0 1 0"/>
<feBlend mode="normal" in2="BackgroundImageFix" result="effect1_dropShadow"/>
<feColorMatrix in="SourceAlpha" type="matrix" values="0 0 0 0 0 0 0 0 0 0 0 0 0 0 0 0 0 0 127 0" result="hardAlpha"/>
<feOffset/>
<feGaussianBlur stdDeviation="3"/>
<feComposite in2="hardAlpha" operator="out"/>
<feColorMatrix type="matrix" values="0 0 0 0 0.196078 0 0 0 0 0.803922 0 0 0 0 0.937255 0 0 0 1 0"/>
<feBlend mode="normal" in2="effect1_dropShadow" result="effect2_dropShadow"/>
<feColorMatrix in="SourceAlpha" type="matrix" values="0 0 0 0 0 0 0 0 0 0 0 0 0 0 0 0 0 0 127 0" result="hardAlpha"/>
<feOffset/>
<feGaussianBlur stdDeviation="2"/>
<feComposite in2="hardAlpha" operator="out"/>
<feColorMatrix type="matrix" values="0 0 0 0 0.196078 0 0 0 0 0.803922 0 0 0 0 0.937255 0 0 0 1 0"/>
<feBlend mode="normal" in2="effect2_dropShadow" result="effect3_dropShadow"/>
<feColorMatrix in="SourceAlpha" type="matrix" values="0 0 0 0 0 0 0 0 0 0 0 0 0 0 0 0 0 0 127 0" result="hardAlpha"/>
<feOffset/>
<feGaussianBlur stdDeviation="1.5"/>
<feComposite in2="hardAlpha" operator="out"/>
<feColorMatrix type="matrix" values="0 0 0 0 0.196078 0 0 0 0 0.803922 0 0 0 0 0.937255 0 0 0 1 0"/>
<feBlend mode="normal" in2="effect3_dropShadow" result="effect4_dropShadow"/>
<feBlend mode="normal" in="SourceGraphic" in2="effect4_dropShadow" result="shape"/>
</filter>
<filter id="filter5_dddd" x="173.237" y="29.562" width="203.252" height="372.712" filterUnits="userSpaceOnUse" color-interpolation-filters="sRGB">
<feFlood flood-opacity="0" result="BackgroundImageFix"/>
<feColorMatrix in="SourceAlpha" type="matrix" values="0 0 0 0 0 0 0 0 0 0 0 0 0 0 0 0 0 0 127 0" result="hardAlpha"/>
<feOffset/>
<feGaussianBlur stdDeviation="2"/>
<feComposite in2="hardAlpha" operator="out"/>
<feColorMatrix type="matrix" values="0 0 0 0 0.196078 0 0 0 0 0.803922 0 0 0 0 0.937255 0 0 0 1 0"/>
<feBlend mode="normal" in2="BackgroundImageFix" result="effect1_dropShadow"/>
<feColorMatrix in="SourceAlpha" type="matrix" values="0 0 0 0 0 0 0 0 0 0 0 0 0 0 0 0 0 0 127 0" result="hardAlpha"/>
<feOffset/>
<feGaussianBlur stdDeviation="3"/>
<feComposite in2="hardAlpha" operator="out"/>
<feColorMatrix type="matrix" values="0 0 0 0 0.196078 0 0 0 0 0.803922 0 0 0 0 0.937255 0 0 0 1 0"/>
<feBlend mode="normal" in2="effect1_dropShadow" result="effect2_dropShadow"/>
<feColorMatrix in="SourceAlpha" type="matrix" values="0 0 0 0 0 0 0 0 0 0 0 0 0 0 0 0 0 0 127 0" result="hardAlpha"/>
<feOffset/>
<feGaussianBlur stdDeviation="2"/>
<feComposite in2="hardAlpha" operator="out"/>
<feColorMatrix type="matrix" values="0 0 0 0 0.196078 0 0 0 0 0.803922 0 0 0 0 0.937255 0 0 0 1 0"/>
<feBlend mode="normal" in2="effect2_dropShadow" result="effect3_dropShadow"/>
<feColorMatrix in="SourceAlpha" type="matrix" values="0 0 0 0 0 0 0 0 0 0 0 0 0 0 0 0 0 0 127 0" result="hardAlpha"/>
<feOffset/>
<feGaussianBlur stdDeviation="1.5"/>
<feComposite in2="hardAlpha" operator="out"/>
<feColorMatrix type="matrix" values="0 0 0 0 0.196078 0 0 0 0 0.803922 0 0 0 0 0.937255 0 0 0 1 0"/>
<feBlend mode="normal" in2="effect3_dropShadow" result="effect4_dropShadow"/>
<feBlend mode="normal" in="SourceGraphic" in2="effect4_dropShadow" result="shape"/>
</filter>
<filter id="filter6_dddd" x="196.661" y="296.588" width="54.6654" height="92.0993" filterUnits="userSpaceOnUse" color-interpolation-filters="sRGB">
<feFlood flood-opacity="0" result="BackgroundImageFix"/>
<feColorMatrix in="SourceAlpha" type="matrix" values="0 0 0 0 0 0 0 0 0 0 0 0 0 0 0 0 0 0 127 0" result="hardAlpha"/>
<feOffset/>
<feGaussianBlur stdDeviation="2"/>
<feComposite in2="hardAlpha" operator="out"/>
<feColorMatrix type="matrix" values="0 0 0 0 0.196078 0 0 0 0 0.803922 0 0 0 0 0.937255 0 0 0 1 0"/>
<feBlend mode="normal" in2="BackgroundImageFix" result="effect1_dropShadow"/>
<feColorMatrix in="SourceAlpha" type="matrix" values="0 0 0 0 0 0 0 0 0 0 0 0 0 0 0 0 0 0 127 0" result="hardAlpha"/>
<feOffset/>
<feGaussianBlur stdDeviation="3"/>
<feComposite in2="hardAlpha" operator="out"/>
<feColorMatrix type="matrix" values="0 0 0 0 0.196078 0 0 0 0 0.803922 0 0 0 0 0.937255 0 0 0 1 0"/>
<feBlend mode="normal" in2="effect1_dropShadow" result="effect2_dropShadow"/>
<feColorMatrix in="SourceAlpha" type="matrix" values="0 0 0 0 0 0 0 0 0 0 0 0 0 0 0 0 0 0 127 0" result="hardAlpha"/>
<feOffset/>
<feGaussianBlur stdDeviation="2"/>
<feComposite in2="hardAlpha" operator="out"/>
<feColorMatrix type="matrix" values="0 0 0 0 0.196078 0 0 0 0 0.803922 0 0 0 0 0.937255 0 0 0 1 0"/>
<feBlend mode="normal" in2="effect2_dropShadow" result="effect3_dropShadow"/>
<feColorMatrix in="SourceAlpha" type="matrix" values="0 0 0 0 0 0 0 0 0 0 0 0 0 0 0 0 0 0 127 0" result="hardAlpha"/>
<feOffset/>
<feGaussianBlur stdDeviation="1.5"/>
<feComposite in2="hardAlpha" operator="out"/>
<feColorMatrix type="matrix" values="0 0 0 0 0.196078 0 0 0 0 0.803922 0 0 0 0 0.937255 0 0 0 1 0"/>
<feBlend mode="normal" in2="effect3_dropShadow" result="effect4_dropShadow"/>
<feBlend mode="normal" in="SourceGraphic" in2="effect4_dropShadow" result="shape"/>
</filter>
<filter id="filter7_dddd" x="88.6351" y="244.842" width="33.2132" height="35.0598" filterUnits="userSpaceOnUse" color-interpolation-filters="sRGB">
<feFlood flood-opacity="0" result="BackgroundImageFix"/>
<feColorMatrix in="SourceAlpha" type="matrix" values="0 0 0 0 0 0 0 0 0 0 0 0 0 0 0 0 0 0 127 0" result="hardAlpha"/>
<feOffset/>
<feGaussianBlur stdDeviation="2"/>
<feComposite in2="hardAlpha" operator="out"/>
<feColorMatrix type="matrix" values="0 0 0 0 0.196078 0 0 0 0 0.803922 0 0 0 0 0.937255 0 0 0 1 0"/>
<feBlend mode="normal" in2="BackgroundImageFix" result="effect1_dropShadow"/>
<feColorMatrix in="SourceAlpha" type="matrix" values="0 0 0 0 0 0 0 0 0 0 0 0 0 0 0 0 0 0 127 0" result="hardAlpha"/>
<feOffset/>
<feGaussianBlur stdDeviation="3"/>
<feComposite in2="hardAlpha" operator="out"/>
<feColorMatrix type="matrix" values="0 0 0 0 0.196078 0 0 0 0 0.803922 0 0 0 0 0.937255 0 0 0 1 0"/>
<feBlend mode="normal" in2="effect1_dropShadow" result="effect2_dropShadow"/>
<feColorMatrix in="SourceAlpha" type="matrix" values="0 0 0 0 0 0 0 0 0 0 0 0 0 0 0 0 0 0 127 0" result="hardAlpha"/>
<feOffset/>
<feGaussianBlur stdDeviation="2"/>
<feComposite in2="hardAlpha" operator="out"/>
<feColorMatrix type="matrix" values="0 0 0 0 0.196078 0 0 0 0 0.803922 0 0 0 0 0.937255 0 0 0 1 0"/>
<feBlend mode="normal" in2="effect2_dropShadow" result="effect3_dropShadow"/>
<feColorMatrix in="SourceAlpha" type="matrix" values="0 0 0 0 0 0 0 0 0 0 0 0 0 0 0 0 0 0 127 0" result="hardAlpha"/>
<feOffset/>
<feGaussianBlur stdDeviation="1.5"/>
<feComposite in2="hardAlpha" operator="out"/>
<feColorMatrix type="matrix" values="0 0 0 0 0.196078 0 0 0 0 0.803922 0 0 0 0 0.937255 0 0 0 1 0"/>
<feBlend mode="normal" in2="effect3_dropShadow" result="effect4_dropShadow"/>
<feBlend mode="normal" in="SourceGraphic" in2="effect4_dropShadow" result="shape"/>
</filter>
<filter id="filter8_dddd" x="199.115" y="193.345" width="38.3905" height="17.3588" filterUnits="userSpaceOnUse" color-interpolation-filters="sRGB">
<feFlood flood-opacity="0" result="BackgroundImageFix"/>
<feColorMatrix in="SourceAlpha" type="matrix" values="0 0 0 0 0 0 0 0 0 0 0 0 0 0 0 0 0 0 127 0" result="hardAlpha"/>
<feOffset/>
<feGaussianBlur stdDeviation="2"/>
<feComposite in2="hardAlpha" operator="out"/>
<feColorMatrix type="matrix" values="0 0 0 0 0.196078 0 0 0 0 0.803922 0 0 0 0 0.937255 0 0 0 1 0"/>
<feBlend mode="normal" in2="BackgroundImageFix" result="effect1_dropShadow"/>
<feColorMatrix in="SourceAlpha" type="matrix" values="0 0 0 0 0 0 0 0 0 0 0 0 0 0 0 0 0 0 127 0" result="hardAlpha"/>
<feOffset/>
<feGaussianBlur stdDeviation="3"/>
<feComposite in2="hardAlpha" operator="out"/>
<feColorMatrix type="matrix" values="0 0 0 0 0.196078 0 0 0 0 0.803922 0 0 0 0 0.937255 0 0 0 1 0"/>
<feBlend mode="normal" in2="effect1_dropShadow" result="effect2_dropShadow"/>
<feColorMatrix in="SourceAlpha" type="matrix" values="0 0 0 0 0 0 0 0 0 0 0 0 0 0 0 0 0 0 127 0" result="hardAlpha"/>
<feOffset/>
<feGaussianBlur stdDeviation="2"/>
<feComposite in2="hardAlpha" operator="out"/>
<feColorMatrix type="matrix" values="0 0 0 0 0.196078 0 0 0 0 0.803922 0 0 0 0 0.937255 0 0 0 1 0"/>
<feBlend mode="normal" in2="effect2_dropShadow" result="effect3_dropShadow"/>
<feColorMatrix in="SourceAlpha" type="matrix" values="0 0 0 0 0 0 0 0 0 0 0 0 0 0 0 0 0 0 127 0" result="hardAlpha"/>
<feOffset/>
<feGaussianBlur stdDeviation="1.5"/>
<feComposite in2="hardAlpha" operator="out"/>
<feColorMatrix type="matrix" values="0 0 0 0 0.196078 0 0 0 0 0.803922 0 0 0 0 0.937255 0 0 0 1 0"/>
<feBlend mode="normal" in2="effect3_dropShadow" result="effect4_dropShadow"/>
<feBlend mode="normal" in="SourceGraphic" in2="effect4_dropShadow" result="shape"/>
</filter>
<filter id="filter9_ddddd" x="117.137" y="384.136" width="158.622" height="52.5702" filterUnits="userSpaceOnUse" color-interpolation-filters="sRGB">
<feFlood flood-opacity="0" result="BackgroundImageFix"/>
<feColorMatrix in="SourceAlpha" type="matrix" values="0 0 0 0 0 0 0 0 0 0 0 0 0 0 0 0 0 0 127 0" result="hardAlpha"/>
<feOffset/>
<feGaussianBlur stdDeviation="1"/>
<feComposite in2="hardAlpha" operator="out"/>
<feColorMatrix type="matrix" values="0 0 0 0 0.937255 0 0 0 0 0.196078 0 0 0 0 0.552941 0 0 0 1 0"/>
<feBlend mode="normal" in2="BackgroundImageFix" result="effect1_dropShadow"/>
<feColorMatrix in="SourceAlpha" type="matrix" values="0 0 0 0 0 0 0 0 0 0 0 0 0 0 0 0 0 0 127 0" result="hardAlpha"/>
<feOffset/>
<feGaussianBlur stdDeviation="2"/>
<feComposite in2="hardAlpha" operator="out"/>
<feColorMatrix type="matrix" values="0 0 0 0 0.937255 0 0 0 0 0.196078 0 0 0 0 0.552941 0 0 0 1 0"/>
<feBlend mode="normal" in2="effect1_dropShadow" result="effect2_dropShadow"/>
<feColorMatrix in="SourceAlpha" type="matrix" values="0 0 0 0 0 0 0 0 0 0 0 0 0 0 0 0 0 0 127 0" result="hardAlpha"/>
<feOffset/>
<feGaussianBlur stdDeviation="3"/>
<feComposite in2="hardAlpha" operator="out"/>
<feColorMatrix type="matrix" values="0 0 0 0 0.937255 0 0 0 0 0.196078 0 0 0 0 0.552941 0 0 0 1 0"/>
<feBlend mode="normal" in2="effect2_dropShadow" result="effect3_dropShadow"/>
<feColorMatrix in="SourceAlpha" type="matrix" values="0 0 0 0 0 0 0 0 0 0 0 0 0 0 0 0 0 0 127 0" result="hardAlpha"/>
<feOffset/>
<feGaussianBlur stdDeviation="2"/>
<feComposite in2="hardAlpha" operator="out"/>
<feColorMatrix type="matrix" values="0 0 0 0 0.937255 0 0 0 0 0.196078 0 0 0 0 0.552941 0 0 0 1 0"/>
<feBlend mode="normal" in2="effect3_dropShadow" result="effect4_dropShadow"/>
<feColorMatrix in="SourceAlpha" type="matrix" values="0 0 0 0 0 0 0 0 0 0 0 0 0 0 0 0 0 0 127 0" result="hardAlpha"/>
<feOffset/>
<feGaussianBlur stdDeviation="1.5"/>
<feComposite in2="hardAlpha" operator="out"/>
<feColorMatrix type="matrix" values="0 0 0 0 0.937255 0 0 0 0 0.196078 0 0 0 0 0.552941 0 0 0 1 0"/>
<feBlend mode="normal" in2="effect4_dropShadow" result="effect5_dropShadow"/>
<feBlend mode="normal" in="SourceGraphic" in2="effect5_dropShadow" result="shape"/>
</filter>
<filter id="filter10_ddddd" x="117.127" y="399.925" width="161.938" height="89.5319" filterUnits="userSpaceOnUse" color-interpolation-filters="sRGB">
<feFlood flood-opacity="0" result="BackgroundImageFix"/>
<feColorMatrix in="SourceAlpha" type="matrix" values="0 0 0 0 0 0 0 0 0 0 0 0 0 0 0 0 0 0 127 0" result="hardAlpha"/>
<feOffset/>
<feGaussianBlur stdDeviation="1"/>
<feComposite in2="hardAlpha" operator="out"/>
<feColorMatrix type="matrix" values="0 0 0 0 0.937255 0 0 0 0 0.196078 0 0 0 0 0.552941 0 0 0 1 0"/>
<feBlend mode="normal" in2="BackgroundImageFix" result="effect1_dropShadow"/>
<feColorMatrix in="SourceAlpha" type="matrix" values="0 0 0 0 0 0 0 0 0 0 0 0 0 0 0 0 0 0 127 0" result="hardAlpha"/>
<feOffset/>
<feGaussianBlur stdDeviation="2"/>
<feComposite in2="hardAlpha" operator="out"/>
<feColorMatrix type="matrix" values="0 0 0 0 0.937255 0 0 0 0 0.196078 0 0 0 0 0.552941 0 0 0 1 0"/>
<feBlend mode="normal" in2="effect1_dropShadow" result="effect2_dropShadow"/>
<feColorMatrix in="SourceAlpha" type="matrix" values="0 0 0 0 0 0 0 0 0 0 0 0 0 0 0 0 0 0 127 0" result="hardAlpha"/>
<feOffset/>
<feGaussianBlur stdDeviation="3"/>
<feComposite in2="hardAlpha" operator="out"/>
<feColorMatrix type="matrix" values="0 0 0 0 0.937255 0 0 0 0 0.196078 0 0 0 0 0.552941 0 0 0 1 0"/>
<feBlend mode="normal" in2="effect2_dropShadow" result="effect3_dropShadow"/>
<feColorMatrix in="SourceAlpha" type="matrix" values="0 0 0 0 0 0 0 0 0 0 0 0 0 0 0 0 0 0 127 0" result="hardAlpha"/>
<feOffset/>
<feGaussianBlur stdDeviation="2"/>
<feComposite in2="hardAlpha" operator="out"/>
<feColorMatrix type="matrix" values="0 0 0 0 0.937255 0 0 0 0 0.196078 0 0 0 0 0.552941 0 0 0 1 0"/>
<feBlend mode="normal" in2="effect3_dropShadow" result="effect4_dropShadow"/>
<feColorMatrix in="SourceAlpha" type="matrix" values="0 0 0 0 0 0 0 0 0 0 0 0 0 0 0 0 0 0 127 0" result="hardAlpha"/>
<feOffset/>
<feGaussianBlur stdDeviation="1.5"/>
<feComposite in2="hardAlpha" operator="out"/>
<feColorMatrix type="matrix" values="0 0 0 0 0.937255 0 0 0 0 0.196078 0 0 0 0 0.552941 0 0 0 1 0"/>
<feBlend mode="normal" in2="effect4_dropShadow" result="effect5_dropShadow"/>
<feBlend mode="normal" in="SourceGraphic" in2="effect5_dropShadow" result="shape"/>
</filter>
<filter id="filter11_dddd" x="131.848" y="436.96" width="35.5035" height="37.3711" filterUnits="userSpaceOnUse" color-interpolation-filters="sRGB">
<feFlood flood-opacity="0" result="BackgroundImageFix"/>
<feColorMatrix in="SourceAlpha" type="matrix" values="0 0 0 0 0 0 0 0 0 0 0 0 0 0 0 0 0 0 127 0" result="hardAlpha"/>
<feOffset/>
<feGaussianBlur stdDeviation="2"/>
<feComposite in2="hardAlpha" operator="out"/>
<feColorMatrix type="matrix" values="0 0 0 0 1 0 0 0 0 1 0 0 0 0 1 0 0 0 1 0"/>
<feBlend mode="normal" in2="BackgroundImageFix" result="effect1_dropShadow"/>
<feColorMatrix in="SourceAlpha" type="matrix" values="0 0 0 0 0 0 0 0 0 0 0 0 0 0 0 0 0 0 127 0" result="hardAlpha"/>
<feOffset/>
<feGaussianBlur stdDeviation="3"/>
<feComposite in2="hardAlpha" operator="out"/>
<feColorMatrix type="matrix" values="0 0 0 0 1 0 0 0 0 1 0 0 0 0 1 0 0 0 1 0"/>
<feBlend mode="normal" in2="effect1_dropShadow" result="effect2_dropShadow"/>
<feColorMatrix in="SourceAlpha" type="matrix" values="0 0 0 0 0 0 0 0 0 0 0 0 0 0 0 0 0 0 127 0" result="hardAlpha"/>
<feOffset/>
<feGaussianBlur stdDeviation="2"/>
<feComposite in2="hardAlpha" operator="out"/>
<feColorMatrix type="matrix" values="0 0 0 0 1 0 0 0 0 1 0 0 0 0 1 0 0 0 1 0"/>
<feBlend mode="normal" in2="effect2_dropShadow" result="effect3_dropShadow"/>
<feColorMatrix in="SourceAlpha" type="matrix" values="0 0 0 0 0 0 0 0 0 0 0 0 0 0 0 0 0 0 127 0" result="hardAlpha"/>
<feOffset/>
<feGaussianBlur stdDeviation="1.5"/>
<feComposite in2="hardAlpha" operator="out"/>
<feColorMatrix type="matrix" values="0 0 0 0 1 0 0 0 0 1 0 0 0 0 1 0 0 0 1 0"/>
<feBlend mode="normal" in2="effect3_dropShadow" result="effect4_dropShadow"/>
<feBlend mode="normal" in="SourceGraphic" in2="effect4_dropShadow" result="shape"/>
</filter>
<filter id="filter12_dddd" x="237.554" y="418.265" width="31.5893" height="37.3615" filterUnits="userSpaceOnUse" color-interpolation-filters="sRGB">
<feFlood flood-opacity="0" result="BackgroundImageFix"/>
<feColorMatrix in="SourceAlpha" type="matrix" values="0 0 0 0 0 0 0 0 0 0 0 0 0 0 0 0 0 0 127 0" result="hardAlpha"/>
<feOffset/>
<feGaussianBlur stdDeviation="2"/>
<feComposite in2="hardAlpha" operator="out"/>
<feColorMatrix type="matrix" values="0 0 0 0 1 0 0 0 0 1 0 0 0 0 1 0 0 0 1 0"/>
<feBlend mode="normal" in2="BackgroundImageFix" result="effect1_dropShadow"/>
<feColorMatrix in="SourceAlpha" type="matrix" values="0 0 0 0 0 0 0 0 0 0 0 0 0 0 0 0 0 0 127 0" result="hardAlpha"/>
<feOffset/>
<feGaussianBlur stdDeviation="3"/>
<feComposite in2="hardAlpha" operator="out"/>
<feColorMatrix type="matrix" values="0 0 0 0 1 0 0 0 0 1 0 0 0 0 1 0 0 0 1 0"/>
<feBlend mode="normal" in2="effect1_dropShadow" result="effect2_dropShadow"/>
<feColorMatrix in="SourceAlpha" type="matrix" values="0 0 0 0 0 0 0 0 0 0 0 0 0 0 0 0 0 0 127 0" result="hardAlpha"/>
<feOffset/>
<feGaussianBlur stdDeviation="2"/>
<feComposite in2="hardAlpha" operator="out"/>
<feColorMatrix type="matrix" values="0 0 0 0 1 0 0 0 0 1 0 0 0 0 1 0 0 0 1 0"/>
<feBlend mode="normal" in2="effect2_dropShadow" result="effect3_dropShadow"/>
<feColorMatrix in="SourceAlpha" type="matrix" values="0 0 0 0 0 0 0 0 0 0 0 0 0 0 0 0 0 0 127 0" result="hardAlpha"/>
<feOffset/>
<feGaussianBlur stdDeviation="1.5"/>
<feComposite in2="hardAlpha" operator="out"/>
<feColorMatrix type="matrix" values="0 0 0 0 1 0 0 0 0 1 0 0 0 0 1 0 0 0 1 0"/>
<feBlend mode="normal" in2="effect3_dropShadow" result="effect4_dropShadow"/>
<feBlend mode="normal" in="SourceGraphic" in2="effect4_dropShadow" result="shape"/>
</filter>
<filter id="filter13_dddd" x="183.983" y="432.208" width="39.3985" height="39.3986" filterUnits="userSpaceOnUse" color-interpolation-filters="sRGB">
<feFlood flood-opacity="0" result="BackgroundImageFix"/>
<feColorMatrix in="SourceAlpha" type="matrix" values="0 0 0 0 0 0 0 0 0 0 0 0 0 0 0 0 0 0 127 0" result="hardAlpha"/>
<feOffset/>
<feGaussianBlur stdDeviation="2"/>
<feComposite in2="hardAlpha" operator="out"/>
<feColorMatrix type="matrix" values="0 0 0 0 1 0 0 0 0 1 0 0 0 0 1 0 0 0 1 0"/>
<feBlend mode="normal" in2="BackgroundImageFix" result="effect1_dropShadow"/>
<feColorMatrix in="SourceAlpha" type="matrix" values="0 0 0 0 0 0 0 0 0 0 0 0 0 0 0 0 0 0 127 0" result="hardAlpha"/>
<feOffset/>
<feGaussianBlur stdDeviation="3"/>
<feComposite in2="hardAlpha" operator="out"/>
<feColorMatrix type="matrix" values="0 0 0 0 1 0 0 0 0 1 0 0 0 0 1 0 0 0 1 0"/>
<feBlend mode="normal" in2="effect1_dropShadow" result="effect2_dropShadow"/>
<feColorMatrix in="SourceAlpha" type="matrix" values="0 0 0 0 0 0 0 0 0 0 0 0 0 0 0 0 0 0 127 0" result="hardAlpha"/>
<feOffset/>
<feGaussianBlur stdDeviation="2"/>
<feComposite in2="hardAlpha" operator="out"/>
<feColorMatrix type="matrix" values="0 0 0 0 1 0 0 0 0 1 0 0 0 0 1 0 0 0 1 0"/>
<feBlend mode="normal" in2="effect2_dropShadow" result="effect3_dropShadow"/>
<feColorMatrix in="SourceAlpha" type="matrix" values="0 0 0 0 0 0 0 0 0 0 0 0 0 0 0 0 0 0 127 0" result="hardAlpha"/>
<feOffset/>
<feGaussianBlur stdDeviation="1.5"/>
<feComposite in2="hardAlpha" operator="out"/>
<feColorMatrix type="matrix" values="0 0 0 0 1 0 0 0 0 1 0 0 0 0 1 0 0 0 1 0"/>
<feBlend mode="normal" in2="effect3_dropShadow" result="effect4_dropShadow"/>
<feBlend mode="normal" in="SourceGraphic" in2="effect4_dropShadow" result="shape"/>
</filter>
<filter id="filter14_dddd" x="162.294" y="261.461" width="28.9441" height="34.166" filterUnits="userSpaceOnUse" color-interpolation-filters="sRGB">
<feFlood flood-opacity="0" result="BackgroundImageFix"/>
<feColorMatrix in="SourceAlpha" type="matrix" values="0 0 0 0 0 0 0 0 0 0 0 0 0 0 0 0 0 0 127 0" result="hardAlpha"/>
<feOffset/>
<feGaussianBlur stdDeviation="2"/>
<feComposite in2="hardAlpha" operator="out"/>
<feColorMatrix type="matrix" values="0 0 0 0 1 0 0 0 0 1 0 0 0 0 1 0 0 0 1 0"/>
<feBlend mode="normal" in2="BackgroundImageFix" result="effect1_dropShadow"/>
<feColorMatrix in="SourceAlpha" type="matrix" values="0 0 0 0 0 0 0 0 0 0 0 0 0 0 0 0 0 0 127 0" result="hardAlpha"/>
<feOffset/>
<feGaussianBlur stdDeviation="3"/>
<feComposite in2="hardAlpha" operator="out"/>
<feColorMatrix type="matrix" values="0 0 0 0 1 0 0 0 0 1 0 0 0 0 1 0 0 0 1 0"/>
<feBlend mode="normal" in2="effect1_dropShadow" result="effect2_dropShadow"/>
<feColorMatrix in="SourceAlpha" type="matrix" values="0 0 0 0 0 0 0 0 0 0 0 0 0 0 0 0 0 0 127 0" result="hardAlpha"/>
<feOffset/>
<feGaussianBlur stdDeviation="2"/>
<feComposite in2="hardAlpha" operator="out"/>
<feColorMatrix type="matrix" values="0 0 0 0 1 0 0 0 0 1 0 0 0 0 1 0 0 0 1 0"/>
<feBlend mode="normal" in2="effect2_dropShadow" result="effect3_dropShadow"/>
<feColorMatrix in="SourceAlpha" type="matrix" values="0 0 0 0 0 0 0 0 0 0 0 0 0 0 0 0 0 0 127 0" result="hardAlpha"/>
<feOffset/>
<feGaussianBlur stdDeviation="1.5"/>
<feComposite in2="hardAlpha" operator="out"/>
<feColorMatrix type="matrix" values="0 0 0 0 1 0 0 0 0 1 0 0 0 0 1 0 0 0 1 0"/>
<feBlend mode="normal" in2="effect3_dropShadow" result="effect4_dropShadow"/>
<feBlend mode="normal" in="SourceGraphic" in2="effect4_dropShadow" result="shape"/>
</filter>
<filter id="filter15_dddd" x="191.689" y="245.732" width="28.9431" height="34.1712" filterUnits="userSpaceOnUse" color-interpolation-filters="sRGB">
<feFlood flood-opacity="0" result="BackgroundImageFix"/>
<feColorMatrix in="SourceAlpha" type="matrix" values="0 0 0 0 0 0 0 0 0 0 0 0 0 0 0 0 0 0 127 0" result="hardAlpha"/>
<feOffset/>
<feGaussianBlur stdDeviation="2"/>
<feComposite in2="hardAlpha" operator="out"/>
<feColorMatrix type="matrix" values="0 0 0 0 1 0 0 0 0 1 0 0 0 0 1 0 0 0 1 0"/>
<feBlend mode="normal" in2="BackgroundImageFix" result="effect1_dropShadow"/>
<feColorMatrix in="SourceAlpha" type="matrix" values="0 0 0 0 0 0 0 0 0 0 0 0 0 0 0 0 0 0 127 0" result="hardAlpha"/>
<feOffset/>
<feGaussianBlur stdDeviation="3"/>
<feComposite in2="hardAlpha" operator="out"/>
<feColorMatrix type="matrix" values="0 0 0 0 1 0 0 0 0 1 0 0 0 0 1 0 0 0 1 0"/>
<feBlend mode="normal" in2="effect1_dropShadow" result="effect2_dropShadow"/>
<feColorMatrix in="SourceAlpha" type="matrix" values="0 0 0 0 0 0 0 0 0 0 0 0 0 0 0 0 0 0 127 0" result="hardAlpha"/>
<feOffset/>
<feGaussianBlur stdDeviation="2"/>
<feComposite in2="hardAlpha" operator="out"/>
<feColorMatrix type="matrix" values="0 0 0 0 1 0 0 0 0 1 0 0 0 0 1 0 0 0 1 0"/>
<feBlend mode="normal" in2="effect2_dropShadow" result="effect3_dropShadow"/>
<feColorMatrix in="SourceAlpha" type="matrix" values="0 0 0 0 0 0 0 0 0 0 0 0 0 0 0 0 0 0 127 0" result="hardAlpha"/>
<feOffset/>
<feGaussianBlur stdDeviation="1.5"/>
<feComposite in2="hardAlpha" operator="out"/>
<feColorMatrix type="matrix" values="0 0 0 0 1 0 0 0 0 1 0 0 0 0 1 0 0 0 1 0"/>
<feBlend mode="normal" in2="effect3_dropShadow" result="effect4_dropShadow"/>
<feBlend mode="normal" in="SourceGraphic" in2="effect4_dropShadow" result="shape"/>
</filter>
<filter id="filter16_dddd" x="339.945" y="182.4" width="27.0444" height="27.229" filterUnits="userSpaceOnUse" color-interpolation-filters="sRGB">
<feFlood flood-opacity="0" result="BackgroundImageFix"/>
<feColorMatrix in="SourceAlpha" type="matrix" values="0 0 0 0 0 0 0 0 0 0 0 0 0 0 0 0 0 0 127 0" result="hardAlpha"/>
<feOffset/>
<feGaussianBlur stdDeviation="2"/>
<feComposite in2="hardAlpha" operator="out"/>
<feColorMatrix type="matrix" values="0 0 0 0 1 0 0 0 0 1 0 0 0 0 1 0 0 0 1 0"/>
<feBlend mode="normal" in2="BackgroundImageFix" result="effect1_dropShadow"/>
<feColorMatrix in="SourceAlpha" type="matrix" values="0 0 0 0 0 0 0 0 0 0 0 0 0 0 0 0 0 0 127 0" result="hardAlpha"/>
<feOffset/>
<feGaussianBlur stdDeviation="3"/>
<feComposite in2="hardAlpha" operator="out"/>
<feColorMatrix type="matrix" values="0 0 0 0 1 0 0 0 0 1 0 0 0 0 1 0 0 0 1 0"/>
<feBlend mode="normal" in2="effect1_dropShadow" result="effect2_dropShadow"/>
<feColorMatrix in="SourceAlpha" type="matrix" values="0 0 0 0 0 0 0 0 0 0 0 0 0 0 0 0 0 0 127 0" result="hardAlpha"/>
<feOffset/>
<feGaussianBlur stdDeviation="2"/>
<feComposite in2="hardAlpha" operator="out"/>
<feColorMatrix type="matrix" values="0 0 0 0 1 0 0 0 0 1 0 0 0 0 1 0 0 0 1 0"/>
<feBlend mode="normal" in2="effect2_dropShadow" result="effect3_dropShadow"/>
<feColorMatrix in="SourceAlpha" type="matrix" values="0 0 0 0 0 0 0 0 0 0 0 0 0 0 0 0 0 0 127 0" result="hardAlpha"/>
<feOffset/>
<feGaussianBlur stdDeviation="1.5"/>
<feComposite in2="hardAlpha" operator="out"/>
<feColorMatrix type="matrix" values="0 0 0 0 1 0 0 0 0 1 0 0 0 0 1 0 0 0 1 0"/>
<feBlend mode="normal" in2="effect3_dropShadow" result="effect4_dropShadow"/>
<feBlend mode="normal" in="SourceGraphic" in2="effect4_dropShadow" result="shape"/>
</filter>
</defs>
</svg>
