<svg width="24" height="24" viewBox="0 0 24 24" fill="none" xmlns="http://www.w3.org/2000/svg">
<path d="M20.6199 0.195389C21.1409 -0.00364177 21.7008 0.389499 21.6766 0.946702C21.4812 5.43737 19.9354 9.30859 19.9354 9.30859L14.0967 5.21181C16.4245 2.40803 19.2414 0.72203 20.6199 0.195389Z" fill="#D26437"/>
<path d="M16.043 6.57747C17.5602 4.1065 19.8487 1.74719 20.5733 1.32625C20.867 1.15562 21.1249 1.57309 21.0591 2.12336C20.7092 5.05211 20.0745 7.68268 19.6837 9.13206L16.043 6.57747Z" fill="#B44632"/>
<path d="M3.37973 0.195389C2.85871 -0.00364177 2.29879 0.389499 2.32303 0.946702C2.5184 5.43737 4.0642 9.30859 4.0642 9.30859L9.9029 5.21181C7.57504 2.40803 4.75823 0.72203 3.37973 0.195389Z" fill="#D26437"/>
<path d="M7.9572 6.57747C6.43995 4.1065 4.15142 1.74719 3.42687 1.32625C3.13315 1.15562 2.87524 1.57309 2.94101 2.12336C3.29093 5.05211 3.92562 7.68268 4.31646 9.13206L7.9572 6.57747Z" fill="#B44632"/>
<path d="M11.9998 23.857C13.2825 23.857 14.3224 23.1638 14.3224 22.3087C14.3224 21.4537 13.2825 20.7605 11.9998 20.7605C10.7171 20.7605 9.67725 21.4537 9.67725 22.3087C9.67725 23.1638 10.7171 23.857 11.9998 23.857Z" fill="#EBC9A0"/>
<path d="M9.2903 21.9215C6.58064 20.3731 2.09156 18.6874 2.09156 18.6874L2.52234 17.395C2.34075 17.3087 1.09673 17.2925 0 17.6634L1.16128 15.728H9.2903V21.9215Z" fill="#EBC9A0"/>
<path d="M14.7095 21.9215C17.4191 20.3731 21.9082 18.6874 21.9082 18.6874L21.4774 17.395C21.659 17.3087 22.903 17.2925 23.9998 17.6634L22.8385 15.728H14.7095V21.9215Z" fill="#EBC9A0"/>
<path d="M12 4.5022C17.6427 4.5022 22.4867 10.1558 23.9826 17.5761C23.9884 17.6052 23.9942 17.6343 24 17.6635C24 17.6635 21.1452 14.7119 18.0484 16.2845C16.9 16.8676 16.3548 18.1489 16.3548 19.549C16.3548 21.8705 14.4939 23.1549 12.2894 22.2627C12.1025 22.187 11.8975 22.187 11.7106 22.2627C9.50602 23.155 7.64512 21.8705 7.64512 19.549C7.64512 18.1489 7.09992 16.8676 5.95158 16.2845C2.85483 14.7119 0 17.6635 0 17.6635C0.00576563 17.6343 0.0115781 17.6052 0.0174375 17.5761C1.51331 10.1557 6.35733 4.5022 12 4.5022Z" fill="#EB874B"/>
<path d="M7.93539 15.3409C7.19022 15.3409 6.58057 14.7312 6.58057 13.986V13.2118C6.58057 12.4667 7.19022 11.857 7.93539 11.857C8.68057 11.857 9.29022 12.4667 9.29022 13.2118V13.986C9.29027 14.7312 8.68057 15.3409 7.93539 15.3409Z" fill="#4B3F4E"/>
<path d="M7.93525 11.857C7.86901 11.857 7.80545 11.8674 7.7417 11.8767V13.7925C7.7417 14.22 8.08834 14.5667 8.51589 14.5667C8.94348 14.5667 9.29007 14.22 9.29007 13.7925V13.2118C9.29012 12.4667 8.68042 11.857 7.93525 11.857Z" fill="#5D5360"/>
<path d="M7.93562 13.4056C8.2563 13.4056 8.51626 13.1457 8.51626 12.825C8.51626 12.5043 8.2563 12.2444 7.93562 12.2444C7.61494 12.2444 7.35498 12.5043 7.35498 12.825C7.35498 13.1457 7.61494 13.4056 7.93562 13.4056Z" fill="white"/>
<path d="M16.0643 15.3409C15.3191 15.3409 14.7095 14.7312 14.7095 13.986V13.2118C14.7095 12.4667 15.3191 11.857 16.0643 11.857C16.8095 11.857 17.4191 12.4667 17.4191 13.2118V13.986C17.4191 14.7312 16.8094 15.3409 16.0643 15.3409Z" fill="#4B3F4E"/>
<path d="M16.0646 11.857C15.9984 11.857 15.9348 11.8674 15.8711 11.8767V13.7925C15.8711 14.22 16.2177 14.5667 16.6453 14.5667C17.0729 14.5667 17.4195 14.22 17.4195 13.7925V13.2118C17.4195 12.4667 16.8098 11.857 16.0646 11.857Z" fill="#5D5360"/>
<path d="M16.0645 13.4056C16.3852 13.4056 16.6452 13.1457 16.6452 12.825C16.6452 12.5043 16.3852 12.2444 16.0645 12.2444C15.7438 12.2444 15.4839 12.5043 15.4839 12.825C15.4839 13.1457 15.7438 13.4056 16.0645 13.4056Z" fill="white"/>
<path d="M11.6128 22.2984C11.6463 22.2857 11.6799 22.2728 11.7135 22.2594C11.8973 22.1862 12.1025 22.1862 12.2863 22.2594C12.3199 22.2728 12.3535 22.2857 12.387 22.2984V20.7602H11.6128L11.6128 22.2984Z" fill="#D26437"/>
<path d="M11.9775 18.4377C12.845 18.4377 13.5483 19.0125 13.5483 19.7215C13.5483 20.4054 12.8881 20.7654 12.4117 21.0317C12.1355 21.186 11.8195 21.186 11.5433 21.0317C11.0669 20.7654 10.4067 20.4054 10.4067 19.7215C10.4067 19.0125 11.11 18.4377 11.9775 18.4377Z" fill="#5D5360"/>
<path d="M12.3623 20.9985C11.8858 20.6562 11.2257 20.1933 11.2257 19.3141C11.2257 19.026 11.3022 18.7592 11.4257 18.5234C10.8315 18.7065 10.4067 19.1718 10.4067 19.7215C10.4067 20.4053 11.0669 20.7654 11.5433 21.0316C11.8195 21.1859 12.1355 21.1859 12.4117 21.0316C12.4138 21.0304 12.4162 21.0291 12.4183 21.0279C12.3999 21.0166 12.3804 21.0116 12.3623 20.9985Z" fill="#4B3F4E"/>
<path d="M12 4.5022L11.2472 4.53984C5.93067 5.01632 1.44628 10.4882 0.0174375 17.5761C0.0115781 17.6052 0.00576563 17.6343 0 17.6634C0 17.6634 2.30395 15.2837 5.01731 15.9392C5.35659 6.2984 11.3699 4.5022 12 4.5022Z" fill="#D26437"/>
</svg>
