<svg width="24" height="24" viewBox="0 0 24 24" fill="none" xmlns="http://www.w3.org/2000/svg">
<g clip-path="url(#clip0_303_2311)">
<path d="M4.87527 7.39212C8.74959 3.59799 15.0297 3.59799 18.909 7.39212L19.3751 7.84821C19.5706 8.03867 19.5706 8.34441 19.3751 8.53486L17.7813 10.0986C17.6861 10.1939 17.5257 10.1939 17.4305 10.0986L16.7889 9.47212C14.0874 6.82575 9.70187 6.82575 7.00038 9.47212L6.31373 10.1437C6.2185 10.239 6.05812 10.239 5.96289 10.1437L4.36405 8.57997C4.16858 8.38951 4.16858 8.08378 4.36405 7.89332L4.87527 7.39212ZM22.2069 10.6199L23.6253 12.0082C23.8208 12.1987 23.8208 12.5044 23.6253 12.6949L17.225 18.9649C17.0295 19.1554 16.7187 19.1554 16.5233 18.9649L11.9773 14.5142C11.9272 14.4691 11.852 14.4691 11.8019 14.5142L7.26101 18.9649C7.06554 19.1554 6.75479 19.1554 6.55932 18.9649L0.153927 12.6999C-0.0415432 12.5094 -0.0415432 12.2037 0.153927 12.0132L1.57234 10.6249C1.76781 10.4344 2.07855 10.4344 2.27402 10.6249L6.81995 15.0756C6.87007 15.1207 6.94525 15.1207 6.99537 15.0756L11.5363 10.6249C11.7318 10.4344 12.0425 10.4344 12.238 10.6249L16.7839 15.0756C16.834 15.1207 16.9092 15.1207 16.9593 15.0756L21.5052 10.6249C21.6957 10.4294 22.0115 10.4294 22.2069 10.6199Z" fill="#3A99FB"/>
</g>
<defs>
<clipPath id="clip0_303_2311">
<rect width="24" height="24" fill="white"/>
</clipPath>
</defs>
</svg>
